G04 #@! TF.GenerationSoftware,KiCad,Pcbnew,9.0.3*
G04 #@! TF.CreationDate,2025-09-08T19:44:41+01:00*
G04 #@! TF.ProjectId,tester_pcb_business_card,74657374-6572-45f7-9063-625f62757369,rev?*
G04 #@! TF.SameCoordinates,Original*
G04 #@! TF.FileFunction,Copper,L1,Top*
G04 #@! TF.FilePolarity,Positive*
%FSLAX46Y46*%
G04 Gerber Fmt 4.6, Leading zero omitted, Abs format (unit mm)*
G04 Created by KiCad (PCBNEW 9.0.3) date 2025-09-08 19:44:41*
%MOMM*%
%LPD*%
G01*
G04 APERTURE LIST*
G04 Aperture macros list*
%AMRoundRect*
0 Rectangle with rounded corners*
0 $1 Rounding radius*
0 $2 $3 $4 $5 $6 $7 $8 $9 X,Y pos of 4 corners*
0 Add a 4 corners polygon primitive as box body*
4,1,4,$2,$3,$4,$5,$6,$7,$8,$9,$2,$3,0*
0 Add four circle primitives for the rounded corners*
1,1,$1+$1,$2,$3*
1,1,$1+$1,$4,$5*
1,1,$1+$1,$6,$7*
1,1,$1+$1,$8,$9*
0 Add four rect primitives between the rounded corners*
20,1,$1+$1,$2,$3,$4,$5,0*
20,1,$1+$1,$4,$5,$6,$7,0*
20,1,$1+$1,$6,$7,$8,$9,0*
20,1,$1+$1,$8,$9,$2,$3,0*%
%AMRotRect*
0 Rectangle, with rotation*
0 The origin of the aperture is its center*
0 $1 length*
0 $2 width*
0 $3 Rotation angle, in degrees counterclockwise*
0 Add horizontal line*
21,1,$1,$2,0,0,$3*%
G04 Aperture macros list end*
G04 #@! TA.AperFunction,SMDPad,CuDef*
%ADD10RoundRect,0.200000X0.200000X0.275000X-0.200000X0.275000X-0.200000X-0.275000X0.200000X-0.275000X0*%
G04 #@! TD*
G04 #@! TA.AperFunction,SMDPad,CuDef*
%ADD11RoundRect,0.243750X-0.243750X-0.456250X0.243750X-0.456250X0.243750X0.456250X-0.243750X0.456250X0*%
G04 #@! TD*
G04 #@! TA.AperFunction,SMDPad,CuDef*
%ADD12RoundRect,0.200000X-0.200000X-0.275000X0.200000X-0.275000X0.200000X0.275000X-0.200000X0.275000X0*%
G04 #@! TD*
G04 #@! TA.AperFunction,SMDPad,CuDef*
%ADD13RoundRect,0.157500X-0.367500X-0.842500X0.367500X-0.842500X0.367500X0.842500X-0.367500X0.842500X0*%
G04 #@! TD*
G04 #@! TA.AperFunction,ComponentPad*
%ADD14R,1.700000X1.700000*%
G04 #@! TD*
G04 #@! TA.AperFunction,ComponentPad*
%ADD15C,1.700000*%
G04 #@! TD*
G04 #@! TA.AperFunction,SMDPad,CuDef*
%ADD16RoundRect,0.050000X-0.229810X-0.300520X0.300520X0.229810X0.229810X0.300520X-0.300520X-0.229810X0*%
G04 #@! TD*
G04 #@! TA.AperFunction,SMDPad,CuDef*
%ADD17RoundRect,0.050000X0.229810X-0.300520X0.300520X-0.229810X-0.229810X0.300520X-0.300520X0.229810X0*%
G04 #@! TD*
G04 #@! TA.AperFunction,HeatsinkPad*
%ADD18RotRect,1.650000X1.650000X45.000000*%
G04 #@! TD*
G04 #@! TA.AperFunction,SMDPad,CuDef*
%ADD19RoundRect,0.150000X0.500000X-0.150000X0.500000X0.150000X-0.500000X0.150000X-0.500000X-0.150000X0*%
G04 #@! TD*
G04 #@! TA.AperFunction,SMDPad,CuDef*
%ADD20RoundRect,0.175000X0.175000X-0.350000X0.175000X0.350000X-0.175000X0.350000X-0.175000X-0.350000X0*%
G04 #@! TD*
G04 #@! TA.AperFunction,SMDPad,CuDef*
%ADD21RoundRect,0.360000X-0.840000X-2.690000X0.840000X-2.690000X0.840000X2.690000X-0.840000X2.690000X0*%
G04 #@! TD*
G04 #@! TA.AperFunction,SMDPad,CuDef*
%ADD22C,12.000000*%
G04 #@! TD*
G04 #@! TA.AperFunction,SMDPad,CuDef*
%ADD23RoundRect,0.250000X-0.445000X0.457500X-0.445000X-0.457500X0.445000X-0.457500X0.445000X0.457500X0*%
G04 #@! TD*
G04 #@! TA.AperFunction,SMDPad,CuDef*
%ADD24RoundRect,0.250000X0.250000X0.475000X-0.250000X0.475000X-0.250000X-0.475000X0.250000X-0.475000X0*%
G04 #@! TD*
G04 #@! TA.AperFunction,ViaPad*
%ADD25C,0.600000*%
G04 #@! TD*
G04 #@! TA.AperFunction,Conductor*
%ADD26C,0.200000*%
G04 #@! TD*
G04 APERTURE END LIST*
D10*
X85293200Y-88239600D03*
X83643200Y-88239600D03*
X65137000Y-76707200D03*
X63487000Y-76707200D03*
D11*
X83570600Y-82956400D03*
X85445600Y-82956400D03*
X69673700Y-74878400D03*
X71548700Y-74878400D03*
D12*
X66586600Y-110947200D03*
X68236600Y-110947200D03*
D10*
X84136200Y-76707200D03*
X82486200Y-76707200D03*
X77837000Y-76707200D03*
X76187000Y-76707200D03*
X85293200Y-86715600D03*
X83643200Y-86715600D03*
D11*
X75973700Y-82956400D03*
X77848700Y-82956400D03*
X79760600Y-82956400D03*
X81635600Y-82956400D03*
D13*
X87934800Y-113627100D03*
X92384800Y-113627100D03*
D10*
X81507600Y-88239600D03*
X79857600Y-88239600D03*
D11*
X68353700Y-82956400D03*
X70228700Y-82956400D03*
D10*
X81507600Y-86715600D03*
X79857600Y-86715600D03*
X58888600Y-76707200D03*
X57238600Y-76707200D03*
X77697600Y-88239600D03*
X76047600Y-88239600D03*
D11*
X57126100Y-74878400D03*
X59001100Y-74878400D03*
X75973700Y-84988400D03*
X77848700Y-84988400D03*
X68353700Y-84988400D03*
X70228700Y-84988400D03*
D14*
X133350000Y-109220000D03*
D15*
X133350000Y-106680000D03*
X133350000Y-104140000D03*
D16*
X95039910Y-86302319D03*
X95322752Y-86585162D03*
X95605595Y-86868005D03*
X95888438Y-87150848D03*
X96171281Y-87433690D03*
D17*
X97090519Y-87433690D03*
X97373362Y-87150848D03*
X97656205Y-86868005D03*
X97939048Y-86585162D03*
X98221890Y-86302319D03*
D16*
X98221890Y-85383081D03*
X97939048Y-85100238D03*
X97656205Y-84817395D03*
X97373362Y-84534552D03*
X97090519Y-84251710D03*
D17*
X96171281Y-84251710D03*
X95888438Y-84534552D03*
X95605595Y-84817395D03*
X95322752Y-85100238D03*
X95039910Y-85383081D03*
D18*
X96630900Y-85842700D03*
D11*
X83570600Y-84988400D03*
X85445600Y-84988400D03*
D19*
X132080000Y-93980000D03*
X132080000Y-90980000D03*
X132080000Y-89480000D03*
D20*
X132930000Y-95405000D03*
X135130000Y-95405000D03*
X132930000Y-88055000D03*
X135130000Y-88055000D03*
D11*
X63323700Y-74878400D03*
X65198700Y-74878400D03*
X82322900Y-74878400D03*
X84197900Y-74878400D03*
D13*
X72694800Y-113627100D03*
X77144800Y-113627100D03*
D11*
X79760600Y-84988400D03*
X81635600Y-84988400D03*
D10*
X70154800Y-86715600D03*
X68504800Y-86715600D03*
D12*
X74105000Y-111048800D03*
X75755000Y-111048800D03*
D13*
X80314800Y-113627100D03*
X84764800Y-113627100D03*
D11*
X72140600Y-82956400D03*
X74015600Y-82956400D03*
D10*
X73938400Y-86715600D03*
X72288400Y-86715600D03*
D11*
X72140600Y-84988400D03*
X74015600Y-84988400D03*
D12*
X89485200Y-111201200D03*
X91135200Y-111201200D03*
D10*
X71487000Y-76707200D03*
X69837000Y-76707200D03*
D12*
X96952800Y-111150400D03*
X98602800Y-111150400D03*
X81826600Y-111099600D03*
X83476600Y-111099600D03*
D10*
X70154800Y-88239600D03*
X68504800Y-88239600D03*
X73938400Y-88239600D03*
X72288400Y-88239600D03*
D11*
X76023700Y-74878400D03*
X77898700Y-74878400D03*
D21*
X132080000Y-78740000D03*
X109423200Y-78740000D03*
D22*
X120751600Y-78740000D03*
D13*
X65074800Y-113627100D03*
X69524800Y-113627100D03*
X95554800Y-113627100D03*
X100004800Y-113627100D03*
D10*
X77697600Y-86715600D03*
X76047600Y-86715600D03*
D23*
X105765600Y-77590700D03*
X105765600Y-80295700D03*
D24*
X97569300Y-82130700D03*
X95669300Y-82130700D03*
D25*
X133822900Y-79324200D03*
X132867900Y-92091100D03*
X94796620Y-88389200D03*
X104851200Y-82702400D03*
X99771200Y-83718400D03*
X134398500Y-92070900D03*
X96705464Y-87894664D03*
X100659200Y-77322100D03*
X100404123Y-85516900D03*
X96538200Y-72962600D03*
X98711900Y-84039500D03*
X98165400Y-79097500D03*
X98148200Y-75734800D03*
X80575100Y-74427300D03*
X95602592Y-88326196D03*
X94335600Y-85039200D03*
X89456300Y-75734800D03*
X96250100Y-83529100D03*
X80495400Y-110465000D03*
X89357200Y-85547200D03*
X90086700Y-85133900D03*
X87759800Y-111591500D03*
X93048700Y-111310000D03*
X92128200Y-87273200D03*
X94420800Y-113125000D03*
X90831533Y-87667200D03*
D26*
X115366800Y-68072000D02*
X109423200Y-74015600D01*
X132080000Y-78740000D02*
X132080000Y-74066400D01*
X133822900Y-79324200D02*
X132664200Y-79324200D01*
X132664200Y-79324200D02*
X132080000Y-78740000D01*
X126085600Y-68072000D02*
X115366800Y-68072000D01*
X132080000Y-93980000D02*
X132867900Y-93192100D01*
X132080000Y-74066400D02*
X126085600Y-68072000D01*
X109423200Y-74015600D02*
X109423200Y-78740000D01*
X132867900Y-93192100D02*
X132867900Y-92091100D01*
X96630900Y-85842700D02*
X96630900Y-86408386D01*
X96630900Y-86408386D02*
X95888438Y-87150848D01*
X95888438Y-87150848D02*
X94796620Y-88242666D01*
X104851200Y-82702400D02*
X105765600Y-81788000D01*
X105765600Y-81788000D02*
X105765600Y-80343200D01*
X94796620Y-88242666D02*
X94796620Y-88389200D01*
X133350000Y-104140000D02*
X103963200Y-104140000D01*
X105765600Y-77543200D02*
X107805100Y-79582700D01*
X79894200Y-110272000D02*
X74881800Y-110272000D01*
X103963200Y-104140000D02*
X98668300Y-109434900D01*
X59380800Y-76707200D02*
X58888600Y-76707200D01*
X131167700Y-91892300D02*
X131167700Y-94300800D01*
X134042400Y-94542300D02*
X134966700Y-93618000D01*
X98668300Y-109434900D02*
X96952800Y-111150400D01*
X88609100Y-110325100D02*
X81826600Y-110325100D01*
X134966700Y-93618000D02*
X134966700Y-92639100D01*
X96237000Y-110434600D02*
X90251800Y-110434600D01*
X81826600Y-111099600D02*
X81826600Y-110325100D01*
X69043600Y-110209700D02*
X67324100Y-110209700D01*
X69381800Y-109871400D02*
X69043600Y-110209600D01*
X65137000Y-76707200D02*
X64399500Y-77444700D01*
X89485200Y-111201200D02*
X88609100Y-110325100D01*
X132080000Y-90980000D02*
X131167700Y-91892300D01*
X117219800Y-90980000D02*
X132080000Y-90980000D01*
X131167700Y-94300800D02*
X131409200Y-94542300D01*
X80262800Y-109903300D02*
X79894200Y-110271900D01*
X77837000Y-76707200D02*
X77061700Y-77482500D01*
X107805100Y-81565300D02*
X117219800Y-90980000D01*
X131409200Y-94542300D02*
X134042400Y-94542300D01*
X134966700Y-92639100D02*
X134398500Y-92070900D01*
X84136200Y-76707200D02*
X83341800Y-77501600D01*
X65912300Y-77482500D02*
X65137000Y-76707200D01*
X72927600Y-109871400D02*
X69381800Y-109871400D01*
X90251800Y-110434600D02*
X89485200Y-111201200D01*
X79894200Y-110271900D02*
X79894200Y-110272000D01*
X97090500Y-87509628D02*
X96705464Y-87894664D01*
X83341800Y-77501600D02*
X78631400Y-77501600D01*
X101178100Y-82130700D02*
X105765600Y-77543200D01*
X71487000Y-77482500D02*
X71487000Y-76707200D01*
X74105000Y-111048800D02*
X72927600Y-109871400D01*
X97569300Y-82130700D02*
X101178100Y-82130700D01*
X99771200Y-83718400D02*
X98183500Y-82130700D01*
X97090500Y-87433700D02*
X97090500Y-87509628D01*
X77061700Y-77482500D02*
X71487000Y-77482500D01*
X60118300Y-77444700D02*
X59380800Y-76707200D01*
X64399500Y-77444700D02*
X60118300Y-77444700D01*
X71487000Y-77482500D02*
X65912300Y-77482500D01*
X78631400Y-77501600D02*
X77837000Y-76707200D01*
X81826600Y-110325100D02*
X81404800Y-109903300D01*
X69043600Y-110209600D02*
X69043600Y-110209700D01*
X67324100Y-110209700D02*
X66586600Y-110947200D01*
X81404800Y-109903300D02*
X80262800Y-109903300D01*
X84136200Y-76707200D02*
X104929600Y-76707200D01*
X98183500Y-82130700D02*
X97569300Y-82130700D01*
X104929600Y-76707200D02*
X105765600Y-77543200D01*
X96952800Y-111150400D02*
X96237000Y-110434600D01*
X107805100Y-79582700D02*
X107805100Y-81565300D01*
X74881800Y-110272000D02*
X74105000Y-111048800D01*
X57238600Y-76707200D02*
X57126100Y-76594700D01*
X57238600Y-76640900D02*
X59001100Y-74878400D01*
X57238600Y-76707200D02*
X57238600Y-76640900D01*
X98303700Y-84735500D02*
X99458600Y-84735500D01*
X97939000Y-85100200D02*
X98303700Y-84735500D01*
X56577600Y-77178694D02*
X56577600Y-75426900D01*
X59789900Y-77910700D02*
X57309606Y-77910700D01*
X100659200Y-77322100D02*
X100070600Y-77910700D01*
X56577600Y-75426900D02*
X57126100Y-74878400D01*
X99458600Y-84735500D02*
X100240000Y-85516900D01*
X57309606Y-77910700D02*
X56577600Y-77178694D01*
X100070600Y-77910700D02*
X59789900Y-77910700D01*
X100240000Y-85516900D02*
X100404123Y-85516900D01*
X63487000Y-76707200D02*
X63487000Y-76590100D01*
X63487000Y-76707200D02*
X63323700Y-76543900D01*
X63487000Y-76590100D02*
X65198700Y-74878400D01*
X65239500Y-72962600D02*
X63323700Y-74878400D01*
X96538200Y-72962600D02*
X65239500Y-72962600D01*
X98711900Y-84039500D02*
X98434100Y-84039500D01*
X98434100Y-84039500D02*
X97656200Y-84817400D01*
X69837000Y-76707200D02*
X69837000Y-76590100D01*
X69837000Y-76590100D02*
X71548700Y-74878400D01*
X69673700Y-76543900D02*
X69837000Y-76707200D01*
X96772500Y-82933200D02*
X96772500Y-80490400D01*
X96772500Y-80490400D02*
X98165400Y-79097500D01*
X97727000Y-84181000D02*
X97727000Y-83887700D01*
X97373400Y-84534600D02*
X97727000Y-84181000D01*
X95969800Y-73556400D02*
X70995700Y-73556400D01*
X97727000Y-83887700D02*
X96772500Y-82933200D01*
X98148200Y-75734800D02*
X95969800Y-73556400D01*
X70995700Y-73556400D02*
X69673700Y-74878400D01*
X76187000Y-76590100D02*
X77898700Y-74878400D01*
X76187000Y-76707200D02*
X76023700Y-76543900D01*
X76187000Y-76707200D02*
X76187000Y-76590100D01*
X80065200Y-73917400D02*
X80575100Y-74427300D01*
X76023700Y-74878400D02*
X76984700Y-73917400D01*
X95602592Y-88002408D02*
X95602592Y-88326196D01*
X96171300Y-87433700D02*
X95602592Y-88002408D01*
X76984700Y-73917400D02*
X80065200Y-73917400D01*
X82486200Y-76590100D02*
X82486200Y-76707200D01*
X82486200Y-76707200D02*
X82322900Y-76543900D01*
X84197900Y-74878400D02*
X82486200Y-76590100D01*
X83283900Y-73917400D02*
X82322900Y-74878400D01*
X87638900Y-73917400D02*
X83283900Y-73917400D01*
X94679481Y-85383081D02*
X94335600Y-85039200D01*
X89456300Y-75734800D02*
X87638900Y-73917400D01*
X95039910Y-85383081D02*
X94679481Y-85383081D01*
X69493800Y-86244106D02*
X70228700Y-85509206D01*
X70228700Y-85509206D02*
X70228700Y-82956400D01*
X69165800Y-88711094D02*
X69165800Y-88089132D01*
X69526800Y-87220094D02*
X69493800Y-87187094D01*
X69526800Y-87728131D02*
X69526800Y-87220094D01*
X97703019Y-87480419D02*
X97703019Y-87791342D01*
X84346317Y-89695600D02*
X80560716Y-89695600D01*
X70152306Y-89697600D02*
X69165800Y-88711094D01*
X96437561Y-89056800D02*
X84985116Y-89056800D01*
X84985116Y-89056800D02*
X84346317Y-89695600D01*
X69493800Y-87187094D02*
X69493800Y-86244106D01*
X80560716Y-89695600D02*
X80558716Y-89697600D01*
X97703019Y-87791342D02*
X96437561Y-89056800D01*
X70228700Y-82956400D02*
X70228700Y-84988400D01*
X80558716Y-89697600D02*
X70152306Y-89697600D01*
X97373400Y-87150800D02*
X97703019Y-87480419D01*
X69165800Y-88089132D02*
X69526800Y-87728131D01*
X98063019Y-87274819D02*
X98063019Y-87940458D01*
X67245200Y-88115325D02*
X67245200Y-82642903D01*
X96586677Y-89416800D02*
X85134233Y-89416800D01*
X80707832Y-90057601D02*
X69187476Y-90057601D01*
X98063019Y-87940458D02*
X96586677Y-89416800D01*
X84495434Y-90055600D02*
X80709833Y-90055600D01*
X68252703Y-81635400D02*
X72694600Y-81635400D01*
X74015600Y-82956400D02*
X74015600Y-84988400D01*
X80709833Y-90055600D02*
X80707832Y-90057601D01*
X85134233Y-89416800D02*
X84495434Y-90055600D01*
X69187476Y-90057601D02*
X67245200Y-88115325D01*
X97656200Y-86868000D02*
X98063019Y-87274819D01*
X72694600Y-81635400D02*
X74015600Y-82956400D01*
X67245200Y-82642903D02*
X68252703Y-81635400D01*
X96735794Y-89776800D02*
X98423019Y-88089574D01*
X98423019Y-87069133D02*
X97939048Y-86585162D01*
X66885200Y-82493787D02*
X66885200Y-88264442D01*
X84642549Y-90417601D02*
X85283350Y-89776800D01*
X76166700Y-81274400D02*
X68104587Y-81274400D01*
X77848700Y-82956400D02*
X77848700Y-84988400D01*
X98423019Y-88089574D02*
X98423019Y-87069133D01*
X66885200Y-88264442D02*
X69038360Y-90417601D01*
X69038360Y-90417601D02*
X84642549Y-90417601D01*
X77848700Y-82956400D02*
X76166700Y-81274400D01*
X85283350Y-89776800D02*
X96735794Y-89776800D01*
X68104587Y-81274400D02*
X66885200Y-82493787D01*
X67955471Y-80914400D02*
X66525200Y-82344671D01*
X79593600Y-80914400D02*
X67955471Y-80914400D01*
X98783019Y-86863419D02*
X98221900Y-86302300D01*
X81635600Y-82956400D02*
X79593600Y-80914400D01*
X85153668Y-90415600D02*
X96608940Y-90415600D01*
X84791667Y-90777601D02*
X85153668Y-90415600D01*
X68889243Y-90777601D02*
X84791667Y-90777601D01*
X96608940Y-90415600D02*
X98783019Y-88241521D01*
X98783019Y-88241521D02*
X98783019Y-86863419D01*
X66525200Y-88413559D02*
X68889243Y-90777601D01*
X66525200Y-82344671D02*
X66525200Y-88413559D01*
X81635600Y-82956400D02*
X81635600Y-84988400D01*
X98386465Y-85383100D02*
X98221900Y-85383100D01*
X99144019Y-88391052D02*
X99144019Y-86713887D01*
X84939782Y-91138602D02*
X85300783Y-90777601D01*
X66164201Y-88563091D02*
X68739713Y-91138602D01*
X85445600Y-82956400D02*
X85445600Y-84988400D01*
X96757470Y-90777601D02*
X99144019Y-88391052D01*
X99143019Y-86712888D02*
X99143019Y-86139653D01*
X68739713Y-91138602D02*
X84939782Y-91138602D01*
X99144019Y-86713887D02*
X99143019Y-86712888D01*
X99143019Y-86139653D02*
X98386465Y-85383100D01*
X85300783Y-90777601D02*
X96757470Y-90777601D01*
X85445600Y-82956400D02*
X83042600Y-80553400D01*
X67805939Y-80553400D02*
X66164200Y-82195140D01*
X83042600Y-80553400D02*
X67805939Y-80553400D01*
X66164200Y-82195140D02*
X66164201Y-88563091D01*
X96250100Y-83529200D02*
X96250100Y-83529100D01*
X96368000Y-83529200D02*
X96250100Y-83529200D01*
X97090500Y-84251700D02*
X96368000Y-83529200D01*
X96171300Y-84251700D02*
X95079200Y-83159600D01*
X65074800Y-82775423D02*
X65074800Y-113627100D01*
X88725100Y-80193400D02*
X67656822Y-80193400D01*
X95079200Y-83159600D02*
X91691300Y-83159600D01*
X91691300Y-83159600D02*
X88725100Y-80193400D01*
X67656822Y-80193400D02*
X65074800Y-82775423D01*
X65556700Y-113627100D02*
X65085000Y-113627100D01*
X68236600Y-110947200D02*
X65556700Y-113627100D01*
X89357200Y-84582000D02*
X89357200Y-85547200D01*
X73176700Y-113627100D02*
X75755000Y-111048800D01*
X90678000Y-83905900D02*
X90033300Y-83905900D01*
X93531429Y-83905900D02*
X90678000Y-83905900D01*
X79911600Y-111048800D02*
X75755000Y-111048800D01*
X90033300Y-83905900D02*
X89357200Y-84582000D01*
X93768129Y-83669200D02*
X93531429Y-83905900D01*
X95023000Y-83669200D02*
X93768129Y-83669200D01*
X95888400Y-84534600D02*
X95023000Y-83669200D01*
X72705000Y-113627100D02*
X73176700Y-113627100D01*
X80495400Y-110465000D02*
X79911600Y-111048800D01*
X94817400Y-84029200D02*
X93917245Y-84029200D01*
X93917245Y-84029200D02*
X93639545Y-84306900D01*
X93639545Y-84306900D02*
X90913700Y-84306900D01*
X95605600Y-84817400D02*
X94817400Y-84029200D01*
X80325000Y-113627100D02*
X81375300Y-113627100D01*
X83476600Y-111525800D02*
X83476600Y-111099600D01*
X87694100Y-111525800D02*
X87759800Y-111591500D01*
X81375300Y-113627100D02*
X83476600Y-111525800D01*
X90913700Y-84306900D02*
X90086700Y-85133900D01*
X83476600Y-111525800D02*
X87694100Y-111525800D01*
X93685600Y-85715800D02*
X92128200Y-87273200D01*
X95322800Y-85100200D02*
X94611800Y-84389200D01*
X93685600Y-84769961D02*
X93685600Y-85715800D01*
X94066361Y-84389200D02*
X93685600Y-84769961D01*
X91135200Y-111201200D02*
X88709300Y-113627100D01*
X88709300Y-113627100D02*
X87945000Y-113627100D01*
X91174900Y-111240900D02*
X91135200Y-111201200D01*
X93048700Y-111310000D02*
X92979700Y-111241000D01*
X92979700Y-111241000D02*
X93048700Y-111310000D01*
X92979700Y-111241000D02*
X92979700Y-111240900D01*
X94611800Y-84389200D02*
X94066361Y-84389200D01*
X93048700Y-111310000D02*
X92979700Y-111241000D01*
X92979700Y-111240900D02*
X91174900Y-111240900D01*
X96628200Y-113125000D02*
X95565000Y-113125000D01*
X95039900Y-86302300D02*
X93456300Y-87885900D01*
X93456300Y-87885900D02*
X91050233Y-87885900D01*
X98602800Y-111150400D02*
X96628200Y-113125000D01*
X95565000Y-113125000D02*
X95565000Y-113627100D01*
X94420800Y-113125000D02*
X95565000Y-113125000D01*
X91050233Y-87885900D02*
X90831533Y-87667200D01*
X86879400Y-88301800D02*
X85293200Y-86715600D01*
X94888800Y-87019200D02*
X94847064Y-87019200D01*
X71891906Y-88975600D02*
X71627400Y-88711094D01*
X79196600Y-88089132D02*
X77823068Y-86715600D01*
X76708600Y-87704600D02*
X76708600Y-88711094D01*
X75386600Y-88711094D02*
X75386600Y-88163800D01*
X82982200Y-88711094D02*
X82982200Y-88190200D01*
X80518600Y-88711094D02*
X80254094Y-88975600D01*
X77697600Y-86715600D02*
X76708600Y-87704600D01*
X76708600Y-88711094D02*
X76444094Y-88975600D01*
X80518600Y-87704600D02*
X80518600Y-88711094D01*
X73938400Y-86715600D02*
X72949400Y-87704600D01*
X84039694Y-88975600D02*
X83246706Y-88975600D01*
X71627400Y-88188200D02*
X70154800Y-86715600D01*
X84304200Y-87704600D02*
X84304200Y-88711094D01*
X79196600Y-88711094D02*
X79196600Y-88089132D01*
X82982200Y-88190200D02*
X81507600Y-86715600D01*
X72949400Y-87704600D02*
X72949400Y-88711094D01*
X93564464Y-88301800D02*
X86879400Y-88301800D01*
X94847064Y-87019200D02*
X93564464Y-88301800D01*
X72949400Y-88711094D02*
X72684894Y-88975600D01*
X71627400Y-88711094D02*
X71627400Y-88188200D01*
X72684894Y-88975600D02*
X71891906Y-88975600D01*
X75386600Y-88163800D02*
X73938400Y-86715600D01*
X77823068Y-86715600D02*
X77697600Y-86715600D01*
X95322800Y-86585200D02*
X94888800Y-87019200D01*
X81507600Y-86715600D02*
X80518600Y-87704600D01*
X80254094Y-88975600D02*
X79461106Y-88975600D01*
X75651106Y-88975600D02*
X75386600Y-88711094D01*
X84304200Y-88711094D02*
X84039694Y-88975600D01*
X79461106Y-88975600D02*
X79196600Y-88711094D01*
X83246706Y-88975600D02*
X82982200Y-88711094D01*
X85293200Y-86715600D02*
X84304200Y-87704600D01*
X76444094Y-88975600D02*
X75651106Y-88975600D01*
X70643961Y-88239600D02*
X71741961Y-89337600D01*
X95605600Y-86868000D02*
X95094400Y-87379200D01*
X95094400Y-87379200D02*
X94996180Y-87379200D01*
X84197200Y-89335600D02*
X85293200Y-88239600D01*
X94996180Y-87379200D02*
X93698180Y-88677200D01*
X78793600Y-89335600D02*
X80411600Y-89335600D01*
X93698180Y-88677200D02*
X85730800Y-88677200D01*
X72834840Y-89337600D02*
X73932840Y-88239600D01*
X81507600Y-88239600D02*
X82603600Y-89335600D01*
X82603600Y-89335600D02*
X84197200Y-89335600D01*
X73932840Y-88239600D02*
X73938400Y-88239600D01*
X73938400Y-88239600D02*
X75036400Y-89337600D01*
X75036400Y-89337600D02*
X76599600Y-89337600D01*
X71741961Y-89337600D02*
X72834840Y-89337600D01*
X85730800Y-88677200D02*
X85293200Y-88239600D01*
X80411600Y-89335600D02*
X81507600Y-88239600D01*
X70154800Y-88239600D02*
X70643961Y-88239600D01*
X76599600Y-89337600D02*
X77697600Y-88239600D01*
X77697600Y-88239600D02*
X78793600Y-89335600D01*
X68504800Y-86715600D02*
X68504800Y-85139500D01*
X68504800Y-85139500D02*
X68353700Y-84988400D01*
X72288400Y-85136200D02*
X72140600Y-84988400D01*
X72288400Y-86715600D02*
X72288400Y-85136200D01*
X76047600Y-86715600D02*
X76047600Y-85062300D01*
X76047600Y-85062300D02*
X75973700Y-84988400D01*
X79857600Y-86715600D02*
X79857600Y-85085400D01*
X79857600Y-85085400D02*
X79760600Y-84988400D01*
X83643200Y-85061000D02*
X83570600Y-84988400D01*
X83643200Y-86715600D02*
X83643200Y-85061000D01*
X67605200Y-84316322D02*
X67894122Y-84027400D01*
X69165800Y-87578600D02*
X69165800Y-87368211D01*
X67894122Y-85949400D02*
X67605200Y-85660478D01*
X69102200Y-85660478D02*
X68865800Y-85896878D01*
X68813278Y-84027400D02*
X69102200Y-84316322D01*
X68143800Y-85949400D02*
X67894122Y-85949400D01*
X67843800Y-86244106D02*
X68108306Y-85979600D01*
X69165800Y-86062989D02*
X69165800Y-83768500D01*
X69165800Y-87368211D02*
X69133800Y-87336210D01*
X68108306Y-87451600D02*
X67843800Y-87187094D01*
X68108306Y-85979600D02*
X68143800Y-85979600D01*
X68143800Y-85979600D02*
X68143800Y-85949400D01*
X68901294Y-87451600D02*
X68108306Y-87451600D01*
X67894122Y-84027400D02*
X68813278Y-84027400D01*
X69133800Y-87336210D02*
X69133800Y-87219094D01*
X67843800Y-87187094D02*
X67843800Y-86244106D01*
X67605200Y-85660478D02*
X67605200Y-84316322D01*
X69165800Y-83768500D02*
X68353700Y-82956400D01*
X69133800Y-87219094D02*
X68901294Y-87451600D01*
X69102200Y-84316322D02*
X69102200Y-85660478D01*
X69133800Y-86094990D02*
X69165800Y-86062989D01*
X68901294Y-85979600D02*
X69133800Y-86212106D01*
X68504800Y-88239600D02*
X69165800Y-87578600D01*
X68865800Y-85896878D02*
X68865800Y-85979600D01*
X68865800Y-85979600D02*
X68901294Y-85979600D01*
X69133800Y-86212106D02*
X69133800Y-86094990D01*
X71392100Y-83704900D02*
X72140600Y-82956400D01*
X72288400Y-88239600D02*
X71392100Y-87343300D01*
X71392100Y-87343300D02*
X71392100Y-83704900D01*
X75225200Y-83704900D02*
X75973700Y-82956400D01*
X76047600Y-88239600D02*
X75225200Y-87417200D01*
X75225200Y-87417200D02*
X75225200Y-83704900D01*
X79012100Y-83704900D02*
X79760600Y-82956400D01*
X79857600Y-88239600D02*
X79012100Y-87394100D01*
X79012100Y-87394100D02*
X79012100Y-83704900D01*
X82822100Y-83704900D02*
X83570600Y-82956400D01*
X82822100Y-87418500D02*
X82822100Y-83704900D01*
X83643200Y-88239600D02*
X82822100Y-87418500D01*
G04 #@! TA.AperFunction,Conductor*
G36*
X96647874Y-85158239D02*
G01*
X96674234Y-85160125D01*
X96683287Y-85165943D01*
X96690327Y-85167475D01*
X96718581Y-85188626D01*
X96784758Y-85254803D01*
X96784778Y-85254821D01*
X96857721Y-85312124D01*
X96878628Y-85333030D01*
X96935941Y-85405985D01*
X96935953Y-85405998D01*
X97067601Y-85537646D01*
X97067621Y-85537664D01*
X97140564Y-85594967D01*
X97156702Y-85610164D01*
X97163179Y-85617461D01*
X97163747Y-85618769D01*
X97218788Y-85688832D01*
X97287578Y-85757622D01*
X97290033Y-85760388D01*
X97303414Y-85788789D01*
X97318459Y-85816342D01*
X97318187Y-85820144D01*
X97319812Y-85823594D01*
X97315714Y-85854714D01*
X97313475Y-85886034D01*
X97311106Y-85889719D01*
X97310692Y-85892866D01*
X97303999Y-85900778D01*
X97284974Y-85930381D01*
X97218796Y-85996558D01*
X97218784Y-85996571D01*
X97161473Y-86069524D01*
X97140567Y-86090430D01*
X97067614Y-86147741D01*
X97067601Y-86147753D01*
X96935953Y-86279401D01*
X96935941Y-86279414D01*
X96878630Y-86352367D01*
X96863446Y-86368492D01*
X96856139Y-86374978D01*
X96854831Y-86375547D01*
X96784768Y-86430588D01*
X96715643Y-86499712D01*
X96712871Y-86502174D01*
X96684468Y-86515560D01*
X96656903Y-86530612D01*
X96653109Y-86530340D01*
X96649670Y-86531962D01*
X96618534Y-86527867D01*
X96587212Y-86525627D01*
X96583536Y-86523265D01*
X96580396Y-86522852D01*
X96572486Y-86516163D01*
X96542865Y-86497127D01*
X96476717Y-86430979D01*
X96476697Y-86430961D01*
X96405382Y-86374937D01*
X96384474Y-86354030D01*
X96380897Y-86349477D01*
X96380896Y-86349474D01*
X96325855Y-86279411D01*
X96325846Y-86279401D01*
X96194198Y-86147753D01*
X96194185Y-86147741D01*
X96121230Y-86090428D01*
X96105092Y-86075230D01*
X96098621Y-86067939D01*
X96098053Y-86066631D01*
X96043012Y-85996568D01*
X95974220Y-85927776D01*
X95971766Y-85925011D01*
X95958385Y-85896609D01*
X95943341Y-85869058D01*
X95943613Y-85865254D01*
X95941988Y-85861805D01*
X95946085Y-85830683D01*
X95948325Y-85799366D01*
X95950693Y-85795680D01*
X95951108Y-85792534D01*
X95957800Y-85784621D01*
X95976826Y-85755019D01*
X96043003Y-85688841D01*
X96043012Y-85688832D01*
X96098053Y-85618769D01*
X96098053Y-85618766D01*
X96100325Y-85615876D01*
X96121233Y-85594968D01*
X96124123Y-85592696D01*
X96124126Y-85592696D01*
X96194189Y-85537655D01*
X96325855Y-85405989D01*
X96380896Y-85335926D01*
X96380896Y-85335923D01*
X96383168Y-85333033D01*
X96404076Y-85312125D01*
X96406966Y-85309853D01*
X96406969Y-85309853D01*
X96477032Y-85254812D01*
X96491845Y-85239999D01*
X96543219Y-85188626D01*
X96551164Y-85184287D01*
X96556590Y-85177040D01*
X96581349Y-85167805D01*
X96604542Y-85155141D01*
X96613571Y-85155786D01*
X96622054Y-85152623D01*
X96647874Y-85158239D01*
G37*
G04 #@! TD.AperFunction*
G04 #@! TA.AperFunction,Conductor*
G36*
X132082702Y-66540618D02*
G01*
X132095819Y-66541190D01*
X132473742Y-66557690D01*
X132484477Y-66558630D01*
X132869859Y-66609366D01*
X132880493Y-66611241D01*
X133259990Y-66695374D01*
X133270416Y-66698168D01*
X133641135Y-66815055D01*
X133651270Y-66818744D01*
X134010387Y-66967495D01*
X134020178Y-66972061D01*
X134364942Y-67151534D01*
X134374309Y-67156941D01*
X134644434Y-67329030D01*
X134702130Y-67365786D01*
X134710991Y-67371991D01*
X135019353Y-67608605D01*
X135027640Y-67615559D01*
X135314204Y-67878146D01*
X135321853Y-67885795D01*
X135584440Y-68172359D01*
X135591394Y-68180646D01*
X135828008Y-68489008D01*
X135834213Y-68497869D01*
X136043057Y-68825689D01*
X136048465Y-68835057D01*
X136227935Y-69179814D01*
X136232507Y-69189618D01*
X136381249Y-69548714D01*
X136384949Y-69558879D01*
X136501828Y-69929572D01*
X136504628Y-69940021D01*
X136588756Y-70319498D01*
X136590634Y-70330151D01*
X136641367Y-70715499D01*
X136642310Y-70726276D01*
X136657645Y-71077524D01*
X136659382Y-71117297D01*
X136659500Y-71122706D01*
X136659500Y-114297293D01*
X136659382Y-114302702D01*
X136642310Y-114693723D01*
X136641367Y-114704500D01*
X136590634Y-115089848D01*
X136588756Y-115100501D01*
X136504628Y-115479978D01*
X136501828Y-115490427D01*
X136384949Y-115861120D01*
X136381249Y-115871285D01*
X136232507Y-116230381D01*
X136227935Y-116240185D01*
X136048465Y-116584942D01*
X136043057Y-116594310D01*
X135834213Y-116922130D01*
X135828008Y-116930991D01*
X135591394Y-117239353D01*
X135584440Y-117247640D01*
X135321853Y-117534204D01*
X135314204Y-117541853D01*
X135027640Y-117804440D01*
X135019353Y-117811394D01*
X134710991Y-118048008D01*
X134702130Y-118054213D01*
X134374310Y-118263057D01*
X134364942Y-118268465D01*
X134020185Y-118447935D01*
X134010381Y-118452507D01*
X133651285Y-118601249D01*
X133641120Y-118604949D01*
X133270427Y-118721828D01*
X133259978Y-118724628D01*
X132880501Y-118808756D01*
X132869848Y-118810634D01*
X132484500Y-118861367D01*
X132473723Y-118862310D01*
X132082703Y-118879382D01*
X132077294Y-118879500D01*
X58422706Y-118879500D01*
X58417297Y-118879382D01*
X58026276Y-118862310D01*
X58015501Y-118861367D01*
X57926792Y-118849688D01*
X57630151Y-118810634D01*
X57619498Y-118808756D01*
X57240021Y-118724628D01*
X57229572Y-118721828D01*
X56858879Y-118604949D01*
X56848714Y-118601249D01*
X56489618Y-118452507D01*
X56479814Y-118447935D01*
X56135057Y-118268465D01*
X56125689Y-118263057D01*
X55797869Y-118054213D01*
X55789008Y-118048008D01*
X55480646Y-117811394D01*
X55472359Y-117804440D01*
X55185795Y-117541853D01*
X55178146Y-117534204D01*
X54915559Y-117247640D01*
X54908605Y-117239353D01*
X54671991Y-116930991D01*
X54665786Y-116922130D01*
X54456942Y-116594310D01*
X54451534Y-116584942D01*
X54272064Y-116240185D01*
X54267492Y-116230381D01*
X54118744Y-115871270D01*
X54115055Y-115861135D01*
X53998168Y-115490416D01*
X53995374Y-115479990D01*
X53911241Y-115100493D01*
X53909365Y-115089848D01*
X53907843Y-115078284D01*
X53858630Y-114704477D01*
X53857690Y-114693742D01*
X53840618Y-114302701D01*
X53840500Y-114297293D01*
X53840500Y-77257748D01*
X55977098Y-77257748D01*
X56018023Y-77410479D01*
X56046958Y-77460594D01*
X56046959Y-77460598D01*
X56046960Y-77460598D01*
X56097079Y-77547408D01*
X56097081Y-77547411D01*
X56215949Y-77666279D01*
X56215955Y-77666284D01*
X56824745Y-78275074D01*
X56824755Y-78275085D01*
X56829085Y-78279415D01*
X56829086Y-78279416D01*
X56940890Y-78391220D01*
X57024313Y-78439383D01*
X57027701Y-78441339D01*
X57027703Y-78441341D01*
X57065757Y-78463311D01*
X57077821Y-78470277D01*
X57230549Y-78511201D01*
X57230552Y-78511201D01*
X57396259Y-78511201D01*
X57396275Y-78511200D01*
X59710843Y-78511200D01*
X97362412Y-78511200D01*
X97429451Y-78530885D01*
X97475206Y-78583689D01*
X97485150Y-78652847D01*
X97465513Y-78704093D01*
X97456007Y-78718318D01*
X97456002Y-78718327D01*
X97395664Y-78863998D01*
X97395661Y-78864008D01*
X97364761Y-79019350D01*
X97332376Y-79081261D01*
X97330825Y-79082839D01*
X96291981Y-80121682D01*
X96291979Y-80121685D01*
X96241861Y-80208494D01*
X96241859Y-80208496D01*
X96212925Y-80258609D01*
X96212924Y-80258610D01*
X96212923Y-80258615D01*
X96171999Y-80411343D01*
X96171999Y-80411345D01*
X96171999Y-80579446D01*
X96172000Y-80579459D01*
X96172000Y-80789096D01*
X96152315Y-80856135D01*
X96099511Y-80901890D01*
X96035399Y-80912454D01*
X95969290Y-80905700D01*
X95919300Y-80905700D01*
X95919300Y-82006700D01*
X95899615Y-82073739D01*
X95846811Y-82119494D01*
X95795300Y-82130700D01*
X95669300Y-82130700D01*
X95669300Y-82256700D01*
X95649615Y-82323739D01*
X95596811Y-82369494D01*
X95545300Y-82380700D01*
X94669301Y-82380700D01*
X94669301Y-82435100D01*
X94649616Y-82502139D01*
X94596812Y-82547894D01*
X94545301Y-82559100D01*
X91991397Y-82559100D01*
X91924358Y-82539415D01*
X91903716Y-82522781D01*
X90986648Y-81605713D01*
X94669300Y-81605713D01*
X94669300Y-81880700D01*
X95419300Y-81880700D01*
X95419300Y-80905700D01*
X95419299Y-80905699D01*
X95369329Y-80905700D01*
X95369311Y-80905701D01*
X95266602Y-80916194D01*
X95100180Y-80971341D01*
X95100175Y-80971343D01*
X94950954Y-81063384D01*
X94826984Y-81187354D01*
X94734943Y-81336575D01*
X94734941Y-81336580D01*
X94679794Y-81503002D01*
X94679793Y-81503009D01*
X94669300Y-81605713D01*
X90986648Y-81605713D01*
X89212690Y-79831755D01*
X89212688Y-79831752D01*
X89093817Y-79712881D01*
X89093816Y-79712880D01*
X89005269Y-79661758D01*
X89005268Y-79661757D01*
X88956883Y-79633822D01*
X88900981Y-79618843D01*
X88804157Y-79592899D01*
X88646043Y-79592899D01*
X88638447Y-79592899D01*
X88638431Y-79592900D01*
X67577764Y-79592900D01*
X67425036Y-79633823D01*
X67376653Y-79661758D01*
X67376652Y-79661758D01*
X67288109Y-79712877D01*
X67288104Y-79712881D01*
X67176300Y-79824686D01*
X64706086Y-82294901D01*
X64594281Y-82406705D01*
X64594277Y-82406710D01*
X64554343Y-82475880D01*
X64554343Y-82475881D01*
X64515223Y-82543637D01*
X64511080Y-82559099D01*
X64474299Y-82696366D01*
X64474299Y-82696368D01*
X64474299Y-82864469D01*
X64474300Y-82864482D01*
X64474300Y-112087210D01*
X64454615Y-112154249D01*
X64413421Y-112193942D01*
X64300805Y-112260542D01*
X64300796Y-112260549D01*
X64183249Y-112378096D01*
X64183240Y-112378108D01*
X64098619Y-112521197D01*
X64098615Y-112521204D01*
X64052235Y-112680843D01*
X64052234Y-112680849D01*
X64049300Y-112718135D01*
X64049300Y-114536044D01*
X64049301Y-114536069D01*
X64052235Y-114573352D01*
X64098615Y-114732995D01*
X64098619Y-114733002D01*
X64183240Y-114876091D01*
X64183249Y-114876103D01*
X64300796Y-114993650D01*
X64300800Y-114993653D01*
X64300802Y-114993655D01*
X64300805Y-114993656D01*
X64300808Y-114993659D01*
X64396200Y-115050073D01*
X64443120Y-115077821D01*
X64443897Y-115078280D01*
X64443904Y-115078284D01*
X64603543Y-115124664D01*
X64603546Y-115124664D01*
X64603548Y-115124665D01*
X64640843Y-115127600D01*
X65508756Y-115127599D01*
X65546052Y-115124665D01*
X65649224Y-115094689D01*
X65705695Y-115078284D01*
X65705696Y-115078282D01*
X65705700Y-115078282D01*
X65848798Y-114993655D01*
X65966355Y-114876098D01*
X65968018Y-114873286D01*
X68632163Y-114873286D01*
X68633645Y-114875791D01*
X68751105Y-114993251D01*
X68751114Y-114993258D01*
X68894101Y-115077820D01*
X68894104Y-115077821D01*
X69053622Y-115124166D01*
X69053628Y-115124167D01*
X69090894Y-115127099D01*
X69958693Y-115127099D01*
X69958715Y-115127098D01*
X69995974Y-115124166D01*
X70155495Y-115077821D01*
X70155498Y-115077820D01*
X70298485Y-114993258D01*
X70298490Y-114993254D01*
X70415958Y-114875785D01*
X70417434Y-114873288D01*
X70417434Y-114873286D01*
X69524800Y-113980652D01*
X68632163Y-114873286D01*
X65968018Y-114873286D01*
X66050982Y-114733000D01*
X66050983Y-114732995D01*
X66050984Y-114732995D01*
X66097364Y-114573356D01*
X66097365Y-114573350D01*
X66100299Y-114536064D01*
X66100300Y-114536057D01*
X66100300Y-114298547D01*
X68499800Y-114298547D01*
X69171248Y-113627100D01*
X69171248Y-113627099D01*
X69878352Y-113627099D01*
X69878352Y-113627100D01*
X70549798Y-114298547D01*
X70549799Y-114298546D01*
X70549799Y-112955652D01*
X70549798Y-112955651D01*
X69878352Y-113627099D01*
X69171248Y-113627099D01*
X68499800Y-112955651D01*
X68499800Y-114298547D01*
X66100300Y-114298547D01*
X66100299Y-113984095D01*
X66119983Y-113917057D01*
X66136613Y-113896420D01*
X67652123Y-112380912D01*
X68632163Y-112380912D01*
X69524800Y-113273548D01*
X69524801Y-113273548D01*
X70417434Y-112380913D01*
X70417435Y-112380912D01*
X70415956Y-112378412D01*
X70415955Y-112378411D01*
X70298490Y-112260945D01*
X70298485Y-112260941D01*
X70155498Y-112176379D01*
X70155495Y-112176378D01*
X69995977Y-112130033D01*
X69995971Y-112130032D01*
X69958705Y-112127100D01*
X69090906Y-112127100D01*
X69090884Y-112127101D01*
X69053625Y-112130033D01*
X68894104Y-112176378D01*
X68894101Y-112176379D01*
X68751114Y-112260941D01*
X68751105Y-112260948D01*
X68633645Y-112378408D01*
X68632163Y-112380912D01*
X67652123Y-112380912D01*
X68074016Y-111959019D01*
X68135339Y-111925534D01*
X68161697Y-111922700D01*
X68493213Y-111922700D01*
X68493216Y-111922700D01*
X68563796Y-111916286D01*
X68726206Y-111865678D01*
X68871785Y-111777672D01*
X68992072Y-111657385D01*
X69080078Y-111511806D01*
X69130686Y-111349396D01*
X69137100Y-111278816D01*
X69137100Y-110901478D01*
X69156785Y-110834439D01*
X69209589Y-110788684D01*
X69228999Y-110781705D01*
X69275384Y-110769277D01*
X69412316Y-110690220D01*
X69524120Y-110578416D01*
X69524121Y-110578413D01*
X69529546Y-110572989D01*
X69530256Y-110572177D01*
X69594218Y-110508217D01*
X69655542Y-110474733D01*
X69681898Y-110471900D01*
X72627503Y-110471900D01*
X72694542Y-110491585D01*
X72715184Y-110508219D01*
X73168181Y-110961216D01*
X73201666Y-111022539D01*
X73204500Y-111048897D01*
X73204500Y-111380413D01*
X73210913Y-111450992D01*
X73210913Y-111450994D01*
X73210914Y-111450996D01*
X73261522Y-111613406D01*
X73321873Y-111713239D01*
X73349530Y-111758988D01*
X73469811Y-111879269D01*
X73469813Y-111879270D01*
X73469815Y-111879272D01*
X73615394Y-111967278D01*
X73703101Y-111994608D01*
X73706029Y-111996558D01*
X73709544Y-111996810D01*
X73734896Y-112015789D01*
X73761247Y-112033343D01*
X73762657Y-112036571D01*
X73765477Y-112038682D01*
X73776541Y-112068346D01*
X73789222Y-112097368D01*
X73788663Y-112100846D01*
X73789894Y-112104146D01*
X73783163Y-112135085D01*
X73778141Y-112166353D01*
X73775570Y-112169991D01*
X73775042Y-112172419D01*
X73753891Y-112200673D01*
X73669090Y-112285474D01*
X73607767Y-112318959D01*
X73538075Y-112313975D01*
X73493728Y-112285474D01*
X73468803Y-112260549D01*
X73468791Y-112260540D01*
X73325702Y-112175919D01*
X73325695Y-112175915D01*
X73166056Y-112129535D01*
X73166050Y-112129534D01*
X73128757Y-112126600D01*
X72260855Y-112126600D01*
X72260830Y-112126601D01*
X72223547Y-112129535D01*
X72063904Y-112175915D01*
X72063897Y-112175919D01*
X71920808Y-112260540D01*
X71920796Y-112260549D01*
X71803249Y-112378096D01*
X71803240Y-112378108D01*
X71718619Y-112521197D01*
X71718615Y-112521204D01*
X71672235Y-112680843D01*
X71672234Y-112680849D01*
X71669300Y-112718135D01*
X71669300Y-114536044D01*
X71669301Y-114536069D01*
X71672235Y-114573352D01*
X71718615Y-114732995D01*
X71718619Y-114733002D01*
X71803240Y-114876091D01*
X71803249Y-114876103D01*
X71920796Y-114993650D01*
X71920800Y-114993653D01*
X71920802Y-114993655D01*
X71920805Y-114993656D01*
X71920808Y-114993659D01*
X72016200Y-115050073D01*
X72063120Y-115077821D01*
X72063897Y-115078280D01*
X72063904Y-115078284D01*
X72223543Y-115124664D01*
X72223546Y-115124664D01*
X72223548Y-115124665D01*
X72260843Y-115127600D01*
X73128756Y-115127599D01*
X73166052Y-115124665D01*
X73269224Y-115094689D01*
X73325695Y-115078284D01*
X73325696Y-115078282D01*
X73325700Y-115078282D01*
X73468798Y-114993655D01*
X73586355Y-114876098D01*
X73588018Y-114873286D01*
X76252163Y-114873286D01*
X76253645Y-114875791D01*
X76371105Y-114993251D01*
X76371114Y-114993258D01*
X76514101Y-115077820D01*
X76514104Y-115077821D01*
X76673622Y-115124166D01*
X76673628Y-115124167D01*
X76710894Y-115127099D01*
X77578693Y-115127099D01*
X77578715Y-115127098D01*
X77615974Y-115124166D01*
X77775495Y-115077821D01*
X77775498Y-115077820D01*
X77918485Y-114993258D01*
X77918490Y-114993254D01*
X78035958Y-114875785D01*
X78037434Y-114873288D01*
X78037434Y-114873286D01*
X77144800Y-113980652D01*
X76252163Y-114873286D01*
X73588018Y-114873286D01*
X73670982Y-114733000D01*
X73670983Y-114732995D01*
X73670984Y-114732995D01*
X73717364Y-114573356D01*
X73717365Y-114573350D01*
X73720299Y-114536064D01*
X73720300Y-114536057D01*
X73720300Y-114298547D01*
X76119800Y-114298547D01*
X76791248Y-113627100D01*
X76791248Y-113627099D01*
X77498352Y-113627099D01*
X77498352Y-113627100D01*
X78169798Y-114298547D01*
X78169799Y-114298546D01*
X78169799Y-112955652D01*
X78169798Y-112955651D01*
X77498352Y-113627099D01*
X76791248Y-113627099D01*
X76119800Y-112955651D01*
X76119800Y-114298547D01*
X73720300Y-114298547D01*
X73720299Y-113984095D01*
X73739983Y-113917057D01*
X73756613Y-113896420D01*
X75272123Y-112380912D01*
X76252163Y-112380912D01*
X77144800Y-113273548D01*
X77144801Y-113273548D01*
X78037434Y-112380913D01*
X78037435Y-112380912D01*
X78035956Y-112378412D01*
X78035955Y-112378411D01*
X77918490Y-112260945D01*
X77918485Y-112260941D01*
X77775498Y-112176379D01*
X77775495Y-112176378D01*
X77615977Y-112130033D01*
X77615971Y-112130032D01*
X77578705Y-112127100D01*
X76710906Y-112127100D01*
X76710884Y-112127101D01*
X76673625Y-112130033D01*
X76514104Y-112176378D01*
X76514101Y-112176379D01*
X76371114Y-112260941D01*
X76371105Y-112260948D01*
X76253645Y-112378408D01*
X76252163Y-112380912D01*
X75272123Y-112380912D01*
X75592416Y-112060619D01*
X75653739Y-112027134D01*
X75680097Y-112024300D01*
X76011613Y-112024300D01*
X76011616Y-112024300D01*
X76082196Y-112017886D01*
X76244606Y-111967278D01*
X76390185Y-111879272D01*
X76510472Y-111758985D01*
X76540598Y-111709149D01*
X76592126Y-111661962D01*
X76646715Y-111649300D01*
X79824931Y-111649300D01*
X79824947Y-111649301D01*
X79832543Y-111649301D01*
X79990654Y-111649301D01*
X79990657Y-111649301D01*
X80143385Y-111608377D01*
X80210001Y-111569916D01*
X80280316Y-111529320D01*
X80392120Y-111417516D01*
X80392120Y-111417514D01*
X80402324Y-111407311D01*
X80402330Y-111407304D01*
X80460242Y-111349392D01*
X80510062Y-111299572D01*
X80571384Y-111266088D01*
X80573551Y-111265637D01*
X80574240Y-111265500D01*
X80574242Y-111265500D01*
X80728897Y-111234737D01*
X80754647Y-111224070D01*
X80824114Y-111216601D01*
X80886594Y-111247874D01*
X80922248Y-111307962D01*
X80926100Y-111338631D01*
X80926100Y-111431213D01*
X80932513Y-111501792D01*
X80932513Y-111501794D01*
X80932514Y-111501796D01*
X80948344Y-111552596D01*
X80983122Y-111664206D01*
X81071130Y-111809788D01*
X81191411Y-111930069D01*
X81191413Y-111930070D01*
X81191415Y-111930072D01*
X81336994Y-112018078D01*
X81499404Y-112068686D01*
X81569984Y-112075100D01*
X81778703Y-112075100D01*
X81845742Y-112094785D01*
X81891497Y-112147589D01*
X81901441Y-112216747D01*
X81872416Y-112280303D01*
X81866384Y-112286781D01*
X81516005Y-112637158D01*
X81454682Y-112670643D01*
X81384990Y-112665659D01*
X81329057Y-112623787D01*
X81309249Y-112584076D01*
X81290982Y-112521200D01*
X81235902Y-112428063D01*
X81206359Y-112378108D01*
X81206350Y-112378096D01*
X81088803Y-112260549D01*
X81088791Y-112260540D01*
X80945702Y-112175919D01*
X80945695Y-112175915D01*
X80786056Y-112129535D01*
X80786050Y-112129534D01*
X80748757Y-112126600D01*
X79880855Y-112126600D01*
X79880830Y-112126601D01*
X79843547Y-112129535D01*
X79683904Y-112175915D01*
X79683897Y-112175919D01*
X79540808Y-112260540D01*
X79540796Y-112260549D01*
X79423249Y-112378096D01*
X79423240Y-112378108D01*
X79338619Y-112521197D01*
X79338615Y-112521204D01*
X79292235Y-112680843D01*
X79292234Y-112680849D01*
X79289300Y-112718135D01*
X79289300Y-114536044D01*
X79289301Y-114536069D01*
X79292235Y-114573352D01*
X79338615Y-114732995D01*
X79338619Y-114733002D01*
X79423240Y-114876091D01*
X79423249Y-114876103D01*
X79540796Y-114993650D01*
X79540800Y-114993653D01*
X79540802Y-114993655D01*
X79540805Y-114993656D01*
X79540808Y-114993659D01*
X79636200Y-115050073D01*
X79683120Y-115077821D01*
X79683897Y-115078280D01*
X79683904Y-115078284D01*
X79843543Y-115124664D01*
X79843546Y-115124664D01*
X79843548Y-115124665D01*
X79880843Y-115127600D01*
X80748756Y-115127599D01*
X80786052Y-115124665D01*
X80889224Y-115094689D01*
X80945695Y-115078284D01*
X80945696Y-115078282D01*
X80945700Y-115078282D01*
X81088798Y-114993655D01*
X81206355Y-114876098D01*
X81208018Y-114873286D01*
X83872163Y-114873286D01*
X83873645Y-114875791D01*
X83991105Y-114993251D01*
X83991114Y-114993258D01*
X84134101Y-115077820D01*
X84134104Y-115077821D01*
X84293622Y-115124166D01*
X84293628Y-115124167D01*
X84330894Y-115127099D01*
X85198693Y-115127099D01*
X85198715Y-115127098D01*
X85235974Y-115124166D01*
X85395495Y-115077821D01*
X85395498Y-115077820D01*
X85538485Y-114993258D01*
X85538490Y-114993254D01*
X85655958Y-114875785D01*
X85657434Y-114873288D01*
X85657434Y-114873286D01*
X84764800Y-113980652D01*
X83872163Y-114873286D01*
X81208018Y-114873286D01*
X81290982Y-114733000D01*
X81290983Y-114732995D01*
X81290984Y-114732995D01*
X81337364Y-114573356D01*
X81337365Y-114573350D01*
X81340299Y-114536064D01*
X81340300Y-114536057D01*
X81340300Y-114351362D01*
X81355808Y-114298547D01*
X83739800Y-114298547D01*
X84411248Y-113627100D01*
X84411248Y-113627099D01*
X85118352Y-113627099D01*
X85118352Y-113627100D01*
X85789798Y-114298547D01*
X85789799Y-114298546D01*
X85789799Y-112955652D01*
X85789798Y-112955651D01*
X85118352Y-113627099D01*
X84411248Y-113627099D01*
X83739800Y-112955651D01*
X83739800Y-114298547D01*
X81355808Y-114298547D01*
X81359985Y-114284323D01*
X81412789Y-114238568D01*
X81448112Y-114228423D01*
X81454354Y-114227601D01*
X81454357Y-114227601D01*
X81607085Y-114186677D01*
X81657204Y-114157739D01*
X81744016Y-114107620D01*
X81855820Y-113995816D01*
X81855820Y-113995814D01*
X81866028Y-113985607D01*
X81866029Y-113985604D01*
X83689016Y-112162619D01*
X83715943Y-112147915D01*
X83741762Y-112131323D01*
X83747962Y-112130431D01*
X83750339Y-112129134D01*
X83776697Y-112126300D01*
X83826392Y-112126300D01*
X83893431Y-112145985D01*
X83939186Y-112198789D01*
X83949130Y-112267947D01*
X83920105Y-112331503D01*
X83914073Y-112337981D01*
X83873645Y-112378408D01*
X83872163Y-112380912D01*
X84764800Y-113273548D01*
X84764801Y-113273548D01*
X85657434Y-112380913D01*
X85657435Y-112380912D01*
X85655956Y-112378412D01*
X85655952Y-112378407D01*
X85615526Y-112337981D01*
X85582041Y-112276658D01*
X85587025Y-112206966D01*
X85628897Y-112151033D01*
X85694361Y-112126616D01*
X85703207Y-112126300D01*
X86995684Y-112126300D01*
X87062723Y-112145985D01*
X87108478Y-112198789D01*
X87118422Y-112267947D01*
X87089397Y-112331503D01*
X87083365Y-112337981D01*
X87043249Y-112378096D01*
X87043240Y-112378108D01*
X86958619Y-112521197D01*
X86958615Y-112521204D01*
X86912235Y-112680843D01*
X86912234Y-112680849D01*
X86909300Y-112718135D01*
X86909300Y-114536044D01*
X86909301Y-114536069D01*
X86912235Y-114573352D01*
X86958615Y-114732995D01*
X86958619Y-114733002D01*
X87043240Y-114876091D01*
X87043249Y-114876103D01*
X87160796Y-114993650D01*
X87160800Y-114993653D01*
X87160802Y-114993655D01*
X87160805Y-114993656D01*
X87160808Y-114993659D01*
X87256200Y-115050073D01*
X87303120Y-115077821D01*
X87303897Y-115078280D01*
X87303904Y-115078284D01*
X87463543Y-115124664D01*
X87463546Y-115124664D01*
X87463548Y-115124665D01*
X87500843Y-115127600D01*
X88368756Y-115127599D01*
X88406052Y-115124665D01*
X88509224Y-115094689D01*
X88565695Y-115078284D01*
X88565696Y-115078282D01*
X88565700Y-115078282D01*
X88708798Y-114993655D01*
X88826355Y-114876098D01*
X88828018Y-114873286D01*
X91492163Y-114873286D01*
X91493645Y-114875791D01*
X91611105Y-114993251D01*
X91611114Y-114993258D01*
X91754101Y-115077820D01*
X91754104Y-115077821D01*
X91913622Y-115124166D01*
X91913628Y-115124167D01*
X91950894Y-115127099D01*
X92818693Y-115127099D01*
X92818715Y-115127098D01*
X92855974Y-115124166D01*
X93015495Y-115077821D01*
X93015498Y-115077820D01*
X93158485Y-114993258D01*
X93158490Y-114993254D01*
X93275958Y-114875785D01*
X93277434Y-114873288D01*
X93277434Y-114873286D01*
X92384800Y-113980652D01*
X91492163Y-114873286D01*
X88828018Y-114873286D01*
X88910982Y-114733000D01*
X88910983Y-114732995D01*
X88910984Y-114732995D01*
X88957364Y-114573356D01*
X88957365Y-114573350D01*
X88960299Y-114536064D01*
X88960300Y-114536057D01*
X88960299Y-114298547D01*
X91359800Y-114298547D01*
X92031248Y-113627100D01*
X92031248Y-113627099D01*
X91359800Y-112955651D01*
X91359800Y-114298547D01*
X88960299Y-114298547D01*
X88960299Y-114247172D01*
X88979983Y-114180134D01*
X89022298Y-114139787D01*
X89078016Y-114107620D01*
X89189820Y-113995816D01*
X89189820Y-113995814D01*
X89200028Y-113985607D01*
X89200029Y-113985604D01*
X90972617Y-112213019D01*
X91033940Y-112179534D01*
X91060298Y-112176700D01*
X91394626Y-112176700D01*
X91394626Y-112177501D01*
X91459288Y-112193322D01*
X91507404Y-112243983D01*
X91520493Y-112312616D01*
X91497114Y-112371409D01*
X91497613Y-112371704D01*
X91495735Y-112374875D01*
X91495052Y-112376596D01*
X91493644Y-112378410D01*
X91492163Y-112380912D01*
X92384800Y-113273548D01*
X92384801Y-113273548D01*
X93277434Y-112380913D01*
X93277435Y-112380912D01*
X93275956Y-112378412D01*
X93275955Y-112378411D01*
X93191910Y-112294365D01*
X93158426Y-112233041D01*
X93163410Y-112163350D01*
X93205282Y-112107416D01*
X93255400Y-112085067D01*
X93282197Y-112079737D01*
X93427879Y-112019394D01*
X93558989Y-111931789D01*
X93670489Y-111820289D01*
X93758094Y-111689179D01*
X93765897Y-111670342D01*
X93814668Y-111552596D01*
X93818437Y-111543497D01*
X93849200Y-111388842D01*
X93849200Y-111231158D01*
X93849200Y-111231155D01*
X93839679Y-111183292D01*
X93845906Y-111113700D01*
X93888769Y-111058523D01*
X93954658Y-111035278D01*
X93961296Y-111035100D01*
X95928300Y-111035100D01*
X95995339Y-111054785D01*
X96041094Y-111107589D01*
X96052300Y-111159100D01*
X96052300Y-111482013D01*
X96058713Y-111552592D01*
X96058713Y-111552594D01*
X96058714Y-111552596D01*
X96109322Y-111715006D01*
X96172967Y-111820288D01*
X96197330Y-111860588D01*
X96305053Y-111968311D01*
X96338538Y-112029634D01*
X96333554Y-112099326D01*
X96291682Y-112155259D01*
X96226218Y-112179676D01*
X96182777Y-112175068D01*
X96026056Y-112129535D01*
X96026050Y-112129534D01*
X95988757Y-112126600D01*
X95120855Y-112126600D01*
X95120830Y-112126601D01*
X95083547Y-112129535D01*
X94923904Y-112175915D01*
X94923897Y-112175919D01*
X94780810Y-112260539D01*
X94780801Y-112260545D01*
X94727675Y-112313671D01*
X94666351Y-112347155D01*
X94615804Y-112347605D01*
X94499646Y-112324500D01*
X94499642Y-112324500D01*
X94341958Y-112324500D01*
X94341955Y-112324500D01*
X94187310Y-112355261D01*
X94187298Y-112355264D01*
X94041627Y-112415602D01*
X94041614Y-112415609D01*
X93910511Y-112503210D01*
X93910507Y-112503213D01*
X93799013Y-112614707D01*
X93799010Y-112614711D01*
X93711409Y-112745814D01*
X93711402Y-112745827D01*
X93651064Y-112891498D01*
X93651059Y-112891515D01*
X93650383Y-112894915D01*
X93649538Y-112896529D01*
X93649294Y-112897335D01*
X93649141Y-112897288D01*
X93617993Y-112956824D01*
X93557275Y-112991393D01*
X93487505Y-112987647D01*
X93481315Y-112985275D01*
X93409798Y-112955651D01*
X92738352Y-113627099D01*
X92738352Y-113627100D01*
X93409798Y-114298547D01*
X93409799Y-114298546D01*
X93409799Y-113399095D01*
X93429484Y-113332056D01*
X93482288Y-113286301D01*
X93551446Y-113276357D01*
X93615002Y-113305382D01*
X93646433Y-113353822D01*
X93648732Y-113352870D01*
X93711402Y-113504172D01*
X93711409Y-113504185D01*
X93799010Y-113635288D01*
X93799013Y-113635292D01*
X93910507Y-113746786D01*
X93910511Y-113746789D01*
X94041614Y-113834390D01*
X94041627Y-113834397D01*
X94187298Y-113894735D01*
X94187303Y-113894737D01*
X94312297Y-113919600D01*
X94341953Y-113925499D01*
X94341956Y-113925500D01*
X94405300Y-113925500D01*
X94472339Y-113945185D01*
X94518094Y-113997989D01*
X94529300Y-114049500D01*
X94529300Y-114536044D01*
X94529301Y-114536069D01*
X94532235Y-114573352D01*
X94578615Y-114732995D01*
X94578619Y-114733002D01*
X94663240Y-114876091D01*
X94663249Y-114876103D01*
X94780796Y-114993650D01*
X94780800Y-114993653D01*
X94780802Y-114993655D01*
X94780805Y-114993656D01*
X94780808Y-114993659D01*
X94876200Y-115050073D01*
X94923120Y-115077821D01*
X94923897Y-115078280D01*
X94923904Y-115078284D01*
X95083543Y-115124664D01*
X95083546Y-115124664D01*
X95083548Y-115124665D01*
X95120843Y-115127600D01*
X95988756Y-115127599D01*
X96026052Y-115124665D01*
X96129224Y-115094689D01*
X96185695Y-115078284D01*
X96185696Y-115078282D01*
X96185700Y-115078282D01*
X96328798Y-114993655D01*
X96446355Y-114876098D01*
X96448018Y-114873286D01*
X99112163Y-114873286D01*
X99113645Y-114875791D01*
X99231105Y-114993251D01*
X99231114Y-114993258D01*
X99374101Y-115077820D01*
X99374104Y-115077821D01*
X99533622Y-115124166D01*
X99533628Y-115124167D01*
X99570894Y-115127099D01*
X100438693Y-115127099D01*
X100438715Y-115127098D01*
X100475974Y-115124166D01*
X100635495Y-115077821D01*
X100635498Y-115077820D01*
X100778485Y-114993258D01*
X100778490Y-114993254D01*
X100895958Y-114875785D01*
X100897434Y-114873288D01*
X100897434Y-114873286D01*
X100004800Y-113980652D01*
X99112163Y-114873286D01*
X96448018Y-114873286D01*
X96530982Y-114733000D01*
X96530983Y-114732995D01*
X96530984Y-114732995D01*
X96577364Y-114573356D01*
X96577365Y-114573350D01*
X96580299Y-114536064D01*
X96580300Y-114536057D01*
X96580300Y-114298547D01*
X98979800Y-114298547D01*
X99651248Y-113627100D01*
X99651248Y-113627099D01*
X100358352Y-113627099D01*
X100358352Y-113627100D01*
X101029798Y-114298547D01*
X101029799Y-114298546D01*
X101029799Y-112955652D01*
X101029798Y-112955651D01*
X100358352Y-113627099D01*
X99651248Y-113627099D01*
X98979800Y-112955651D01*
X98979800Y-114298547D01*
X96580300Y-114298547D01*
X96580300Y-113849501D01*
X96599985Y-113782462D01*
X96652789Y-113736707D01*
X96699203Y-113726609D01*
X96699197Y-113726562D01*
X96699769Y-113726486D01*
X96704300Y-113725501D01*
X96707254Y-113725501D01*
X96707257Y-113725501D01*
X96859985Y-113684577D01*
X96910104Y-113655639D01*
X96996916Y-113605520D01*
X97108720Y-113493716D01*
X97108720Y-113493714D01*
X97118928Y-113483507D01*
X97118929Y-113483504D01*
X98221523Y-112380912D01*
X99112163Y-112380912D01*
X100004800Y-113273548D01*
X100004801Y-113273548D01*
X100897434Y-112380913D01*
X100897435Y-112380912D01*
X100895956Y-112378412D01*
X100895955Y-112378411D01*
X100778490Y-112260945D01*
X100778485Y-112260941D01*
X100635498Y-112176379D01*
X100635495Y-112176378D01*
X100475977Y-112130033D01*
X100475971Y-112130032D01*
X100438705Y-112127100D01*
X99570906Y-112127100D01*
X99570884Y-112127101D01*
X99533629Y-112130032D01*
X99386950Y-112172646D01*
X99207162Y-112284891D01*
X99113644Y-112378410D01*
X99112163Y-112380912D01*
X98221523Y-112380912D01*
X98440216Y-112162219D01*
X98501539Y-112128734D01*
X98527897Y-112125900D01*
X98859413Y-112125900D01*
X98859416Y-112125900D01*
X98929996Y-112119486D01*
X99092406Y-112068878D01*
X99237985Y-111980872D01*
X99358272Y-111860585D01*
X99446278Y-111715006D01*
X99496886Y-111552596D01*
X99503300Y-111482016D01*
X99503300Y-110818784D01*
X99496886Y-110748204D01*
X99446278Y-110585794D01*
X99358272Y-110440215D01*
X99358270Y-110440213D01*
X99358269Y-110440211D01*
X99237988Y-110319930D01*
X99225024Y-110312093D01*
X99092406Y-110231922D01*
X99004697Y-110204591D01*
X98946552Y-110165856D01*
X98918577Y-110101831D01*
X98929658Y-110032845D01*
X98953905Y-109998529D01*
X99148819Y-109803616D01*
X104175616Y-104776819D01*
X104236939Y-104743334D01*
X104263297Y-104740500D01*
X132064281Y-104740500D01*
X132131320Y-104760185D01*
X132174765Y-104808205D01*
X132194947Y-104847814D01*
X132194948Y-104847815D01*
X132319890Y-105019786D01*
X132470213Y-105170109D01*
X132642182Y-105295050D01*
X132650946Y-105299516D01*
X132701742Y-105347491D01*
X132718536Y-105415312D01*
X132695998Y-105481447D01*
X132650946Y-105520484D01*
X132642182Y-105524949D01*
X132470213Y-105649890D01*
X132319890Y-105800213D01*
X132194951Y-105972179D01*
X132098444Y-106161585D01*
X132032753Y-106363760D01*
X131999500Y-106573713D01*
X131999500Y-106786286D01*
X132032753Y-106996239D01*
X132098444Y-107198414D01*
X132194951Y-107387820D01*
X132319890Y-107559786D01*
X132433818Y-107673714D01*
X132467303Y-107735037D01*
X132462319Y-107804729D01*
X132420447Y-107860662D01*
X132389471Y-107877577D01*
X132257912Y-107926646D01*
X132257906Y-107926649D01*
X132142812Y-108012809D01*
X132142809Y-108012812D01*
X132056649Y-108127906D01*
X132056645Y-108127913D01*
X132006403Y-108262620D01*
X132006401Y-108262627D01*
X132000000Y-108322155D01*
X132000000Y-108970000D01*
X132916988Y-108970000D01*
X132884075Y-109027007D01*
X132850000Y-109154174D01*
X132850000Y-109285826D01*
X132884075Y-109412993D01*
X132916988Y-109470000D01*
X132000000Y-109470000D01*
X132000000Y-110117844D01*
X132006401Y-110177372D01*
X132006403Y-110177379D01*
X132056645Y-110312086D01*
X132056649Y-110312093D01*
X132142809Y-110427187D01*
X132142812Y-110427190D01*
X132257906Y-110513350D01*
X132257913Y-110513354D01*
X132392620Y-110563596D01*
X132392627Y-110563598D01*
X132452155Y-110569999D01*
X132452172Y-110570000D01*
X133100000Y-110570000D01*
X133100000Y-109653012D01*
X133157007Y-109685925D01*
X133284174Y-109720000D01*
X133415826Y-109720000D01*
X133542993Y-109685925D01*
X133600000Y-109653012D01*
X133600000Y-110570000D01*
X134247828Y-110570000D01*
X134247844Y-110569999D01*
X134307372Y-110563598D01*
X134307379Y-110563596D01*
X134442086Y-110513354D01*
X134442093Y-110513350D01*
X134557187Y-110427190D01*
X134557190Y-110427187D01*
X134643350Y-110312093D01*
X134643354Y-110312086D01*
X134693596Y-110177379D01*
X134693598Y-110177372D01*
X134699999Y-110117844D01*
X134700000Y-110117827D01*
X134700000Y-109470000D01*
X133783012Y-109470000D01*
X133815925Y-109412993D01*
X133850000Y-109285826D01*
X133850000Y-109154174D01*
X133815925Y-109027007D01*
X133783012Y-108970000D01*
X134700000Y-108970000D01*
X134700000Y-108322172D01*
X134699999Y-108322155D01*
X134693598Y-108262627D01*
X134693596Y-108262620D01*
X134643354Y-108127913D01*
X134643350Y-108127906D01*
X134557190Y-108012812D01*
X134557187Y-108012809D01*
X134442093Y-107926649D01*
X134442088Y-107926646D01*
X134310528Y-107877577D01*
X134254595Y-107835705D01*
X134230178Y-107770241D01*
X134245030Y-107701968D01*
X134266175Y-107673720D01*
X134380104Y-107559792D01*
X134505051Y-107387816D01*
X134601557Y-107198412D01*
X134667246Y-106996243D01*
X134700500Y-106786287D01*
X134700500Y-106573713D01*
X134667246Y-106363757D01*
X134601557Y-106161588D01*
X134505051Y-105972184D01*
X134505049Y-105972181D01*
X134505048Y-105972179D01*
X134380109Y-105800213D01*
X134229786Y-105649890D01*
X134057820Y-105524951D01*
X134057115Y-105524591D01*
X134049054Y-105520485D01*
X133998259Y-105472512D01*
X133981463Y-105404692D01*
X134003999Y-105338556D01*
X134049054Y-105299515D01*
X134057816Y-105295051D01*
X134079789Y-105279086D01*
X134229786Y-105170109D01*
X134229788Y-105170106D01*
X134229792Y-105170104D01*
X134380104Y-105019792D01*
X134380106Y-105019788D01*
X134380109Y-105019786D01*
X134505048Y-104847820D01*
X134505047Y-104847820D01*
X134505051Y-104847816D01*
X134601557Y-104658412D01*
X134667246Y-104456243D01*
X134700500Y-104246287D01*
X134700500Y-104033713D01*
X134667246Y-103823757D01*
X134601557Y-103621588D01*
X134505051Y-103432184D01*
X134505049Y-103432181D01*
X134505048Y-103432179D01*
X134380109Y-103260213D01*
X134229786Y-103109890D01*
X134057820Y-102984951D01*
X133868414Y-102888444D01*
X133868413Y-102888443D01*
X133868412Y-102888443D01*
X133666243Y-102822754D01*
X133666241Y-102822753D01*
X133666240Y-102822753D01*
X133504957Y-102797208D01*
X133456287Y-102789500D01*
X133243713Y-102789500D01*
X133195042Y-102797208D01*
X133033760Y-102822753D01*
X132831585Y-102888444D01*
X132642179Y-102984951D01*
X132470213Y-103109890D01*
X132319890Y-103260213D01*
X132194948Y-103432184D01*
X132194947Y-103432185D01*
X132174765Y-103471795D01*
X132126791Y-103522591D01*
X132064281Y-103539500D01*
X103884140Y-103539500D01*
X103843219Y-103550464D01*
X103843219Y-103550465D01*
X103805951Y-103560451D01*
X103731414Y-103580423D01*
X103731409Y-103580426D01*
X103594490Y-103659475D01*
X103594482Y-103659481D01*
X103482678Y-103771286D01*
X98299584Y-108954381D01*
X97115384Y-110138581D01*
X97088456Y-110153284D01*
X97062638Y-110169877D01*
X97056437Y-110170768D01*
X97054061Y-110172066D01*
X97027703Y-110174900D01*
X96877897Y-110174900D01*
X96810858Y-110155215D01*
X96790216Y-110138581D01*
X96724590Y-110072955D01*
X96724588Y-110072952D01*
X96605717Y-109954081D01*
X96605709Y-109954075D01*
X96492189Y-109888535D01*
X96492188Y-109888534D01*
X96475738Y-109879037D01*
X96468785Y-109875023D01*
X96316057Y-109834099D01*
X96157943Y-109834099D01*
X96150347Y-109834099D01*
X96150331Y-109834100D01*
X90172743Y-109834100D01*
X90020013Y-109875023D01*
X89996612Y-109888535D01*
X89996611Y-109888535D01*
X89883087Y-109954077D01*
X89883082Y-109954081D01*
X89647783Y-110189381D01*
X89620855Y-110204084D01*
X89595037Y-110220677D01*
X89588836Y-110221568D01*
X89586460Y-110222866D01*
X89560102Y-110225700D01*
X89410297Y-110225700D01*
X89343258Y-110206015D01*
X89322616Y-110189381D01*
X89096690Y-109963455D01*
X89096688Y-109963452D01*
X88977817Y-109844581D01*
X88977816Y-109844580D01*
X88885670Y-109791380D01*
X88840885Y-109765523D01*
X88688157Y-109724599D01*
X88530043Y-109724599D01*
X88522447Y-109724599D01*
X88522431Y-109724600D01*
X82126697Y-109724600D01*
X82097256Y-109715955D01*
X82067270Y-109709432D01*
X82062254Y-109705677D01*
X82059658Y-109704915D01*
X82039016Y-109688281D01*
X81892390Y-109541655D01*
X81892388Y-109541652D01*
X81773517Y-109422781D01*
X81773509Y-109422775D01*
X81657578Y-109355843D01*
X81657577Y-109355842D01*
X81642822Y-109347324D01*
X81636585Y-109343723D01*
X81483857Y-109302799D01*
X81325743Y-109302799D01*
X81318147Y-109302799D01*
X81318131Y-109302800D01*
X80183743Y-109302800D01*
X80031014Y-109343723D01*
X80010023Y-109355843D01*
X80010022Y-109355843D01*
X79894087Y-109422777D01*
X79894082Y-109422781D01*
X79681683Y-109635181D01*
X79620360Y-109668666D01*
X79594002Y-109671500D01*
X74960857Y-109671500D01*
X74802743Y-109671500D01*
X74650015Y-109712423D01*
X74650014Y-109712423D01*
X74650012Y-109712424D01*
X74650009Y-109712425D01*
X74599896Y-109741359D01*
X74599895Y-109741360D01*
X74558043Y-109765523D01*
X74513085Y-109791479D01*
X74513082Y-109791481D01*
X74401278Y-109903285D01*
X74401278Y-109903286D01*
X74267582Y-110036982D01*
X74240651Y-110051688D01*
X74214838Y-110068277D01*
X74208638Y-110069168D01*
X74206262Y-110070466D01*
X74179903Y-110073300D01*
X74030097Y-110073300D01*
X73963058Y-110053615D01*
X73942416Y-110036981D01*
X73415190Y-109509755D01*
X73415188Y-109509752D01*
X73296317Y-109390881D01*
X73296316Y-109390880D01*
X73209504Y-109340760D01*
X73209504Y-109340759D01*
X73209500Y-109340758D01*
X73159385Y-109311823D01*
X73006657Y-109270899D01*
X72848543Y-109270899D01*
X72840947Y-109270899D01*
X72840931Y-109270900D01*
X69468469Y-109270900D01*
X69468453Y-109270899D01*
X69460857Y-109270899D01*
X69302743Y-109270899D01*
X69195387Y-109299665D01*
X69150010Y-109311824D01*
X69150009Y-109311825D01*
X69099896Y-109340759D01*
X69099895Y-109340760D01*
X69056489Y-109365820D01*
X69013085Y-109390879D01*
X69013082Y-109390881D01*
X68831083Y-109572881D01*
X68769760Y-109606366D01*
X68743402Y-109609200D01*
X67410770Y-109609200D01*
X67410754Y-109609199D01*
X67403158Y-109609199D01*
X67245043Y-109609199D01*
X67204365Y-109620099D01*
X67092314Y-109650123D01*
X67092309Y-109650126D01*
X66955390Y-109729175D01*
X66955382Y-109729181D01*
X66749183Y-109935381D01*
X66687860Y-109968866D01*
X66661502Y-109971700D01*
X66329984Y-109971700D01*
X66310745Y-109973448D01*
X66259407Y-109978113D01*
X66096993Y-110028722D01*
X65951411Y-110116730D01*
X65951410Y-110116731D01*
X65886981Y-110181161D01*
X65825658Y-110214646D01*
X65755966Y-110209662D01*
X65700033Y-110167790D01*
X65675616Y-110102326D01*
X65675300Y-110093480D01*
X65675300Y-89222786D01*
X65694985Y-89155747D01*
X65747789Y-89109992D01*
X65816947Y-89100048D01*
X65880503Y-89129073D01*
X65886967Y-89135091D01*
X67034263Y-90282387D01*
X68254852Y-91502976D01*
X68254862Y-91502987D01*
X68259192Y-91507317D01*
X68259193Y-91507318D01*
X68370997Y-91619122D01*
X68442694Y-91660516D01*
X68484578Y-91684698D01*
X68507924Y-91698177D01*
X68507928Y-91698179D01*
X68660656Y-91739102D01*
X84853113Y-91739102D01*
X84853129Y-91739103D01*
X84860725Y-91739103D01*
X85018836Y-91739103D01*
X85018839Y-91739103D01*
X85171567Y-91698179D01*
X85236801Y-91660516D01*
X85308498Y-91619122D01*
X85420302Y-91507318D01*
X85420303Y-91507316D01*
X85458309Y-91469310D01*
X85513201Y-91414419D01*
X85574525Y-91380935D01*
X85600882Y-91378101D01*
X96670801Y-91378101D01*
X96670817Y-91378102D01*
X96678413Y-91378102D01*
X96836524Y-91378102D01*
X96836527Y-91378102D01*
X96989255Y-91337178D01*
X97051634Y-91301163D01*
X97126186Y-91258121D01*
X97237990Y-91146317D01*
X97237990Y-91146315D01*
X97248194Y-91136112D01*
X97248198Y-91136107D01*
X99502525Y-88881780D01*
X99502530Y-88881776D01*
X99512733Y-88871572D01*
X99512735Y-88871572D01*
X99624539Y-88759768D01*
X99688403Y-88649151D01*
X99703596Y-88622837D01*
X99744520Y-88470109D01*
X99744520Y-88311995D01*
X99744520Y-88304400D01*
X99744519Y-88304382D01*
X99744519Y-86792793D01*
X99744559Y-86792644D01*
X99744519Y-86712586D01*
X99744519Y-86634830D01*
X99744519Y-86634338D01*
X99743519Y-86619101D01*
X99743519Y-86270239D01*
X99763204Y-86203200D01*
X99816008Y-86157445D01*
X99885166Y-86147501D01*
X99936407Y-86167135D01*
X100024944Y-86226294D01*
X100024946Y-86226295D01*
X100024950Y-86226297D01*
X100153188Y-86279414D01*
X100170626Y-86286637D01*
X100305192Y-86313404D01*
X100325276Y-86317399D01*
X100325279Y-86317400D01*
X100325281Y-86317400D01*
X100482967Y-86317400D01*
X100482968Y-86317399D01*
X100637620Y-86286637D01*
X100783302Y-86226294D01*
X100914412Y-86138689D01*
X101025912Y-86027189D01*
X101113517Y-85896079D01*
X101173860Y-85750397D01*
X101204623Y-85595742D01*
X101204623Y-85438058D01*
X101204623Y-85438055D01*
X101204622Y-85438053D01*
X101190568Y-85367401D01*
X101173860Y-85283403D01*
X101155882Y-85239999D01*
X101113520Y-85137727D01*
X101113513Y-85137714D01*
X101025912Y-85006611D01*
X101025909Y-85006607D01*
X100914415Y-84895113D01*
X100914411Y-84895110D01*
X100783308Y-84807509D01*
X100783295Y-84807502D01*
X100637624Y-84747164D01*
X100637612Y-84747161D01*
X100482968Y-84716400D01*
X100482965Y-84716400D01*
X100340097Y-84716400D01*
X100310656Y-84707755D01*
X100280670Y-84701232D01*
X100275654Y-84697477D01*
X100273058Y-84696715D01*
X100252416Y-84680081D01*
X100167150Y-84594815D01*
X100133665Y-84533492D01*
X100138649Y-84463800D01*
X100180521Y-84407867D01*
X100185910Y-84404052D01*
X100281489Y-84340189D01*
X100392989Y-84228689D01*
X100480594Y-84097579D01*
X100540937Y-83951897D01*
X100571700Y-83797242D01*
X100571700Y-83639558D01*
X100571700Y-83639555D01*
X100571699Y-83639553D01*
X100556705Y-83564175D01*
X100540937Y-83484903D01*
X100516282Y-83425380D01*
X100480597Y-83339227D01*
X100480590Y-83339214D01*
X100392989Y-83208111D01*
X100392986Y-83208107D01*
X100281492Y-83096613D01*
X100281488Y-83096610D01*
X100150385Y-83009009D01*
X100150372Y-83009002D01*
X100055633Y-82969761D01*
X100001229Y-82925921D01*
X99979164Y-82859627D01*
X99996443Y-82791927D01*
X100047580Y-82744316D01*
X100103085Y-82731200D01*
X101091431Y-82731200D01*
X101091447Y-82731201D01*
X101099043Y-82731201D01*
X101257154Y-82731201D01*
X101257157Y-82731201D01*
X101409885Y-82690277D01*
X101469760Y-82655708D01*
X101546816Y-82611220D01*
X101658620Y-82499416D01*
X101658620Y-82499414D01*
X101668824Y-82489211D01*
X101668828Y-82489206D01*
X103354847Y-80803186D01*
X104570601Y-80803186D01*
X104581094Y-80905897D01*
X104636241Y-81072319D01*
X104636243Y-81072324D01*
X104728284Y-81221545D01*
X104852254Y-81345515D01*
X105001475Y-81437556D01*
X105001480Y-81437558D01*
X105167902Y-81492705D01*
X105167909Y-81492706D01*
X105270619Y-81503199D01*
X105515599Y-81503199D01*
X105515600Y-81503198D01*
X105515600Y-80545700D01*
X104570601Y-80545700D01*
X104570601Y-80803186D01*
X103354847Y-80803186D01*
X104358921Y-79799112D01*
X104420242Y-79765629D01*
X104489934Y-79770613D01*
X104545867Y-79812485D01*
X104570284Y-79877949D01*
X104570600Y-79886795D01*
X104570600Y-80045700D01*
X105515600Y-80045700D01*
X105515600Y-79088200D01*
X105369195Y-79088200D01*
X105347948Y-79081961D01*
X105325860Y-79080381D01*
X105315077Y-79072309D01*
X105302156Y-79068515D01*
X105287655Y-79051781D01*
X105269927Y-79038509D01*
X105265220Y-79025888D01*
X105256401Y-79015711D01*
X105253249Y-78993793D01*
X105245511Y-78973045D01*
X105248373Y-78959885D01*
X105246457Y-78946553D01*
X105255657Y-78926407D01*
X105260364Y-78904772D01*
X105273631Y-78887048D01*
X105275482Y-78882997D01*
X105281501Y-78876532D01*
X105323017Y-78835017D01*
X105384340Y-78801532D01*
X105410697Y-78798699D01*
X106120501Y-78798699D01*
X106187540Y-78818384D01*
X106208182Y-78835018D01*
X106249683Y-78876519D01*
X106283168Y-78937842D01*
X106278184Y-79007534D01*
X106236312Y-79063467D01*
X106170848Y-79087884D01*
X106162002Y-79088200D01*
X106015600Y-79088200D01*
X106015600Y-81503199D01*
X106260572Y-81503199D01*
X106260586Y-81503198D01*
X106363297Y-81492705D01*
X106529719Y-81437558D01*
X106529724Y-81437556D01*
X106678945Y-81345515D01*
X106802915Y-81221545D01*
X106894956Y-81072324D01*
X106894958Y-81072319D01*
X106950105Y-80905897D01*
X106950106Y-80905890D01*
X106957242Y-80836048D01*
X106983638Y-80771357D01*
X107040819Y-80731205D01*
X107110630Y-80728342D01*
X107170907Y-80763676D01*
X107202512Y-80825989D01*
X107204600Y-80848651D01*
X107204600Y-81478630D01*
X107204599Y-81478648D01*
X107204599Y-81644354D01*
X107204598Y-81644354D01*
X107204599Y-81644357D01*
X107234487Y-81755900D01*
X107245524Y-81797087D01*
X107262461Y-81826422D01*
X107262462Y-81826424D01*
X107324577Y-81934012D01*
X107324581Y-81934017D01*
X107443449Y-82052885D01*
X107443455Y-82052890D01*
X116734939Y-91344374D01*
X116734949Y-91344385D01*
X116739279Y-91348715D01*
X116739280Y-91348716D01*
X116851084Y-91460520D01*
X116851086Y-91460521D01*
X116851090Y-91460524D01*
X116932141Y-91507318D01*
X116988016Y-91539577D01*
X117085225Y-91565624D01*
X117140742Y-91580500D01*
X117140743Y-91580500D01*
X130467963Y-91580500D01*
X130535002Y-91600185D01*
X130580757Y-91652989D01*
X130590701Y-91722147D01*
X130587740Y-91736583D01*
X130567199Y-91813243D01*
X130567199Y-91813245D01*
X130567199Y-91981346D01*
X130567200Y-91981359D01*
X130567200Y-94214130D01*
X130567199Y-94214148D01*
X130567199Y-94379854D01*
X130567198Y-94379854D01*
X130568761Y-94385687D01*
X130608123Y-94532585D01*
X130608124Y-94532587D01*
X130608123Y-94532587D01*
X130612160Y-94539578D01*
X130612161Y-94539579D01*
X130687177Y-94669512D01*
X130687181Y-94669517D01*
X130816420Y-94798756D01*
X130816425Y-94798760D01*
X131040484Y-95022820D01*
X131040486Y-95022821D01*
X131040490Y-95022824D01*
X131172100Y-95098808D01*
X131177416Y-95101877D01*
X131330143Y-95142801D01*
X131330145Y-95142801D01*
X131495854Y-95142801D01*
X131495870Y-95142800D01*
X131955500Y-95142800D01*
X132022539Y-95162485D01*
X132068294Y-95215289D01*
X132079500Y-95266800D01*
X132079500Y-95809594D01*
X132085685Y-95877657D01*
X132085686Y-95877662D01*
X132085687Y-95877664D01*
X132134485Y-96034263D01*
X132134488Y-96034272D01*
X132219348Y-96174648D01*
X132219351Y-96174652D01*
X132335347Y-96290648D01*
X132335351Y-96290651D01*
X132475727Y-96375511D01*
X132475730Y-96375512D01*
X132632343Y-96424315D01*
X132700406Y-96430500D01*
X132700409Y-96430500D01*
X133159591Y-96430500D01*
X133159594Y-96430500D01*
X133227657Y-96424315D01*
X133384270Y-96375512D01*
X133524653Y-96290648D01*
X133640648Y-96174653D01*
X133725512Y-96034270D01*
X133774315Y-95877657D01*
X133780500Y-95809594D01*
X133780500Y-95266800D01*
X133783050Y-95258114D01*
X133781762Y-95249153D01*
X133792740Y-95225112D01*
X133800185Y-95199761D01*
X133807025Y-95193833D01*
X133810787Y-95185597D01*
X133833021Y-95171307D01*
X133852989Y-95154006D01*
X133863503Y-95151718D01*
X133869565Y-95147823D01*
X133904500Y-95142800D01*
X133955731Y-95142800D01*
X133955747Y-95142801D01*
X133963343Y-95142801D01*
X134121453Y-95142801D01*
X134121457Y-95142801D01*
X134123408Y-95142278D01*
X134125116Y-95142318D01*
X134129512Y-95141740D01*
X134129602Y-95142425D01*
X134193255Y-95143941D01*
X134251118Y-95183103D01*
X134278623Y-95247331D01*
X134279500Y-95262053D01*
X134279500Y-95809594D01*
X134285685Y-95877657D01*
X134285686Y-95877662D01*
X134285687Y-95877664D01*
X134334485Y-96034263D01*
X134334488Y-96034272D01*
X134419348Y-96174648D01*
X134419351Y-96174652D01*
X134535347Y-96290648D01*
X134535351Y-96290651D01*
X134675727Y-96375511D01*
X134675730Y-96375512D01*
X134832343Y-96424315D01*
X134900406Y-96430500D01*
X134900409Y-96430500D01*
X135359591Y-96430500D01*
X135359594Y-96430500D01*
X135427657Y-96424315D01*
X135584270Y-96375512D01*
X135724653Y-96290648D01*
X135840648Y-96174653D01*
X135925512Y-96034270D01*
X135974315Y-95877657D01*
X135980500Y-95809594D01*
X135980500Y-95000406D01*
X135974315Y-94932343D01*
X135925512Y-94775730D01*
X135925511Y-94775727D01*
X135840651Y-94635351D01*
X135840648Y-94635347D01*
X135724652Y-94519351D01*
X135724648Y-94519348D01*
X135584272Y-94434488D01*
X135584263Y-94434485D01*
X135427664Y-94385687D01*
X135427662Y-94385686D01*
X135427657Y-94385685D01*
X135359594Y-94379500D01*
X135359591Y-94379500D01*
X135353798Y-94379500D01*
X135286759Y-94359815D01*
X135241004Y-94307011D01*
X135231060Y-94237853D01*
X135260085Y-94174297D01*
X135266117Y-94167819D01*
X135447220Y-93986716D01*
X135526277Y-93849784D01*
X135567201Y-93697057D01*
X135567201Y-93538942D01*
X135567201Y-93531347D01*
X135567200Y-93531329D01*
X135567200Y-92560045D01*
X135567200Y-92560043D01*
X135526277Y-92407316D01*
X135526277Y-92407315D01*
X135526277Y-92407314D01*
X135497339Y-92357195D01*
X135497337Y-92357192D01*
X135447220Y-92270384D01*
X135335416Y-92158580D01*
X135335415Y-92158579D01*
X135331085Y-92154249D01*
X135331074Y-92154239D01*
X135233074Y-92056239D01*
X135199589Y-91994916D01*
X135199138Y-91992749D01*
X135168238Y-91837410D01*
X135168237Y-91837403D01*
X135127520Y-91739102D01*
X135107897Y-91691727D01*
X135107890Y-91691714D01*
X135020289Y-91560611D01*
X135020286Y-91560607D01*
X134908792Y-91449113D01*
X134908788Y-91449110D01*
X134777685Y-91361509D01*
X134777672Y-91361502D01*
X134632001Y-91301164D01*
X134631989Y-91301161D01*
X134477345Y-91270400D01*
X134477342Y-91270400D01*
X134319658Y-91270400D01*
X134319655Y-91270400D01*
X134165010Y-91301161D01*
X134164998Y-91301164D01*
X134019327Y-91361502D01*
X134019314Y-91361509D01*
X133888211Y-91449110D01*
X133888207Y-91449113D01*
X133776713Y-91560607D01*
X133729553Y-91631187D01*
X133675940Y-91675991D01*
X133606615Y-91684698D01*
X133543588Y-91654543D01*
X133523349Y-91631186D01*
X133489689Y-91580811D01*
X133489686Y-91580807D01*
X133378192Y-91469313D01*
X133378188Y-91469310D01*
X133270008Y-91397026D01*
X133225203Y-91343414D01*
X133216496Y-91274089D01*
X133219819Y-91259342D01*
X133227598Y-91232569D01*
X133230500Y-91195694D01*
X133230500Y-90764306D01*
X133227598Y-90727431D01*
X133208183Y-90660606D01*
X133205099Y-90649989D01*
X133205098Y-90649987D01*
X133181744Y-90569602D01*
X133098081Y-90428135D01*
X133098076Y-90428129D01*
X132987628Y-90317681D01*
X132976080Y-90296533D01*
X133354499Y-90296533D01*
X133379533Y-90422381D01*
X133379534Y-90422385D01*
X133380460Y-90427036D01*
X133431380Y-90549969D01*
X133433295Y-90552835D01*
X133433296Y-90552837D01*
X133505301Y-90660601D01*
X133505307Y-90660609D01*
X133599390Y-90754692D01*
X133599398Y-90754698D01*
X133710020Y-90828613D01*
X133710023Y-90828614D01*
X133710031Y-90828620D01*
X133832964Y-90879540D01*
X133832968Y-90879540D01*
X133832969Y-90879541D01*
X133963466Y-90905500D01*
X133963469Y-90905500D01*
X134096533Y-90905500D01*
X134184325Y-90888035D01*
X134227036Y-90879540D01*
X134349969Y-90828620D01*
X134460606Y-90754695D01*
X134554695Y-90660606D01*
X134628620Y-90549969D01*
X134679540Y-90427036D01*
X134692912Y-90359815D01*
X134705500Y-90296533D01*
X134705500Y-90163466D01*
X134679541Y-90032969D01*
X134679540Y-90032968D01*
X134679540Y-90032964D01*
X134628620Y-89910031D01*
X134615500Y-89890396D01*
X134554698Y-89799398D01*
X134554692Y-89799390D01*
X134460609Y-89705307D01*
X134460601Y-89705301D01*
X134349979Y-89631386D01*
X134349972Y-89631382D01*
X134349969Y-89631380D01*
X134349965Y-89631378D01*
X134349961Y-89631376D01*
X134227040Y-89580461D01*
X134227030Y-89580458D01*
X134096533Y-89554500D01*
X134096531Y-89554500D01*
X133963469Y-89554500D01*
X133963467Y-89554500D01*
X133832969Y-89580458D01*
X133832959Y-89580461D01*
X133710038Y-89631376D01*
X133710020Y-89631386D01*
X133599398Y-89705301D01*
X133599390Y-89705307D01*
X133505307Y-89799390D01*
X133505301Y-89799398D01*
X133433295Y-89907163D01*
X133433292Y-89907168D01*
X133431380Y-89910031D01*
X133380460Y-90032964D01*
X133379535Y-90037613D01*
X133379534Y-90037616D01*
X133354500Y-90163466D01*
X133354500Y-90163469D01*
X133354500Y-90296531D01*
X133354500Y-90296533D01*
X133354499Y-90296533D01*
X132976080Y-90296533D01*
X132954143Y-90256358D01*
X132959127Y-90186666D01*
X132987628Y-90142319D01*
X133098076Y-90031870D01*
X133098081Y-90031865D01*
X133181744Y-89890398D01*
X133227598Y-89732569D01*
X133230500Y-89695694D01*
X133230500Y-89264306D01*
X133227598Y-89227431D01*
X133220744Y-89203839D01*
X133220943Y-89133971D01*
X133258884Y-89075300D01*
X133302926Y-89050859D01*
X133384270Y-89025512D01*
X133524653Y-88940648D01*
X133640648Y-88824653D01*
X133725512Y-88684270D01*
X133774315Y-88527657D01*
X133780500Y-88459594D01*
X133780500Y-87650406D01*
X134279500Y-87650406D01*
X134279500Y-88459594D01*
X134285685Y-88527657D01*
X134285686Y-88527661D01*
X134285687Y-88527664D01*
X134334485Y-88684263D01*
X134334488Y-88684272D01*
X134419348Y-88824648D01*
X134419351Y-88824652D01*
X134535347Y-88940648D01*
X134535351Y-88940651D01*
X134675727Y-89025511D01*
X134675730Y-89025512D01*
X134832343Y-89074315D01*
X134900406Y-89080500D01*
X134900409Y-89080500D01*
X135359591Y-89080500D01*
X135359594Y-89080500D01*
X135427657Y-89074315D01*
X135584270Y-89025512D01*
X135724653Y-88940648D01*
X135840648Y-88824653D01*
X135925512Y-88684270D01*
X135974315Y-88527657D01*
X135980500Y-88459594D01*
X135980500Y-87650406D01*
X135974315Y-87582343D01*
X135925512Y-87425730D01*
X135925511Y-87425727D01*
X135840651Y-87285351D01*
X135840648Y-87285347D01*
X135724652Y-87169351D01*
X135724648Y-87169348D01*
X135584272Y-87084488D01*
X135584263Y-87084485D01*
X135427664Y-87035687D01*
X135427662Y-87035686D01*
X135427657Y-87035685D01*
X135359594Y-87029500D01*
X134900406Y-87029500D01*
X134832343Y-87035685D01*
X134832339Y-87035686D01*
X134832335Y-87035687D01*
X134675736Y-87084485D01*
X134675727Y-87084488D01*
X134535351Y-87169348D01*
X134535347Y-87169351D01*
X134419351Y-87285347D01*
X134419348Y-87285351D01*
X134334488Y-87425727D01*
X134334485Y-87425736D01*
X134285687Y-87582335D01*
X134285685Y-87582343D01*
X134279500Y-87650406D01*
X133780500Y-87650406D01*
X133774315Y-87582343D01*
X133725512Y-87425730D01*
X133725511Y-87425727D01*
X133640651Y-87285351D01*
X133640648Y-87285347D01*
X133524652Y-87169351D01*
X133524648Y-87169348D01*
X133384272Y-87084488D01*
X133384263Y-87084485D01*
X133227664Y-87035687D01*
X133227662Y-87035686D01*
X133227657Y-87035685D01*
X133159594Y-87029500D01*
X132700406Y-87029500D01*
X132632343Y-87035685D01*
X132632339Y-87035686D01*
X132632335Y-87035687D01*
X132475736Y-87084485D01*
X132475727Y-87084488D01*
X132335351Y-87169348D01*
X132335347Y-87169351D01*
X132219351Y-87285347D01*
X132219348Y-87285351D01*
X132134488Y-87425727D01*
X132134485Y-87425736D01*
X132085687Y-87582335D01*
X132085685Y-87582343D01*
X132084611Y-87594168D01*
X132079500Y-87650408D01*
X132079500Y-88459591D01*
X132085685Y-88527661D01*
X132086412Y-88531314D01*
X132086216Y-88533500D01*
X132086279Y-88534191D01*
X132086153Y-88534202D01*
X132080182Y-88600905D01*
X132037317Y-88656081D01*
X131971426Y-88679323D01*
X131964794Y-88679500D01*
X131514298Y-88679500D01*
X131477432Y-88682401D01*
X131477426Y-88682402D01*
X131319606Y-88728254D01*
X131319603Y-88728255D01*
X131178137Y-88811917D01*
X131178129Y-88811923D01*
X131061923Y-88928129D01*
X131061917Y-88928137D01*
X130978255Y-89069603D01*
X130978254Y-89069606D01*
X130932402Y-89227426D01*
X130932401Y-89227432D01*
X130929500Y-89264298D01*
X130929500Y-89695701D01*
X130932401Y-89732567D01*
X130932402Y-89732573D01*
X130978254Y-89890393D01*
X130978255Y-89890396D01*
X130978256Y-89890398D01*
X131061918Y-90031864D01*
X131061923Y-90031870D01*
X131172372Y-90142319D01*
X131176709Y-90150262D01*
X131183957Y-90155688D01*
X131193193Y-90180450D01*
X131205857Y-90203642D01*
X131205211Y-90212670D01*
X131208375Y-90221152D01*
X131202758Y-90246973D01*
X131200873Y-90273334D01*
X131195054Y-90282387D01*
X131193524Y-90289425D01*
X131172374Y-90317680D01*
X131146872Y-90343181D01*
X131085552Y-90376666D01*
X131059192Y-90379500D01*
X117519897Y-90379500D01*
X117452858Y-90359815D01*
X117432216Y-90343181D01*
X110602006Y-83512971D01*
X116332183Y-83512971D01*
X116335983Y-83516771D01*
X116336009Y-83516795D01*
X116724365Y-83848482D01*
X116724392Y-83848503D01*
X117137605Y-84148720D01*
X117137616Y-84148728D01*
X117573092Y-84415589D01*
X117573097Y-84415592D01*
X118028214Y-84647485D01*
X118500108Y-84842951D01*
X118985864Y-85000781D01*
X118985887Y-85000788D01*
X119482540Y-85120023D01*
X119987007Y-85199923D01*
X119987026Y-85199925D01*
X120496208Y-85239999D01*
X120496222Y-85240000D01*
X121006978Y-85240000D01*
X121006991Y-85239999D01*
X121516173Y-85199925D01*
X121516192Y-85199923D01*
X122020659Y-85120023D01*
X122517312Y-85000788D01*
X122517335Y-85000781D01*
X123003091Y-84842951D01*
X123474985Y-84647485D01*
X123930102Y-84415592D01*
X123930107Y-84415589D01*
X124365583Y-84148728D01*
X124365594Y-84148720D01*
X124778807Y-83848503D01*
X124778834Y-83848482D01*
X125167190Y-83516795D01*
X125167216Y-83516771D01*
X125171017Y-83512971D01*
X120751600Y-79093554D01*
X116332183Y-83512971D01*
X110602006Y-83512971D01*
X109591215Y-82502180D01*
X109557730Y-82440857D01*
X109562714Y-82371165D01*
X109604586Y-82315232D01*
X109670050Y-82290815D01*
X109678896Y-82290499D01*
X110338025Y-82290499D01*
X110338025Y-82290498D01*
X110380053Y-82287650D01*
X110561690Y-82242479D01*
X110729370Y-82159317D01*
X110875253Y-82042053D01*
X110992517Y-81896170D01*
X111075679Y-81728490D01*
X111120850Y-81546853D01*
X111123700Y-81504825D01*
X111123699Y-78484608D01*
X114251600Y-78484608D01*
X114251600Y-78995391D01*
X114291674Y-79504573D01*
X114291676Y-79504592D01*
X114371576Y-80009059D01*
X114490811Y-80505712D01*
X114490818Y-80505735D01*
X114648648Y-80991491D01*
X114844114Y-81463385D01*
X115076007Y-81918502D01*
X115076010Y-81918507D01*
X115342871Y-82353983D01*
X115342879Y-82353994D01*
X115643096Y-82767207D01*
X115643117Y-82767234D01*
X115974804Y-83155590D01*
X115974828Y-83155616D01*
X115978629Y-83159417D01*
X120398046Y-78740000D01*
X121105154Y-78740000D01*
X125524571Y-83159417D01*
X125528371Y-83155616D01*
X125528395Y-83155590D01*
X125860082Y-82767234D01*
X125860103Y-82767207D01*
X126160320Y-82353994D01*
X126160328Y-82353983D01*
X126427189Y-81918507D01*
X126427192Y-81918502D01*
X126659085Y-81463385D01*
X126854551Y-80991491D01*
X127012381Y-80505735D01*
X127012388Y-80505712D01*
X127131623Y-80009059D01*
X127211523Y-79504592D01*
X127211525Y-79504573D01*
X127251599Y-78995391D01*
X127251600Y-78995378D01*
X127251600Y-78484621D01*
X127251599Y-78484608D01*
X127211525Y-77975426D01*
X127211523Y-77975407D01*
X127131623Y-77470940D01*
X127012388Y-76974287D01*
X127012381Y-76974264D01*
X126854551Y-76488508D01*
X126659085Y-76016614D01*
X126427192Y-75561497D01*
X126427189Y-75561492D01*
X126160328Y-75126016D01*
X126160320Y-75126005D01*
X125860103Y-74712792D01*
X125860082Y-74712765D01*
X125528395Y-74324409D01*
X125528371Y-74324383D01*
X125524571Y-74320583D01*
X121105154Y-78740000D01*
X120398046Y-78740000D01*
X115978629Y-74320583D01*
X115974828Y-74324383D01*
X115974804Y-74324409D01*
X115643117Y-74712765D01*
X115643096Y-74712792D01*
X115342879Y-75126005D01*
X115342871Y-75126016D01*
X115076010Y-75561492D01*
X115076007Y-75561497D01*
X114844114Y-76016614D01*
X114648648Y-76488508D01*
X114490818Y-76974264D01*
X114490811Y-76974287D01*
X114371576Y-77470940D01*
X114291676Y-77975407D01*
X114291674Y-77975426D01*
X114251600Y-78484608D01*
X111123699Y-78484608D01*
X111123699Y-75975176D01*
X111120850Y-75933147D01*
X111075679Y-75751510D01*
X110992517Y-75583830D01*
X110875253Y-75437947D01*
X110808449Y-75384248D01*
X110729369Y-75320682D01*
X110561691Y-75237521D01*
X110380057Y-75192350D01*
X110352034Y-75190450D01*
X110338025Y-75189500D01*
X110338023Y-75189500D01*
X110147700Y-75189500D01*
X110080661Y-75169815D01*
X110034906Y-75117011D01*
X110023700Y-75065500D01*
X110023700Y-74315697D01*
X110043385Y-74248658D01*
X110060019Y-74228016D01*
X110321006Y-73967029D01*
X116332183Y-73967029D01*
X120751600Y-78386446D01*
X125171017Y-73967029D01*
X125167216Y-73963228D01*
X125167190Y-73963204D01*
X124778834Y-73631517D01*
X124778807Y-73631496D01*
X124365594Y-73331279D01*
X124365583Y-73331271D01*
X123930107Y-73064410D01*
X123930102Y-73064407D01*
X123474985Y-72832514D01*
X123003091Y-72637048D01*
X122517335Y-72479218D01*
X122517312Y-72479211D01*
X122020659Y-72359976D01*
X121516192Y-72280076D01*
X121516173Y-72280074D01*
X121006991Y-72240000D01*
X120496208Y-72240000D01*
X119987026Y-72280074D01*
X119987007Y-72280076D01*
X119482540Y-72359976D01*
X118985887Y-72479211D01*
X118985864Y-72479218D01*
X118500108Y-72637048D01*
X118028214Y-72832514D01*
X117573097Y-73064407D01*
X117573092Y-73064410D01*
X117137616Y-73331271D01*
X117137605Y-73331279D01*
X116724392Y-73631496D01*
X116724365Y-73631517D01*
X116336009Y-73963204D01*
X116335983Y-73963228D01*
X116332183Y-73967029D01*
X110321006Y-73967029D01*
X110460049Y-73827986D01*
X112890411Y-71397625D01*
X115579217Y-68708819D01*
X115640540Y-68675334D01*
X115666898Y-68672500D01*
X125785503Y-68672500D01*
X125852542Y-68692185D01*
X125873184Y-68708819D01*
X131443181Y-74278816D01*
X131476666Y-74340139D01*
X131479500Y-74366497D01*
X131479500Y-75065500D01*
X131459815Y-75132539D01*
X131407011Y-75178294D01*
X131355501Y-75189500D01*
X131165176Y-75189500D01*
X131165172Y-75189501D01*
X131123149Y-75192349D01*
X131123148Y-75192349D01*
X130941508Y-75237521D01*
X130773830Y-75320682D01*
X130627947Y-75437946D01*
X130627946Y-75437947D01*
X130510682Y-75583830D01*
X130427521Y-75751508D01*
X130382350Y-75933142D01*
X130379500Y-75975177D01*
X130379500Y-81504824D01*
X130379501Y-81504827D01*
X130382349Y-81546850D01*
X130382349Y-81546851D01*
X130427521Y-81728491D01*
X130510682Y-81896169D01*
X130510683Y-81896170D01*
X130627947Y-82042053D01*
X130773830Y-82159317D01*
X130941510Y-82242479D01*
X131063874Y-82272909D01*
X131123142Y-82287649D01*
X131123143Y-82287649D01*
X131123147Y-82287650D01*
X131165175Y-82290500D01*
X132994824Y-82290499D01*
X133036853Y-82287650D01*
X133218490Y-82242479D01*
X133386170Y-82159317D01*
X133532053Y-82042053D01*
X133649317Y-81896170D01*
X133732479Y-81728490D01*
X133777650Y-81546853D01*
X133780500Y-81504825D01*
X133780500Y-80248700D01*
X133800185Y-80181661D01*
X133852989Y-80135906D01*
X133895809Y-80126590D01*
X133895682Y-80125297D01*
X133901736Y-80124700D01*
X133901742Y-80124700D01*
X134056397Y-80093937D01*
X134202079Y-80033594D01*
X134333189Y-79945989D01*
X134444689Y-79834489D01*
X134532294Y-79703379D01*
X134592637Y-79557697D01*
X134623400Y-79403042D01*
X134623400Y-79245358D01*
X134623400Y-79245355D01*
X134623399Y-79245353D01*
X134592637Y-79090703D01*
X134585018Y-79072309D01*
X134532297Y-78945027D01*
X134532290Y-78945014D01*
X134444689Y-78813911D01*
X134444686Y-78813907D01*
X134333192Y-78702413D01*
X134333188Y-78702410D01*
X134202085Y-78614809D01*
X134202072Y-78614802D01*
X134056401Y-78554464D01*
X134056389Y-78554461D01*
X133901746Y-78523700D01*
X133895682Y-78523103D01*
X133895872Y-78521167D01*
X133837460Y-78504015D01*
X133791705Y-78451211D01*
X133780499Y-78399700D01*
X133780499Y-75975175D01*
X133780498Y-75975174D01*
X133777650Y-75933147D01*
X133732479Y-75751510D01*
X133649317Y-75583830D01*
X133532053Y-75437947D01*
X133465249Y-75384248D01*
X133386169Y-75320682D01*
X133218491Y-75237521D01*
X133036857Y-75192350D01*
X133008834Y-75190450D01*
X132994825Y-75189500D01*
X132994823Y-75189500D01*
X132804500Y-75189500D01*
X132737461Y-75169815D01*
X132691706Y-75117011D01*
X132680500Y-75065500D01*
X132680500Y-74155460D01*
X132680501Y-74155447D01*
X132680501Y-73987344D01*
X132680501Y-73987343D01*
X132639577Y-73834616D01*
X132615341Y-73792638D01*
X132560524Y-73697690D01*
X132560521Y-73697686D01*
X132560520Y-73697684D01*
X126573189Y-67710354D01*
X126573188Y-67710352D01*
X126454317Y-67591481D01*
X126454309Y-67591475D01*
X126336076Y-67523214D01*
X126336076Y-67523213D01*
X126336071Y-67523212D01*
X126329550Y-67519447D01*
X126317386Y-67512423D01*
X126279203Y-67502192D01*
X126164657Y-67471499D01*
X126006543Y-67471499D01*
X125998947Y-67471499D01*
X125998931Y-67471500D01*
X115453470Y-67471500D01*
X115453454Y-67471499D01*
X115445858Y-67471499D01*
X115287743Y-67471499D01*
X115211379Y-67491961D01*
X115135014Y-67512423D01*
X115135009Y-67512426D01*
X114998090Y-67591475D01*
X114998082Y-67591481D01*
X108942679Y-73646884D01*
X108924915Y-73677654D01*
X108913351Y-73697684D01*
X108863623Y-73783815D01*
X108822699Y-73936543D01*
X108822699Y-73936545D01*
X108822699Y-74104646D01*
X108822700Y-74104659D01*
X108822700Y-75065500D01*
X108803015Y-75132539D01*
X108750211Y-75178294D01*
X108698701Y-75189500D01*
X108508376Y-75189500D01*
X108508372Y-75189501D01*
X108466349Y-75192349D01*
X108466348Y-75192349D01*
X108284708Y-75237521D01*
X108117030Y-75320682D01*
X107971147Y-75437946D01*
X107971146Y-75437947D01*
X107853882Y-75583830D01*
X107770721Y-75751508D01*
X107725550Y-75933142D01*
X107722700Y-75975177D01*
X107722700Y-78351702D01*
X107703015Y-78418741D01*
X107650211Y-78464496D01*
X107581053Y-78474440D01*
X107517497Y-78445415D01*
X107511019Y-78439383D01*
X106997418Y-77925782D01*
X106963933Y-77864459D01*
X106961099Y-77838101D01*
X106961099Y-77083198D01*
X106961098Y-77083181D01*
X106950599Y-76980403D01*
X106950598Y-76980400D01*
X106948565Y-76974264D01*
X106895414Y-76813866D01*
X106803312Y-76664544D01*
X106679256Y-76540488D01*
X106529934Y-76448386D01*
X106363397Y-76393201D01*
X106363395Y-76393200D01*
X106260616Y-76382700D01*
X106260609Y-76382700D01*
X105505697Y-76382700D01*
X105476256Y-76374055D01*
X105446270Y-76367532D01*
X105441254Y-76363777D01*
X105438658Y-76363015D01*
X105418016Y-76346381D01*
X105417190Y-76345555D01*
X105417188Y-76345552D01*
X105298317Y-76226681D01*
X105298316Y-76226680D01*
X105211504Y-76176560D01*
X105211504Y-76176559D01*
X105211500Y-76176558D01*
X105161385Y-76147623D01*
X105008657Y-76106699D01*
X104850543Y-76106699D01*
X104842947Y-76106699D01*
X104842931Y-76106700D01*
X99041501Y-76106700D01*
X98974462Y-76087015D01*
X98928707Y-76034211D01*
X98918763Y-75965053D01*
X98919884Y-75958508D01*
X98948700Y-75813644D01*
X98948700Y-75655955D01*
X98948699Y-75655953D01*
X98918863Y-75505960D01*
X98917937Y-75501303D01*
X98911671Y-75486175D01*
X98857597Y-75355627D01*
X98857590Y-75355614D01*
X98769989Y-75224511D01*
X98769986Y-75224507D01*
X98658491Y-75113012D01*
X98658488Y-75113010D01*
X98527385Y-75025409D01*
X98527372Y-75025402D01*
X98381701Y-74965064D01*
X98381691Y-74965061D01*
X98226349Y-74934161D01*
X98164438Y-74901776D01*
X98162860Y-74900225D01*
X97034559Y-73771924D01*
X97001074Y-73710601D01*
X97006058Y-73640909D01*
X97044671Y-73589329D01*
X97043785Y-73588249D01*
X97048483Y-73584392D01*
X97048489Y-73584389D01*
X97159989Y-73472889D01*
X97247594Y-73341779D01*
X97307937Y-73196097D01*
X97338700Y-73041442D01*
X97338700Y-72883758D01*
X97338700Y-72883755D01*
X97338699Y-72883753D01*
X97307938Y-72729110D01*
X97307937Y-72729103D01*
X97251928Y-72593884D01*
X97247597Y-72583427D01*
X97247590Y-72583414D01*
X97159989Y-72452311D01*
X97159986Y-72452307D01*
X97048492Y-72340813D01*
X97048488Y-72340810D01*
X96917385Y-72253209D01*
X96917372Y-72253202D01*
X96771701Y-72192864D01*
X96771689Y-72192861D01*
X96617045Y-72162100D01*
X96617042Y-72162100D01*
X96459358Y-72162100D01*
X96459355Y-72162100D01*
X96304710Y-72192861D01*
X96304698Y-72192864D01*
X96159027Y-72253202D01*
X96159014Y-72253209D01*
X96027325Y-72341202D01*
X95960647Y-72362080D01*
X95958434Y-72362100D01*
X65160440Y-72362100D01*
X65119519Y-72373064D01*
X65119519Y-72373065D01*
X65082251Y-72383051D01*
X65007714Y-72403023D01*
X65007709Y-72403026D01*
X64870790Y-72482075D01*
X64870782Y-72482081D01*
X64758978Y-72593886D01*
X63711118Y-73641745D01*
X63649795Y-73675230D01*
X63620205Y-73677654D01*
X63620205Y-73677900D01*
X63617214Y-73677900D01*
X63617153Y-73677905D01*
X63617054Y-73677900D01*
X63617048Y-73677900D01*
X63030352Y-73677900D01*
X63030344Y-73677900D01*
X62928423Y-73688313D01*
X62763277Y-73743037D01*
X62763266Y-73743042D01*
X62615200Y-73834371D01*
X62615196Y-73834374D01*
X62492174Y-73957396D01*
X62492171Y-73957400D01*
X62400842Y-74105466D01*
X62400837Y-74105477D01*
X62346113Y-74270623D01*
X62335700Y-74372544D01*
X62335700Y-75384255D01*
X62346113Y-75486176D01*
X62400837Y-75651322D01*
X62400842Y-75651333D01*
X62492171Y-75799399D01*
X62492174Y-75799403D01*
X62615197Y-75922426D01*
X62628177Y-75930432D01*
X62674902Y-75982379D01*
X62686125Y-76051342D01*
X62669198Y-76100121D01*
X62643522Y-76142593D01*
X62592913Y-76305007D01*
X62586500Y-76375586D01*
X62586500Y-76720200D01*
X62566815Y-76787239D01*
X62514011Y-76832994D01*
X62462500Y-76844200D01*
X60418398Y-76844200D01*
X60351359Y-76824515D01*
X60330717Y-76807881D01*
X59868390Y-76345555D01*
X59861321Y-76338486D01*
X59861320Y-76338484D01*
X59783855Y-76261019D01*
X59783847Y-76261004D01*
X59753153Y-76210230D01*
X59732078Y-76142594D01*
X59690916Y-76074505D01*
X59673081Y-76006951D01*
X59694599Y-75940477D01*
X59709353Y-75922674D01*
X59709597Y-75922429D01*
X59709603Y-75922426D01*
X59832626Y-75799403D01*
X59923962Y-75651325D01*
X59978687Y-75486175D01*
X59989100Y-75384248D01*
X59989100Y-74372552D01*
X59978687Y-74270625D01*
X59923962Y-74105475D01*
X59923958Y-74105469D01*
X59923957Y-74105466D01*
X59832628Y-73957400D01*
X59832625Y-73957396D01*
X59709603Y-73834374D01*
X59709599Y-73834371D01*
X59561533Y-73743042D01*
X59561527Y-73743039D01*
X59561525Y-73743038D01*
X59554439Y-73740690D01*
X59396376Y-73688313D01*
X59294455Y-73677900D01*
X59294448Y-73677900D01*
X58707752Y-73677900D01*
X58707744Y-73677900D01*
X58605823Y-73688313D01*
X58440677Y-73743037D01*
X58440666Y-73743042D01*
X58292600Y-73834371D01*
X58292596Y-73834374D01*
X58169574Y-73957396D01*
X58169571Y-73957400D01*
X58169138Y-73958103D01*
X58168714Y-73958483D01*
X58165093Y-73963064D01*
X58164310Y-73962445D01*
X58117190Y-74004828D01*
X58048228Y-74016049D01*
X57984146Y-73988206D01*
X57962257Y-73962944D01*
X57962107Y-73963064D01*
X57959459Y-73959715D01*
X57958062Y-73958103D01*
X57957628Y-73957400D01*
X57957625Y-73957396D01*
X57834603Y-73834374D01*
X57834599Y-73834371D01*
X57686533Y-73743042D01*
X57686527Y-73743039D01*
X57686525Y-73743038D01*
X57679439Y-73740690D01*
X57521376Y-73688313D01*
X57419455Y-73677900D01*
X57419448Y-73677900D01*
X56832752Y-73677900D01*
X56832744Y-73677900D01*
X56730823Y-73688313D01*
X56565677Y-73743037D01*
X56565666Y-73743042D01*
X56417600Y-73834371D01*
X56417596Y-73834374D01*
X56294574Y-73957396D01*
X56294571Y-73957400D01*
X56203242Y-74105466D01*
X56203237Y-74105477D01*
X56148513Y-74270623D01*
X56138100Y-74372544D01*
X56138100Y-74965802D01*
X56118415Y-75032841D01*
X56117690Y-75033957D01*
X56110733Y-75044530D01*
X56097080Y-75058184D01*
X56065426Y-75113011D01*
X56018023Y-75195115D01*
X55977099Y-75347843D01*
X55977099Y-75505957D01*
X55977099Y-75505959D01*
X55977100Y-75515953D01*
X55977100Y-77092024D01*
X55977099Y-77092042D01*
X55977099Y-77257748D01*
X55977098Y-77257748D01*
X53840500Y-77257748D01*
X53840500Y-71122706D01*
X53840618Y-71117298D01*
X53842354Y-71077529D01*
X53857690Y-70726255D01*
X53858629Y-70715524D01*
X53909367Y-70330137D01*
X53911240Y-70319510D01*
X53995375Y-69940004D01*
X53998166Y-69929589D01*
X54115057Y-69558857D01*
X54118741Y-69548736D01*
X54232598Y-69273860D01*
X88678900Y-69273860D01*
X88678900Y-69562539D01*
X88678901Y-69562555D01*
X88716581Y-69848765D01*
X88791304Y-70127632D01*
X88901774Y-70394332D01*
X88901782Y-70394349D01*
X89046121Y-70644349D01*
X89046132Y-70644365D01*
X89221869Y-70873391D01*
X89221875Y-70873398D01*
X89426001Y-71077524D01*
X89426007Y-71077529D01*
X89655043Y-71253274D01*
X89655050Y-71253278D01*
X89905050Y-71397617D01*
X89905055Y-71397619D01*
X89905058Y-71397621D01*
X89905062Y-71397622D01*
X89905067Y-71397625D01*
X90171767Y-71508095D01*
X90171769Y-71508095D01*
X90171775Y-71508098D01*
X90450631Y-71582818D01*
X90736854Y-71620500D01*
X90736861Y-71620500D01*
X100118739Y-71620500D01*
X100118746Y-71620500D01*
X100404969Y-71582818D01*
X100683825Y-71508098D01*
X100950542Y-71397621D01*
X101200557Y-71253274D01*
X101429593Y-71077529D01*
X101633729Y-70873393D01*
X101809474Y-70644357D01*
X101953821Y-70394342D01*
X102064298Y-70127625D01*
X102139018Y-69848769D01*
X102176700Y-69562546D01*
X102176700Y-69273854D01*
X102139018Y-68987631D01*
X102064298Y-68708775D01*
X102057426Y-68692185D01*
X101953825Y-68442067D01*
X101953817Y-68442050D01*
X101809478Y-68192050D01*
X101809474Y-68192043D01*
X101758869Y-68126093D01*
X101633730Y-67963008D01*
X101633724Y-67963001D01*
X101429598Y-67758875D01*
X101429591Y-67758869D01*
X101200565Y-67583132D01*
X101200563Y-67583130D01*
X101200557Y-67583126D01*
X101200552Y-67583123D01*
X101200549Y-67583121D01*
X100950549Y-67438782D01*
X100950532Y-67438774D01*
X100683832Y-67328304D01*
X100404965Y-67253581D01*
X100118755Y-67215901D01*
X100118752Y-67215900D01*
X100118746Y-67215900D01*
X100040292Y-67215900D01*
X90947092Y-67215900D01*
X90881200Y-67215900D01*
X90736854Y-67215900D01*
X90736848Y-67215900D01*
X90736844Y-67215901D01*
X90450634Y-67253581D01*
X90171767Y-67328304D01*
X89905067Y-67438774D01*
X89905050Y-67438782D01*
X89655050Y-67583121D01*
X89655034Y-67583132D01*
X89426008Y-67758869D01*
X89426001Y-67758875D01*
X89221875Y-67963001D01*
X89221869Y-67963008D01*
X89046132Y-68192034D01*
X89046121Y-68192050D01*
X88901782Y-68442050D01*
X88901774Y-68442067D01*
X88791304Y-68708767D01*
X88716581Y-68987634D01*
X88678901Y-69273844D01*
X88678900Y-69273860D01*
X54232598Y-69273860D01*
X54267502Y-69189594D01*
X54272056Y-69179829D01*
X54451540Y-68835045D01*
X54456935Y-68825700D01*
X54665793Y-68497858D01*
X54671983Y-68489018D01*
X54908612Y-68180637D01*
X54915550Y-68172368D01*
X55178157Y-67885783D01*
X55185783Y-67878157D01*
X55472368Y-67615550D01*
X55480637Y-67608612D01*
X55789018Y-67371983D01*
X55797858Y-67365793D01*
X56125700Y-67156935D01*
X56135045Y-67151540D01*
X56479829Y-66972056D01*
X56489603Y-66967498D01*
X56848736Y-66818741D01*
X56858857Y-66815057D01*
X57229589Y-66698166D01*
X57240004Y-66695375D01*
X57619510Y-66611240D01*
X57630137Y-66609367D01*
X58015524Y-66558629D01*
X58026255Y-66557690D01*
X58404776Y-66541164D01*
X58417298Y-66540618D01*
X58422706Y-66540500D01*
X58485892Y-66540500D01*
X132014108Y-66540500D01*
X132077294Y-66540500D01*
X132082702Y-66540618D01*
G37*
G04 #@! TD.AperFunction*
M02*
