%TF.GenerationSoftware,KiCad,Pcbnew,9.0.3*%
%TF.CreationDate,2025-08-18T11:47:19+01:00*%
%TF.ProjectId,tester_pcb_business_card,74657374-6572-45f7-9063-625f62757369,rev?*%
%TF.SameCoordinates,Original*%
%TF.FileFunction,Drillmap*%
%TF.FilePolarity,Positive*%
%FSLAX45Y45*%
G04 Gerber Fmt 4.5, Leading zero omitted, Abs format (unit mm)*
G04 Created by KiCad (PCBNEW 9.0.3) date 2025-08-18 11:47:19*
%MOMM*%
%LPD*%
G01*
G04 APERTURE LIST*
%ADD10C,0.050000*%
%ADD11C,0.200000*%
%ADD12C,0.100000*%
G04 APERTURE END LIST*
D10*
X13716000Y-11430000D02*
X13716000Y-7112000D01*
X5334000Y-7112000D02*
X5334000Y-11430000D01*
X5334000Y-7112000D02*
G75*
G02*
X5842000Y-6604000I508000J0D01*
G01*
X13208000Y-6604000D02*
G75*
G02*
X13716000Y-7112000I0J-508000D01*
G01*
X13716000Y-11430000D02*
G75*
G02*
X13208000Y-11938000I-508000J0D01*
G01*
X5842000Y-11938000D02*
G75*
G02*
X5334000Y-11430000I0J508000D01*
G01*
X5842000Y-11938000D02*
X13208000Y-11938000D01*
X13208000Y-6604000D02*
X5842000Y-6604000D01*
D11*
D12*
X8034540Y-11031500D02*
X8064540Y-11061500D01*
X8064540Y-11031500D02*
X8034540Y-11061500D01*
X8042510Y-7427730D02*
X8072510Y-7457730D01*
X8072510Y-7427730D02*
X8042510Y-7457730D01*
X8760980Y-11144150D02*
X8790980Y-11174150D01*
X8790980Y-11144150D02*
X8760980Y-11174150D01*
X8920720Y-8539720D02*
X8950720Y-8569720D01*
X8950720Y-8539720D02*
X8920720Y-8569720D01*
X8930630Y-7558480D02*
X8960630Y-7588480D01*
X8960630Y-7558480D02*
X8930630Y-7588480D01*
X8993670Y-8498390D02*
X9023670Y-8528390D01*
X9023670Y-8498390D02*
X8993670Y-8528390D01*
X9068153Y-8751720D02*
X9098153Y-8781720D01*
X9098153Y-8751720D02*
X9068153Y-8781720D01*
X9197820Y-8712320D02*
X9227820Y-8742320D01*
X9227820Y-8712320D02*
X9197820Y-8742320D01*
X9289870Y-11116000D02*
X9319870Y-11146000D01*
X9319870Y-11116000D02*
X9289870Y-11146000D01*
X9418560Y-8488920D02*
X9448560Y-8518920D01*
X9448560Y-8488920D02*
X9418560Y-8518920D01*
X9427080Y-11297500D02*
X9457080Y-11327500D01*
X9457080Y-11297500D02*
X9427080Y-11327500D01*
X9464662Y-8823920D02*
X9494662Y-8853920D01*
X9494662Y-8823920D02*
X9464662Y-8853920D01*
X9545259Y-8817620D02*
X9575259Y-8847620D01*
X9575259Y-8817620D02*
X9545259Y-8847620D01*
X9610010Y-8337910D02*
X9640010Y-8367910D01*
X9640010Y-8337910D02*
X9610010Y-8367910D01*
X9638820Y-7281260D02*
X9668820Y-7311260D01*
X9668820Y-7281260D02*
X9638820Y-7311260D01*
X9655546Y-8774466D02*
X9685546Y-8804466D01*
X9685546Y-8774466D02*
X9655546Y-8804466D01*
X9799820Y-7558480D02*
X9829820Y-7588480D01*
X9829820Y-7558480D02*
X9799820Y-7588480D01*
X9801540Y-7894750D02*
X9831540Y-7924750D01*
X9831540Y-7894750D02*
X9801540Y-7924750D01*
X9856190Y-8388950D02*
X9886190Y-8418950D01*
X9886190Y-8388950D02*
X9856190Y-8418950D01*
X9962120Y-8356840D02*
X9992120Y-8386840D01*
X9992120Y-8356840D02*
X9962120Y-8386840D01*
X10025412Y-8536690D02*
X10055412Y-8566690D01*
X10055412Y-8536690D02*
X10025412Y-8566690D01*
X10050920Y-7717210D02*
X10080920Y-7747210D01*
X10080920Y-7717210D02*
X10050920Y-7747210D01*
X10470120Y-8255240D02*
X10500120Y-8285240D01*
X10500120Y-8255240D02*
X10470120Y-8285240D01*
X13271790Y-9194110D02*
X13301790Y-9224110D01*
X13301790Y-9194110D02*
X13271790Y-9224110D01*
X13367290Y-7917420D02*
X13397290Y-7947420D01*
X13397290Y-7917420D02*
X13367290Y-7947420D01*
X13424850Y-9192090D02*
X13454850Y-9222090D01*
X13454850Y-9192090D02*
X13424850Y-9222090D01*
X13385000Y-10414000D02*
G75*
G02*
X13285000Y-10414000I-50000J0D01*
G01*
X13285000Y-10414000D02*
G75*
G02*
X13385000Y-10414000I50000J0D01*
G01*
X13385000Y-10668000D02*
G75*
G02*
X13285000Y-10668000I-50000J0D01*
G01*
X13285000Y-10668000D02*
G75*
G02*
X13385000Y-10668000I50000J0D01*
G01*
X13385000Y-10922000D02*
G75*
G02*
X13285000Y-10922000I-50000J0D01*
G01*
X13285000Y-10922000D02*
G75*
G02*
X13385000Y-10922000I50000J0D01*
G01*
D11*
X5592277Y-12251984D02*
X5592277Y-12051984D01*
X5592277Y-12051984D02*
X5639896Y-12051984D01*
X5639896Y-12051984D02*
X5668467Y-12061508D01*
X5668467Y-12061508D02*
X5687515Y-12080555D01*
X5687515Y-12080555D02*
X5697039Y-12099603D01*
X5697039Y-12099603D02*
X5706562Y-12137698D01*
X5706562Y-12137698D02*
X5706562Y-12166269D01*
X5706562Y-12166269D02*
X5697039Y-12204365D01*
X5697039Y-12204365D02*
X5687515Y-12223412D01*
X5687515Y-12223412D02*
X5668467Y-12242460D01*
X5668467Y-12242460D02*
X5639896Y-12251984D01*
X5639896Y-12251984D02*
X5592277Y-12251984D01*
X5792277Y-12251984D02*
X5792277Y-12118650D01*
X5792277Y-12156746D02*
X5801801Y-12137698D01*
X5801801Y-12137698D02*
X5811324Y-12128174D01*
X5811324Y-12128174D02*
X5830372Y-12118650D01*
X5830372Y-12118650D02*
X5849420Y-12118650D01*
X5916086Y-12251984D02*
X5916086Y-12118650D01*
X5916086Y-12051984D02*
X5906562Y-12061508D01*
X5906562Y-12061508D02*
X5916086Y-12071031D01*
X5916086Y-12071031D02*
X5925610Y-12061508D01*
X5925610Y-12061508D02*
X5916086Y-12051984D01*
X5916086Y-12051984D02*
X5916086Y-12071031D01*
X6039896Y-12251984D02*
X6020848Y-12242460D01*
X6020848Y-12242460D02*
X6011324Y-12223412D01*
X6011324Y-12223412D02*
X6011324Y-12051984D01*
X6144658Y-12251984D02*
X6125610Y-12242460D01*
X6125610Y-12242460D02*
X6116086Y-12223412D01*
X6116086Y-12223412D02*
X6116086Y-12051984D01*
X6373229Y-12251984D02*
X6373229Y-12051984D01*
X6373229Y-12051984D02*
X6439896Y-12194841D01*
X6439896Y-12194841D02*
X6506562Y-12051984D01*
X6506562Y-12051984D02*
X6506562Y-12251984D01*
X6687515Y-12251984D02*
X6687515Y-12147222D01*
X6687515Y-12147222D02*
X6677991Y-12128174D01*
X6677991Y-12128174D02*
X6658943Y-12118650D01*
X6658943Y-12118650D02*
X6620848Y-12118650D01*
X6620848Y-12118650D02*
X6601801Y-12128174D01*
X6687515Y-12242460D02*
X6668467Y-12251984D01*
X6668467Y-12251984D02*
X6620848Y-12251984D01*
X6620848Y-12251984D02*
X6601801Y-12242460D01*
X6601801Y-12242460D02*
X6592277Y-12223412D01*
X6592277Y-12223412D02*
X6592277Y-12204365D01*
X6592277Y-12204365D02*
X6601801Y-12185317D01*
X6601801Y-12185317D02*
X6620848Y-12175793D01*
X6620848Y-12175793D02*
X6668467Y-12175793D01*
X6668467Y-12175793D02*
X6687515Y-12166269D01*
X6782753Y-12118650D02*
X6782753Y-12318650D01*
X6782753Y-12128174D02*
X6801801Y-12118650D01*
X6801801Y-12118650D02*
X6839896Y-12118650D01*
X6839896Y-12118650D02*
X6858943Y-12128174D01*
X6858943Y-12128174D02*
X6868467Y-12137698D01*
X6868467Y-12137698D02*
X6877991Y-12156746D01*
X6877991Y-12156746D02*
X6877991Y-12213888D01*
X6877991Y-12213888D02*
X6868467Y-12232936D01*
X6868467Y-12232936D02*
X6858943Y-12242460D01*
X6858943Y-12242460D02*
X6839896Y-12251984D01*
X6839896Y-12251984D02*
X6801801Y-12251984D01*
X6801801Y-12251984D02*
X6782753Y-12242460D01*
X6963705Y-12232936D02*
X6973229Y-12242460D01*
X6973229Y-12242460D02*
X6963705Y-12251984D01*
X6963705Y-12251984D02*
X6954182Y-12242460D01*
X6954182Y-12242460D02*
X6963705Y-12232936D01*
X6963705Y-12232936D02*
X6963705Y-12251984D01*
X6963705Y-12128174D02*
X6973229Y-12137698D01*
X6973229Y-12137698D02*
X6963705Y-12147222D01*
X6963705Y-12147222D02*
X6954182Y-12137698D01*
X6954182Y-12137698D02*
X6963705Y-12128174D01*
X6963705Y-12128174D02*
X6963705Y-12147222D01*
D12*
X5301500Y-12565500D02*
X5331500Y-12595500D01*
X5331500Y-12565500D02*
X5301500Y-12595500D01*
D11*
X5630372Y-12471984D02*
X5649420Y-12471984D01*
X5649420Y-12471984D02*
X5668467Y-12481508D01*
X5668467Y-12481508D02*
X5677991Y-12491031D01*
X5677991Y-12491031D02*
X5687515Y-12510079D01*
X5687515Y-12510079D02*
X5697039Y-12548174D01*
X5697039Y-12548174D02*
X5697039Y-12595793D01*
X5697039Y-12595793D02*
X5687515Y-12633888D01*
X5687515Y-12633888D02*
X5677991Y-12652936D01*
X5677991Y-12652936D02*
X5668467Y-12662460D01*
X5668467Y-12662460D02*
X5649420Y-12671984D01*
X5649420Y-12671984D02*
X5630372Y-12671984D01*
X5630372Y-12671984D02*
X5611324Y-12662460D01*
X5611324Y-12662460D02*
X5601801Y-12652936D01*
X5601801Y-12652936D02*
X5592277Y-12633888D01*
X5592277Y-12633888D02*
X5582753Y-12595793D01*
X5582753Y-12595793D02*
X5582753Y-12548174D01*
X5582753Y-12548174D02*
X5592277Y-12510079D01*
X5592277Y-12510079D02*
X5601801Y-12491031D01*
X5601801Y-12491031D02*
X5611324Y-12481508D01*
X5611324Y-12481508D02*
X5630372Y-12471984D01*
X5782753Y-12652936D02*
X5792277Y-12662460D01*
X5792277Y-12662460D02*
X5782753Y-12671984D01*
X5782753Y-12671984D02*
X5773229Y-12662460D01*
X5773229Y-12662460D02*
X5782753Y-12652936D01*
X5782753Y-12652936D02*
X5782753Y-12671984D01*
X5858943Y-12471984D02*
X5982753Y-12471984D01*
X5982753Y-12471984D02*
X5916086Y-12548174D01*
X5916086Y-12548174D02*
X5944658Y-12548174D01*
X5944658Y-12548174D02*
X5963705Y-12557698D01*
X5963705Y-12557698D02*
X5973229Y-12567222D01*
X5973229Y-12567222D02*
X5982753Y-12586269D01*
X5982753Y-12586269D02*
X5982753Y-12633888D01*
X5982753Y-12633888D02*
X5973229Y-12652936D01*
X5973229Y-12652936D02*
X5963705Y-12662460D01*
X5963705Y-12662460D02*
X5944658Y-12671984D01*
X5944658Y-12671984D02*
X5887515Y-12671984D01*
X5887515Y-12671984D02*
X5868467Y-12662460D01*
X5868467Y-12662460D02*
X5858943Y-12652936D01*
X6106562Y-12471984D02*
X6125610Y-12471984D01*
X6125610Y-12471984D02*
X6144658Y-12481508D01*
X6144658Y-12481508D02*
X6154182Y-12491031D01*
X6154182Y-12491031D02*
X6163705Y-12510079D01*
X6163705Y-12510079D02*
X6173229Y-12548174D01*
X6173229Y-12548174D02*
X6173229Y-12595793D01*
X6173229Y-12595793D02*
X6163705Y-12633888D01*
X6163705Y-12633888D02*
X6154182Y-12652936D01*
X6154182Y-12652936D02*
X6144658Y-12662460D01*
X6144658Y-12662460D02*
X6125610Y-12671984D01*
X6125610Y-12671984D02*
X6106562Y-12671984D01*
X6106562Y-12671984D02*
X6087515Y-12662460D01*
X6087515Y-12662460D02*
X6077991Y-12652936D01*
X6077991Y-12652936D02*
X6068467Y-12633888D01*
X6068467Y-12633888D02*
X6058943Y-12595793D01*
X6058943Y-12595793D02*
X6058943Y-12548174D01*
X6058943Y-12548174D02*
X6068467Y-12510079D01*
X6068467Y-12510079D02*
X6077991Y-12491031D01*
X6077991Y-12491031D02*
X6087515Y-12481508D01*
X6087515Y-12481508D02*
X6106562Y-12471984D01*
X6297039Y-12471984D02*
X6316086Y-12471984D01*
X6316086Y-12471984D02*
X6335134Y-12481508D01*
X6335134Y-12481508D02*
X6344658Y-12491031D01*
X6344658Y-12491031D02*
X6354182Y-12510079D01*
X6354182Y-12510079D02*
X6363705Y-12548174D01*
X6363705Y-12548174D02*
X6363705Y-12595793D01*
X6363705Y-12595793D02*
X6354182Y-12633888D01*
X6354182Y-12633888D02*
X6344658Y-12652936D01*
X6344658Y-12652936D02*
X6335134Y-12662460D01*
X6335134Y-12662460D02*
X6316086Y-12671984D01*
X6316086Y-12671984D02*
X6297039Y-12671984D01*
X6297039Y-12671984D02*
X6277991Y-12662460D01*
X6277991Y-12662460D02*
X6268467Y-12652936D01*
X6268467Y-12652936D02*
X6258943Y-12633888D01*
X6258943Y-12633888D02*
X6249420Y-12595793D01*
X6249420Y-12595793D02*
X6249420Y-12548174D01*
X6249420Y-12548174D02*
X6258943Y-12510079D01*
X6258943Y-12510079D02*
X6268467Y-12491031D01*
X6268467Y-12491031D02*
X6277991Y-12481508D01*
X6277991Y-12481508D02*
X6297039Y-12471984D01*
X6449420Y-12671984D02*
X6449420Y-12538650D01*
X6449420Y-12557698D02*
X6458943Y-12548174D01*
X6458943Y-12548174D02*
X6477991Y-12538650D01*
X6477991Y-12538650D02*
X6506563Y-12538650D01*
X6506563Y-12538650D02*
X6525610Y-12548174D01*
X6525610Y-12548174D02*
X6535134Y-12567222D01*
X6535134Y-12567222D02*
X6535134Y-12671984D01*
X6535134Y-12567222D02*
X6544658Y-12548174D01*
X6544658Y-12548174D02*
X6563705Y-12538650D01*
X6563705Y-12538650D02*
X6592277Y-12538650D01*
X6592277Y-12538650D02*
X6611324Y-12548174D01*
X6611324Y-12548174D02*
X6620848Y-12567222D01*
X6620848Y-12567222D02*
X6620848Y-12671984D01*
X6716086Y-12671984D02*
X6716086Y-12538650D01*
X6716086Y-12557698D02*
X6725610Y-12548174D01*
X6725610Y-12548174D02*
X6744658Y-12538650D01*
X6744658Y-12538650D02*
X6773229Y-12538650D01*
X6773229Y-12538650D02*
X6792277Y-12548174D01*
X6792277Y-12548174D02*
X6801801Y-12567222D01*
X6801801Y-12567222D02*
X6801801Y-12671984D01*
X6801801Y-12567222D02*
X6811324Y-12548174D01*
X6811324Y-12548174D02*
X6830372Y-12538650D01*
X6830372Y-12538650D02*
X6858943Y-12538650D01*
X6858943Y-12538650D02*
X6877991Y-12548174D01*
X6877991Y-12548174D02*
X6887515Y-12567222D01*
X6887515Y-12567222D02*
X6887515Y-12671984D01*
X7277991Y-12462460D02*
X7106563Y-12719603D01*
X7535134Y-12471984D02*
X7554182Y-12471984D01*
X7554182Y-12471984D02*
X7573229Y-12481508D01*
X7573229Y-12481508D02*
X7582753Y-12491031D01*
X7582753Y-12491031D02*
X7592277Y-12510079D01*
X7592277Y-12510079D02*
X7601801Y-12548174D01*
X7601801Y-12548174D02*
X7601801Y-12595793D01*
X7601801Y-12595793D02*
X7592277Y-12633888D01*
X7592277Y-12633888D02*
X7582753Y-12652936D01*
X7582753Y-12652936D02*
X7573229Y-12662460D01*
X7573229Y-12662460D02*
X7554182Y-12671984D01*
X7554182Y-12671984D02*
X7535134Y-12671984D01*
X7535134Y-12671984D02*
X7516086Y-12662460D01*
X7516086Y-12662460D02*
X7506563Y-12652936D01*
X7506563Y-12652936D02*
X7497039Y-12633888D01*
X7497039Y-12633888D02*
X7487515Y-12595793D01*
X7487515Y-12595793D02*
X7487515Y-12548174D01*
X7487515Y-12548174D02*
X7497039Y-12510079D01*
X7497039Y-12510079D02*
X7506563Y-12491031D01*
X7506563Y-12491031D02*
X7516086Y-12481508D01*
X7516086Y-12481508D02*
X7535134Y-12471984D01*
X7687515Y-12652936D02*
X7697039Y-12662460D01*
X7697039Y-12662460D02*
X7687515Y-12671984D01*
X7687515Y-12671984D02*
X7677991Y-12662460D01*
X7677991Y-12662460D02*
X7687515Y-12652936D01*
X7687515Y-12652936D02*
X7687515Y-12671984D01*
X7820848Y-12471984D02*
X7839896Y-12471984D01*
X7839896Y-12471984D02*
X7858944Y-12481508D01*
X7858944Y-12481508D02*
X7868467Y-12491031D01*
X7868467Y-12491031D02*
X7877991Y-12510079D01*
X7877991Y-12510079D02*
X7887515Y-12548174D01*
X7887515Y-12548174D02*
X7887515Y-12595793D01*
X7887515Y-12595793D02*
X7877991Y-12633888D01*
X7877991Y-12633888D02*
X7868467Y-12652936D01*
X7868467Y-12652936D02*
X7858944Y-12662460D01*
X7858944Y-12662460D02*
X7839896Y-12671984D01*
X7839896Y-12671984D02*
X7820848Y-12671984D01*
X7820848Y-12671984D02*
X7801801Y-12662460D01*
X7801801Y-12662460D02*
X7792277Y-12652936D01*
X7792277Y-12652936D02*
X7782753Y-12633888D01*
X7782753Y-12633888D02*
X7773229Y-12595793D01*
X7773229Y-12595793D02*
X7773229Y-12548174D01*
X7773229Y-12548174D02*
X7782753Y-12510079D01*
X7782753Y-12510079D02*
X7792277Y-12491031D01*
X7792277Y-12491031D02*
X7801801Y-12481508D01*
X7801801Y-12481508D02*
X7820848Y-12471984D01*
X8077991Y-12671984D02*
X7963706Y-12671984D01*
X8020848Y-12671984D02*
X8020848Y-12471984D01*
X8020848Y-12471984D02*
X8001801Y-12500555D01*
X8001801Y-12500555D02*
X7982753Y-12519603D01*
X7982753Y-12519603D02*
X7963706Y-12529127D01*
X8268467Y-12671984D02*
X8154182Y-12671984D01*
X8211325Y-12671984D02*
X8211325Y-12471984D01*
X8211325Y-12471984D02*
X8192277Y-12500555D01*
X8192277Y-12500555D02*
X8173229Y-12519603D01*
X8173229Y-12519603D02*
X8154182Y-12529127D01*
X8382753Y-12557698D02*
X8363706Y-12548174D01*
X8363706Y-12548174D02*
X8354182Y-12538650D01*
X8354182Y-12538650D02*
X8344658Y-12519603D01*
X8344658Y-12519603D02*
X8344658Y-12510079D01*
X8344658Y-12510079D02*
X8354182Y-12491031D01*
X8354182Y-12491031D02*
X8363706Y-12481508D01*
X8363706Y-12481508D02*
X8382753Y-12471984D01*
X8382753Y-12471984D02*
X8420849Y-12471984D01*
X8420849Y-12471984D02*
X8439896Y-12481508D01*
X8439896Y-12481508D02*
X8449420Y-12491031D01*
X8449420Y-12491031D02*
X8458944Y-12510079D01*
X8458944Y-12510079D02*
X8458944Y-12519603D01*
X8458944Y-12519603D02*
X8449420Y-12538650D01*
X8449420Y-12538650D02*
X8439896Y-12548174D01*
X8439896Y-12548174D02*
X8420849Y-12557698D01*
X8420849Y-12557698D02*
X8382753Y-12557698D01*
X8382753Y-12557698D02*
X8363706Y-12567222D01*
X8363706Y-12567222D02*
X8354182Y-12576746D01*
X8354182Y-12576746D02*
X8344658Y-12595793D01*
X8344658Y-12595793D02*
X8344658Y-12633888D01*
X8344658Y-12633888D02*
X8354182Y-12652936D01*
X8354182Y-12652936D02*
X8363706Y-12662460D01*
X8363706Y-12662460D02*
X8382753Y-12671984D01*
X8382753Y-12671984D02*
X8420849Y-12671984D01*
X8420849Y-12671984D02*
X8439896Y-12662460D01*
X8439896Y-12662460D02*
X8449420Y-12652936D01*
X8449420Y-12652936D02*
X8458944Y-12633888D01*
X8458944Y-12633888D02*
X8458944Y-12595793D01*
X8458944Y-12595793D02*
X8449420Y-12576746D01*
X8449420Y-12576746D02*
X8439896Y-12567222D01*
X8439896Y-12567222D02*
X8420849Y-12557698D01*
X8535134Y-12471984D02*
X8535134Y-12510079D01*
X8611325Y-12471984D02*
X8611325Y-12510079D01*
X8906563Y-12748174D02*
X8897039Y-12738650D01*
X8897039Y-12738650D02*
X8877991Y-12710079D01*
X8877991Y-12710079D02*
X8868468Y-12691031D01*
X8868468Y-12691031D02*
X8858944Y-12662460D01*
X8858944Y-12662460D02*
X8849420Y-12614841D01*
X8849420Y-12614841D02*
X8849420Y-12576746D01*
X8849420Y-12576746D02*
X8858944Y-12529127D01*
X8858944Y-12529127D02*
X8868468Y-12500555D01*
X8868468Y-12500555D02*
X8877991Y-12481508D01*
X8877991Y-12481508D02*
X8897039Y-12452936D01*
X8897039Y-12452936D02*
X8906563Y-12443412D01*
X8973230Y-12491031D02*
X8982753Y-12481508D01*
X8982753Y-12481508D02*
X9001801Y-12471984D01*
X9001801Y-12471984D02*
X9049420Y-12471984D01*
X9049420Y-12471984D02*
X9068468Y-12481508D01*
X9068468Y-12481508D02*
X9077991Y-12491031D01*
X9077991Y-12491031D02*
X9087515Y-12510079D01*
X9087515Y-12510079D02*
X9087515Y-12529127D01*
X9087515Y-12529127D02*
X9077991Y-12557698D01*
X9077991Y-12557698D02*
X8963706Y-12671984D01*
X8963706Y-12671984D02*
X9087515Y-12671984D01*
X9258944Y-12471984D02*
X9220849Y-12471984D01*
X9220849Y-12471984D02*
X9201801Y-12481508D01*
X9201801Y-12481508D02*
X9192277Y-12491031D01*
X9192277Y-12491031D02*
X9173230Y-12519603D01*
X9173230Y-12519603D02*
X9163706Y-12557698D01*
X9163706Y-12557698D02*
X9163706Y-12633888D01*
X9163706Y-12633888D02*
X9173230Y-12652936D01*
X9173230Y-12652936D02*
X9182753Y-12662460D01*
X9182753Y-12662460D02*
X9201801Y-12671984D01*
X9201801Y-12671984D02*
X9239896Y-12671984D01*
X9239896Y-12671984D02*
X9258944Y-12662460D01*
X9258944Y-12662460D02*
X9268468Y-12652936D01*
X9268468Y-12652936D02*
X9277991Y-12633888D01*
X9277991Y-12633888D02*
X9277991Y-12586269D01*
X9277991Y-12586269D02*
X9268468Y-12567222D01*
X9268468Y-12567222D02*
X9258944Y-12557698D01*
X9258944Y-12557698D02*
X9239896Y-12548174D01*
X9239896Y-12548174D02*
X9201801Y-12548174D01*
X9201801Y-12548174D02*
X9182753Y-12557698D01*
X9182753Y-12557698D02*
X9173230Y-12567222D01*
X9173230Y-12567222D02*
X9163706Y-12586269D01*
X9516087Y-12671984D02*
X9516087Y-12471984D01*
X9601801Y-12671984D02*
X9601801Y-12567222D01*
X9601801Y-12567222D02*
X9592277Y-12548174D01*
X9592277Y-12548174D02*
X9573230Y-12538650D01*
X9573230Y-12538650D02*
X9544658Y-12538650D01*
X9544658Y-12538650D02*
X9525611Y-12548174D01*
X9525611Y-12548174D02*
X9516087Y-12557698D01*
X9725611Y-12671984D02*
X9706563Y-12662460D01*
X9706563Y-12662460D02*
X9697039Y-12652936D01*
X9697039Y-12652936D02*
X9687515Y-12633888D01*
X9687515Y-12633888D02*
X9687515Y-12576746D01*
X9687515Y-12576746D02*
X9697039Y-12557698D01*
X9697039Y-12557698D02*
X9706563Y-12548174D01*
X9706563Y-12548174D02*
X9725611Y-12538650D01*
X9725611Y-12538650D02*
X9754182Y-12538650D01*
X9754182Y-12538650D02*
X9773230Y-12548174D01*
X9773230Y-12548174D02*
X9782753Y-12557698D01*
X9782753Y-12557698D02*
X9792277Y-12576746D01*
X9792277Y-12576746D02*
X9792277Y-12633888D01*
X9792277Y-12633888D02*
X9782753Y-12652936D01*
X9782753Y-12652936D02*
X9773230Y-12662460D01*
X9773230Y-12662460D02*
X9754182Y-12671984D01*
X9754182Y-12671984D02*
X9725611Y-12671984D01*
X9906563Y-12671984D02*
X9887515Y-12662460D01*
X9887515Y-12662460D02*
X9877992Y-12643412D01*
X9877992Y-12643412D02*
X9877992Y-12471984D01*
X10058944Y-12662460D02*
X10039896Y-12671984D01*
X10039896Y-12671984D02*
X10001801Y-12671984D01*
X10001801Y-12671984D02*
X9982753Y-12662460D01*
X9982753Y-12662460D02*
X9973230Y-12643412D01*
X9973230Y-12643412D02*
X9973230Y-12567222D01*
X9973230Y-12567222D02*
X9982753Y-12548174D01*
X9982753Y-12548174D02*
X10001801Y-12538650D01*
X10001801Y-12538650D02*
X10039896Y-12538650D01*
X10039896Y-12538650D02*
X10058944Y-12548174D01*
X10058944Y-12548174D02*
X10068468Y-12567222D01*
X10068468Y-12567222D02*
X10068468Y-12586269D01*
X10068468Y-12586269D02*
X9973230Y-12605317D01*
X10144658Y-12662460D02*
X10163706Y-12671984D01*
X10163706Y-12671984D02*
X10201801Y-12671984D01*
X10201801Y-12671984D02*
X10220849Y-12662460D01*
X10220849Y-12662460D02*
X10230373Y-12643412D01*
X10230373Y-12643412D02*
X10230373Y-12633888D01*
X10230373Y-12633888D02*
X10220849Y-12614841D01*
X10220849Y-12614841D02*
X10201801Y-12605317D01*
X10201801Y-12605317D02*
X10173230Y-12605317D01*
X10173230Y-12605317D02*
X10154182Y-12595793D01*
X10154182Y-12595793D02*
X10144658Y-12576746D01*
X10144658Y-12576746D02*
X10144658Y-12567222D01*
X10144658Y-12567222D02*
X10154182Y-12548174D01*
X10154182Y-12548174D02*
X10173230Y-12538650D01*
X10173230Y-12538650D02*
X10201801Y-12538650D01*
X10201801Y-12538650D02*
X10220849Y-12548174D01*
X10297039Y-12748174D02*
X10306563Y-12738650D01*
X10306563Y-12738650D02*
X10325611Y-12710079D01*
X10325611Y-12710079D02*
X10335134Y-12691031D01*
X10335134Y-12691031D02*
X10344658Y-12662460D01*
X10344658Y-12662460D02*
X10354182Y-12614841D01*
X10354182Y-12614841D02*
X10354182Y-12576746D01*
X10354182Y-12576746D02*
X10344658Y-12529127D01*
X10344658Y-12529127D02*
X10335134Y-12500555D01*
X10335134Y-12500555D02*
X10325611Y-12481508D01*
X10325611Y-12481508D02*
X10306563Y-12452936D01*
X10306563Y-12452936D02*
X10297039Y-12443412D01*
D12*
X5331500Y-12844500D02*
G75*
G02*
X5231500Y-12844500I-50000J0D01*
G01*
X5231500Y-12844500D02*
G75*
G02*
X5331500Y-12844500I50000J0D01*
G01*
D11*
X5697039Y-12935984D02*
X5582753Y-12935984D01*
X5639896Y-12935984D02*
X5639896Y-12735984D01*
X5639896Y-12735984D02*
X5620848Y-12764555D01*
X5620848Y-12764555D02*
X5601801Y-12783603D01*
X5601801Y-12783603D02*
X5582753Y-12793127D01*
X5782753Y-12916936D02*
X5792277Y-12926460D01*
X5792277Y-12926460D02*
X5782753Y-12935984D01*
X5782753Y-12935984D02*
X5773229Y-12926460D01*
X5773229Y-12926460D02*
X5782753Y-12916936D01*
X5782753Y-12916936D02*
X5782753Y-12935984D01*
X5916086Y-12735984D02*
X5935134Y-12735984D01*
X5935134Y-12735984D02*
X5954182Y-12745508D01*
X5954182Y-12745508D02*
X5963705Y-12755031D01*
X5963705Y-12755031D02*
X5973229Y-12774079D01*
X5973229Y-12774079D02*
X5982753Y-12812174D01*
X5982753Y-12812174D02*
X5982753Y-12859793D01*
X5982753Y-12859793D02*
X5973229Y-12897888D01*
X5973229Y-12897888D02*
X5963705Y-12916936D01*
X5963705Y-12916936D02*
X5954182Y-12926460D01*
X5954182Y-12926460D02*
X5935134Y-12935984D01*
X5935134Y-12935984D02*
X5916086Y-12935984D01*
X5916086Y-12935984D02*
X5897039Y-12926460D01*
X5897039Y-12926460D02*
X5887515Y-12916936D01*
X5887515Y-12916936D02*
X5877991Y-12897888D01*
X5877991Y-12897888D02*
X5868467Y-12859793D01*
X5868467Y-12859793D02*
X5868467Y-12812174D01*
X5868467Y-12812174D02*
X5877991Y-12774079D01*
X5877991Y-12774079D02*
X5887515Y-12755031D01*
X5887515Y-12755031D02*
X5897039Y-12745508D01*
X5897039Y-12745508D02*
X5916086Y-12735984D01*
X6106562Y-12735984D02*
X6125610Y-12735984D01*
X6125610Y-12735984D02*
X6144658Y-12745508D01*
X6144658Y-12745508D02*
X6154182Y-12755031D01*
X6154182Y-12755031D02*
X6163705Y-12774079D01*
X6163705Y-12774079D02*
X6173229Y-12812174D01*
X6173229Y-12812174D02*
X6173229Y-12859793D01*
X6173229Y-12859793D02*
X6163705Y-12897888D01*
X6163705Y-12897888D02*
X6154182Y-12916936D01*
X6154182Y-12916936D02*
X6144658Y-12926460D01*
X6144658Y-12926460D02*
X6125610Y-12935984D01*
X6125610Y-12935984D02*
X6106562Y-12935984D01*
X6106562Y-12935984D02*
X6087515Y-12926460D01*
X6087515Y-12926460D02*
X6077991Y-12916936D01*
X6077991Y-12916936D02*
X6068467Y-12897888D01*
X6068467Y-12897888D02*
X6058943Y-12859793D01*
X6058943Y-12859793D02*
X6058943Y-12812174D01*
X6058943Y-12812174D02*
X6068467Y-12774079D01*
X6068467Y-12774079D02*
X6077991Y-12755031D01*
X6077991Y-12755031D02*
X6087515Y-12745508D01*
X6087515Y-12745508D02*
X6106562Y-12735984D01*
X6297039Y-12735984D02*
X6316086Y-12735984D01*
X6316086Y-12735984D02*
X6335134Y-12745508D01*
X6335134Y-12745508D02*
X6344658Y-12755031D01*
X6344658Y-12755031D02*
X6354182Y-12774079D01*
X6354182Y-12774079D02*
X6363705Y-12812174D01*
X6363705Y-12812174D02*
X6363705Y-12859793D01*
X6363705Y-12859793D02*
X6354182Y-12897888D01*
X6354182Y-12897888D02*
X6344658Y-12916936D01*
X6344658Y-12916936D02*
X6335134Y-12926460D01*
X6335134Y-12926460D02*
X6316086Y-12935984D01*
X6316086Y-12935984D02*
X6297039Y-12935984D01*
X6297039Y-12935984D02*
X6277991Y-12926460D01*
X6277991Y-12926460D02*
X6268467Y-12916936D01*
X6268467Y-12916936D02*
X6258943Y-12897888D01*
X6258943Y-12897888D02*
X6249420Y-12859793D01*
X6249420Y-12859793D02*
X6249420Y-12812174D01*
X6249420Y-12812174D02*
X6258943Y-12774079D01*
X6258943Y-12774079D02*
X6268467Y-12755031D01*
X6268467Y-12755031D02*
X6277991Y-12745508D01*
X6277991Y-12745508D02*
X6297039Y-12735984D01*
X6449420Y-12935984D02*
X6449420Y-12802650D01*
X6449420Y-12821698D02*
X6458943Y-12812174D01*
X6458943Y-12812174D02*
X6477991Y-12802650D01*
X6477991Y-12802650D02*
X6506563Y-12802650D01*
X6506563Y-12802650D02*
X6525610Y-12812174D01*
X6525610Y-12812174D02*
X6535134Y-12831222D01*
X6535134Y-12831222D02*
X6535134Y-12935984D01*
X6535134Y-12831222D02*
X6544658Y-12812174D01*
X6544658Y-12812174D02*
X6563705Y-12802650D01*
X6563705Y-12802650D02*
X6592277Y-12802650D01*
X6592277Y-12802650D02*
X6611324Y-12812174D01*
X6611324Y-12812174D02*
X6620848Y-12831222D01*
X6620848Y-12831222D02*
X6620848Y-12935984D01*
X6716086Y-12935984D02*
X6716086Y-12802650D01*
X6716086Y-12821698D02*
X6725610Y-12812174D01*
X6725610Y-12812174D02*
X6744658Y-12802650D01*
X6744658Y-12802650D02*
X6773229Y-12802650D01*
X6773229Y-12802650D02*
X6792277Y-12812174D01*
X6792277Y-12812174D02*
X6801801Y-12831222D01*
X6801801Y-12831222D02*
X6801801Y-12935984D01*
X6801801Y-12831222D02*
X6811324Y-12812174D01*
X6811324Y-12812174D02*
X6830372Y-12802650D01*
X6830372Y-12802650D02*
X6858943Y-12802650D01*
X6858943Y-12802650D02*
X6877991Y-12812174D01*
X6877991Y-12812174D02*
X6887515Y-12831222D01*
X6887515Y-12831222D02*
X6887515Y-12935984D01*
X7277991Y-12726460D02*
X7106563Y-12983603D01*
X7535134Y-12735984D02*
X7554182Y-12735984D01*
X7554182Y-12735984D02*
X7573229Y-12745508D01*
X7573229Y-12745508D02*
X7582753Y-12755031D01*
X7582753Y-12755031D02*
X7592277Y-12774079D01*
X7592277Y-12774079D02*
X7601801Y-12812174D01*
X7601801Y-12812174D02*
X7601801Y-12859793D01*
X7601801Y-12859793D02*
X7592277Y-12897888D01*
X7592277Y-12897888D02*
X7582753Y-12916936D01*
X7582753Y-12916936D02*
X7573229Y-12926460D01*
X7573229Y-12926460D02*
X7554182Y-12935984D01*
X7554182Y-12935984D02*
X7535134Y-12935984D01*
X7535134Y-12935984D02*
X7516086Y-12926460D01*
X7516086Y-12926460D02*
X7506563Y-12916936D01*
X7506563Y-12916936D02*
X7497039Y-12897888D01*
X7497039Y-12897888D02*
X7487515Y-12859793D01*
X7487515Y-12859793D02*
X7487515Y-12812174D01*
X7487515Y-12812174D02*
X7497039Y-12774079D01*
X7497039Y-12774079D02*
X7506563Y-12755031D01*
X7506563Y-12755031D02*
X7516086Y-12745508D01*
X7516086Y-12745508D02*
X7535134Y-12735984D01*
X7687515Y-12916936D02*
X7697039Y-12926460D01*
X7697039Y-12926460D02*
X7687515Y-12935984D01*
X7687515Y-12935984D02*
X7677991Y-12926460D01*
X7677991Y-12926460D02*
X7687515Y-12916936D01*
X7687515Y-12916936D02*
X7687515Y-12935984D01*
X7820848Y-12735984D02*
X7839896Y-12735984D01*
X7839896Y-12735984D02*
X7858944Y-12745508D01*
X7858944Y-12745508D02*
X7868467Y-12755031D01*
X7868467Y-12755031D02*
X7877991Y-12774079D01*
X7877991Y-12774079D02*
X7887515Y-12812174D01*
X7887515Y-12812174D02*
X7887515Y-12859793D01*
X7887515Y-12859793D02*
X7877991Y-12897888D01*
X7877991Y-12897888D02*
X7868467Y-12916936D01*
X7868467Y-12916936D02*
X7858944Y-12926460D01*
X7858944Y-12926460D02*
X7839896Y-12935984D01*
X7839896Y-12935984D02*
X7820848Y-12935984D01*
X7820848Y-12935984D02*
X7801801Y-12926460D01*
X7801801Y-12926460D02*
X7792277Y-12916936D01*
X7792277Y-12916936D02*
X7782753Y-12897888D01*
X7782753Y-12897888D02*
X7773229Y-12859793D01*
X7773229Y-12859793D02*
X7773229Y-12812174D01*
X7773229Y-12812174D02*
X7782753Y-12774079D01*
X7782753Y-12774079D02*
X7792277Y-12755031D01*
X7792277Y-12755031D02*
X7801801Y-12745508D01*
X7801801Y-12745508D02*
X7820848Y-12735984D01*
X7954182Y-12735984D02*
X8077991Y-12735984D01*
X8077991Y-12735984D02*
X8011325Y-12812174D01*
X8011325Y-12812174D02*
X8039896Y-12812174D01*
X8039896Y-12812174D02*
X8058944Y-12821698D01*
X8058944Y-12821698D02*
X8068467Y-12831222D01*
X8068467Y-12831222D02*
X8077991Y-12850269D01*
X8077991Y-12850269D02*
X8077991Y-12897888D01*
X8077991Y-12897888D02*
X8068467Y-12916936D01*
X8068467Y-12916936D02*
X8058944Y-12926460D01*
X8058944Y-12926460D02*
X8039896Y-12935984D01*
X8039896Y-12935984D02*
X7982753Y-12935984D01*
X7982753Y-12935984D02*
X7963706Y-12926460D01*
X7963706Y-12926460D02*
X7954182Y-12916936D01*
X8173229Y-12935984D02*
X8211325Y-12935984D01*
X8211325Y-12935984D02*
X8230372Y-12926460D01*
X8230372Y-12926460D02*
X8239896Y-12916936D01*
X8239896Y-12916936D02*
X8258944Y-12888365D01*
X8258944Y-12888365D02*
X8268467Y-12850269D01*
X8268467Y-12850269D02*
X8268467Y-12774079D01*
X8268467Y-12774079D02*
X8258944Y-12755031D01*
X8258944Y-12755031D02*
X8249420Y-12745508D01*
X8249420Y-12745508D02*
X8230372Y-12735984D01*
X8230372Y-12735984D02*
X8192277Y-12735984D01*
X8192277Y-12735984D02*
X8173229Y-12745508D01*
X8173229Y-12745508D02*
X8163706Y-12755031D01*
X8163706Y-12755031D02*
X8154182Y-12774079D01*
X8154182Y-12774079D02*
X8154182Y-12821698D01*
X8154182Y-12821698D02*
X8163706Y-12840746D01*
X8163706Y-12840746D02*
X8173229Y-12850269D01*
X8173229Y-12850269D02*
X8192277Y-12859793D01*
X8192277Y-12859793D02*
X8230372Y-12859793D01*
X8230372Y-12859793D02*
X8249420Y-12850269D01*
X8249420Y-12850269D02*
X8258944Y-12840746D01*
X8258944Y-12840746D02*
X8268467Y-12821698D01*
X8439896Y-12802650D02*
X8439896Y-12935984D01*
X8392277Y-12726460D02*
X8344658Y-12869317D01*
X8344658Y-12869317D02*
X8468468Y-12869317D01*
X8535134Y-12735984D02*
X8535134Y-12774079D01*
X8611325Y-12735984D02*
X8611325Y-12774079D01*
X8906563Y-13012174D02*
X8897039Y-13002650D01*
X8897039Y-13002650D02*
X8877991Y-12974079D01*
X8877991Y-12974079D02*
X8868468Y-12955031D01*
X8868468Y-12955031D02*
X8858944Y-12926460D01*
X8858944Y-12926460D02*
X8849420Y-12878841D01*
X8849420Y-12878841D02*
X8849420Y-12840746D01*
X8849420Y-12840746D02*
X8858944Y-12793127D01*
X8858944Y-12793127D02*
X8868468Y-12764555D01*
X8868468Y-12764555D02*
X8877991Y-12745508D01*
X8877991Y-12745508D02*
X8897039Y-12716936D01*
X8897039Y-12716936D02*
X8906563Y-12707412D01*
X8963706Y-12735984D02*
X9087515Y-12735984D01*
X9087515Y-12735984D02*
X9020849Y-12812174D01*
X9020849Y-12812174D02*
X9049420Y-12812174D01*
X9049420Y-12812174D02*
X9068468Y-12821698D01*
X9068468Y-12821698D02*
X9077991Y-12831222D01*
X9077991Y-12831222D02*
X9087515Y-12850269D01*
X9087515Y-12850269D02*
X9087515Y-12897888D01*
X9087515Y-12897888D02*
X9077991Y-12916936D01*
X9077991Y-12916936D02*
X9068468Y-12926460D01*
X9068468Y-12926460D02*
X9049420Y-12935984D01*
X9049420Y-12935984D02*
X8992277Y-12935984D01*
X8992277Y-12935984D02*
X8973230Y-12926460D01*
X8973230Y-12926460D02*
X8963706Y-12916936D01*
X9325611Y-12935984D02*
X9325611Y-12735984D01*
X9411325Y-12935984D02*
X9411325Y-12831222D01*
X9411325Y-12831222D02*
X9401801Y-12812174D01*
X9401801Y-12812174D02*
X9382753Y-12802650D01*
X9382753Y-12802650D02*
X9354182Y-12802650D01*
X9354182Y-12802650D02*
X9335134Y-12812174D01*
X9335134Y-12812174D02*
X9325611Y-12821698D01*
X9535134Y-12935984D02*
X9516087Y-12926460D01*
X9516087Y-12926460D02*
X9506563Y-12916936D01*
X9506563Y-12916936D02*
X9497039Y-12897888D01*
X9497039Y-12897888D02*
X9497039Y-12840746D01*
X9497039Y-12840746D02*
X9506563Y-12821698D01*
X9506563Y-12821698D02*
X9516087Y-12812174D01*
X9516087Y-12812174D02*
X9535134Y-12802650D01*
X9535134Y-12802650D02*
X9563706Y-12802650D01*
X9563706Y-12802650D02*
X9582753Y-12812174D01*
X9582753Y-12812174D02*
X9592277Y-12821698D01*
X9592277Y-12821698D02*
X9601801Y-12840746D01*
X9601801Y-12840746D02*
X9601801Y-12897888D01*
X9601801Y-12897888D02*
X9592277Y-12916936D01*
X9592277Y-12916936D02*
X9582753Y-12926460D01*
X9582753Y-12926460D02*
X9563706Y-12935984D01*
X9563706Y-12935984D02*
X9535134Y-12935984D01*
X9716087Y-12935984D02*
X9697039Y-12926460D01*
X9697039Y-12926460D02*
X9687515Y-12907412D01*
X9687515Y-12907412D02*
X9687515Y-12735984D01*
X9868468Y-12926460D02*
X9849420Y-12935984D01*
X9849420Y-12935984D02*
X9811325Y-12935984D01*
X9811325Y-12935984D02*
X9792277Y-12926460D01*
X9792277Y-12926460D02*
X9782753Y-12907412D01*
X9782753Y-12907412D02*
X9782753Y-12831222D01*
X9782753Y-12831222D02*
X9792277Y-12812174D01*
X9792277Y-12812174D02*
X9811325Y-12802650D01*
X9811325Y-12802650D02*
X9849420Y-12802650D01*
X9849420Y-12802650D02*
X9868468Y-12812174D01*
X9868468Y-12812174D02*
X9877992Y-12831222D01*
X9877992Y-12831222D02*
X9877992Y-12850269D01*
X9877992Y-12850269D02*
X9782753Y-12869317D01*
X9954182Y-12926460D02*
X9973230Y-12935984D01*
X9973230Y-12935984D02*
X10011325Y-12935984D01*
X10011325Y-12935984D02*
X10030373Y-12926460D01*
X10030373Y-12926460D02*
X10039896Y-12907412D01*
X10039896Y-12907412D02*
X10039896Y-12897888D01*
X10039896Y-12897888D02*
X10030373Y-12878841D01*
X10030373Y-12878841D02*
X10011325Y-12869317D01*
X10011325Y-12869317D02*
X9982753Y-12869317D01*
X9982753Y-12869317D02*
X9963706Y-12859793D01*
X9963706Y-12859793D02*
X9954182Y-12840746D01*
X9954182Y-12840746D02*
X9954182Y-12831222D01*
X9954182Y-12831222D02*
X9963706Y-12812174D01*
X9963706Y-12812174D02*
X9982753Y-12802650D01*
X9982753Y-12802650D02*
X10011325Y-12802650D01*
X10011325Y-12802650D02*
X10030373Y-12812174D01*
X10106563Y-13012174D02*
X10116087Y-13002650D01*
X10116087Y-13002650D02*
X10135134Y-12974079D01*
X10135134Y-12974079D02*
X10144658Y-12955031D01*
X10144658Y-12955031D02*
X10154182Y-12926460D01*
X10154182Y-12926460D02*
X10163706Y-12878841D01*
X10163706Y-12878841D02*
X10163706Y-12840746D01*
X10163706Y-12840746D02*
X10154182Y-12793127D01*
X10154182Y-12793127D02*
X10144658Y-12764555D01*
X10144658Y-12764555D02*
X10135134Y-12745508D01*
X10135134Y-12745508D02*
X10116087Y-12716936D01*
X10116087Y-12716936D02*
X10106563Y-12707412D01*
M02*
