G04 #@! TF.GenerationSoftware,KiCad,Pcbnew,9.0.3*
G04 #@! TF.CreationDate,2025-08-18T11:47:16+01:00*
G04 #@! TF.ProjectId,tester_pcb_business_card,74657374-6572-45f7-9063-625f62757369,rev?*
G04 #@! TF.SameCoordinates,Original*
G04 #@! TF.FileFunction,Copper,L2,Bot*
G04 #@! TF.FilePolarity,Positive*
%FSLAX46Y46*%
G04 Gerber Fmt 4.6, Leading zero omitted, Abs format (unit mm)*
G04 Created by KiCad (PCBNEW 9.0.3) date 2025-08-18 11:47:16*
%MOMM*%
%LPD*%
G01*
G04 APERTURE LIST*
G04 #@! TA.AperFunction,ComponentPad*
%ADD10R,1.700000X1.700000*%
G04 #@! TD*
G04 #@! TA.AperFunction,ComponentPad*
%ADD11C,1.700000*%
G04 #@! TD*
G04 #@! TA.AperFunction,ViaPad*
%ADD12C,0.600000*%
G04 #@! TD*
G04 #@! TA.AperFunction,Conductor*
%ADD13C,0.200000*%
G04 #@! TD*
G04 APERTURE END LIST*
D10*
X133350000Y-109220000D03*
D11*
X133350000Y-106680000D03*
X133350000Y-104140000D03*
D12*
X90831533Y-87667200D03*
X99771200Y-83718400D03*
X104851200Y-82702400D03*
X94796620Y-88389200D03*
X94335600Y-85039200D03*
X94420800Y-113125000D03*
X92128200Y-87273200D03*
X93048700Y-111310000D03*
X87759800Y-111591500D03*
X90086700Y-85133900D03*
X80495400Y-110465000D03*
X96250100Y-83529100D03*
X89456300Y-75734800D03*
X95602592Y-88326196D03*
X80575100Y-74427300D03*
X98165400Y-79097500D03*
X98148200Y-75734800D03*
X96538200Y-72962600D03*
X98711900Y-84039500D03*
X100659200Y-77322100D03*
X100404123Y-85516900D03*
X134398500Y-92070900D03*
X96705464Y-87894664D03*
X132867900Y-92091100D03*
X133822900Y-79324200D03*
X89357200Y-85547200D03*
D13*
X129906850Y-105754350D02*
X130832500Y-106680000D01*
X129906850Y-105754350D02*
X130018500Y-105866000D01*
X130832500Y-106680000D02*
X133350000Y-106680000D01*
X85978600Y-110465000D02*
X80495400Y-110465000D01*
X89357200Y-107086400D02*
X85978600Y-110465000D01*
X89357200Y-85547200D02*
X89357200Y-107086400D01*
X95015596Y-87739200D02*
X95602592Y-88326196D01*
X80992000Y-74427300D02*
X94303900Y-87739200D01*
X80575100Y-74427300D02*
X80992000Y-74427300D01*
X99217200Y-88438000D02*
X98450400Y-89204800D01*
X94303900Y-87739200D02*
X95015596Y-87739200D01*
X99218316Y-88438000D02*
X99217200Y-88438000D01*
X99877200Y-87779116D02*
X99218316Y-88438000D01*
X104851200Y-82804000D02*
X99877200Y-87778000D01*
X104851200Y-82702400D02*
X104851200Y-82804000D01*
X95612220Y-89204800D02*
X94796620Y-88389200D01*
X90545800Y-109601400D02*
X90545800Y-87952933D01*
X94069400Y-113125000D02*
X90545800Y-109601400D01*
X94420800Y-113125000D02*
X94069400Y-113125000D01*
X90545800Y-87952933D02*
X90831533Y-87667200D01*
X98450400Y-89204800D02*
X95612220Y-89204800D01*
X99877200Y-87778000D02*
X99877200Y-87779116D01*
X99771200Y-87122000D02*
X99771200Y-83718400D01*
X98815200Y-88078000D02*
X99771200Y-87122000D01*
X96888800Y-88078000D02*
X98815200Y-88078000D01*
X100659200Y-85261823D02*
X100404123Y-85516900D01*
X100659200Y-77322100D02*
X100659200Y-85261823D01*
X96888800Y-88078000D02*
X96705464Y-87894664D01*
X94335600Y-80614100D02*
X89456300Y-75734800D01*
X94335600Y-85039200D02*
X94335600Y-80614100D01*
X92330100Y-110591400D02*
X93048700Y-111310000D01*
X92330100Y-87475000D02*
X92330100Y-110591400D01*
X92330000Y-87475000D02*
X92330100Y-87475000D01*
X92128200Y-87273200D02*
X92330000Y-87475000D01*
X93048700Y-111310000D02*
X92979700Y-111241000D01*
X92979700Y-111241000D02*
X93048700Y-111310000D01*
X90086700Y-109264600D02*
X87759800Y-111591500D01*
X90086700Y-85133900D02*
X90086700Y-109264600D01*
X100857900Y-76705400D02*
X129906850Y-105754350D01*
X100445300Y-76705400D02*
X100857900Y-76705400D01*
X99986000Y-77164700D02*
X100445300Y-76705400D01*
X99986000Y-79793200D02*
X99986000Y-77164700D01*
X96250100Y-83529100D02*
X99986000Y-79793200D01*
X98165400Y-75752000D02*
X98165400Y-79097500D01*
X98148200Y-75734800D02*
X98165400Y-75752000D01*
X98627600Y-84123800D02*
X98711900Y-84039500D01*
X96018800Y-84123800D02*
X98627600Y-84123800D01*
X95657200Y-83762200D02*
X96018800Y-84123800D01*
X95657200Y-73843600D02*
X95657200Y-83762200D01*
X96538200Y-72962600D02*
X95657200Y-73843600D01*
X134966700Y-92639100D02*
X134398500Y-92070900D01*
X134966700Y-102523300D02*
X134966700Y-92639100D01*
X133350000Y-104140000D02*
X134966700Y-102523300D01*
X132867900Y-80279200D02*
X133822900Y-79324200D01*
X132867900Y-92091100D02*
X132867900Y-80279200D01*
G04 #@! TA.AperFunction,Conductor*
G36*
X132082702Y-66540618D02*
G01*
X132095819Y-66541190D01*
X132473742Y-66557690D01*
X132484477Y-66558630D01*
X132869859Y-66609366D01*
X132880493Y-66611241D01*
X133259990Y-66695374D01*
X133270416Y-66698168D01*
X133641135Y-66815055D01*
X133651270Y-66818744D01*
X134010387Y-66967495D01*
X134020178Y-66972061D01*
X134364942Y-67151534D01*
X134374309Y-67156941D01*
X134644434Y-67329030D01*
X134702130Y-67365786D01*
X134710991Y-67371991D01*
X135019353Y-67608605D01*
X135027640Y-67615559D01*
X135314204Y-67878146D01*
X135321853Y-67885795D01*
X135584440Y-68172359D01*
X135591394Y-68180646D01*
X135828008Y-68489008D01*
X135834213Y-68497869D01*
X136043057Y-68825689D01*
X136048465Y-68835057D01*
X136227935Y-69179814D01*
X136232507Y-69189618D01*
X136381249Y-69548714D01*
X136384949Y-69558879D01*
X136501828Y-69929572D01*
X136504628Y-69940021D01*
X136588756Y-70319498D01*
X136590634Y-70330151D01*
X136641367Y-70715499D01*
X136642310Y-70726276D01*
X136659382Y-71117297D01*
X136659500Y-71122706D01*
X136659500Y-114297293D01*
X136659382Y-114302702D01*
X136642310Y-114693723D01*
X136641367Y-114704500D01*
X136590634Y-115089848D01*
X136588756Y-115100501D01*
X136504628Y-115479978D01*
X136501828Y-115490427D01*
X136384949Y-115861120D01*
X136381249Y-115871285D01*
X136232507Y-116230381D01*
X136227935Y-116240185D01*
X136048465Y-116584942D01*
X136043057Y-116594310D01*
X135834213Y-116922130D01*
X135828008Y-116930991D01*
X135591394Y-117239353D01*
X135584440Y-117247640D01*
X135321853Y-117534204D01*
X135314204Y-117541853D01*
X135027640Y-117804440D01*
X135019353Y-117811394D01*
X134710991Y-118048008D01*
X134702130Y-118054213D01*
X134374310Y-118263057D01*
X134364942Y-118268465D01*
X134020185Y-118447935D01*
X134010381Y-118452507D01*
X133651285Y-118601249D01*
X133641120Y-118604949D01*
X133270427Y-118721828D01*
X133259978Y-118724628D01*
X132880501Y-118808756D01*
X132869848Y-118810634D01*
X132484500Y-118861367D01*
X132473723Y-118862310D01*
X132082703Y-118879382D01*
X132077294Y-118879500D01*
X58422706Y-118879500D01*
X58417297Y-118879382D01*
X58026276Y-118862310D01*
X58015501Y-118861367D01*
X57926792Y-118849688D01*
X57630151Y-118810634D01*
X57619498Y-118808756D01*
X57240021Y-118724628D01*
X57229572Y-118721828D01*
X56858879Y-118604949D01*
X56848714Y-118601249D01*
X56489618Y-118452507D01*
X56479814Y-118447935D01*
X56135057Y-118268465D01*
X56125689Y-118263057D01*
X55797869Y-118054213D01*
X55789008Y-118048008D01*
X55480646Y-117811394D01*
X55472359Y-117804440D01*
X55185795Y-117541853D01*
X55178146Y-117534204D01*
X54915559Y-117247640D01*
X54908605Y-117239353D01*
X54671991Y-116930991D01*
X54665786Y-116922130D01*
X54456942Y-116594310D01*
X54451534Y-116584942D01*
X54272064Y-116240185D01*
X54267492Y-116230381D01*
X54118744Y-115871270D01*
X54115055Y-115861135D01*
X53998168Y-115490416D01*
X53995374Y-115479990D01*
X53911241Y-115100493D01*
X53909365Y-115089848D01*
X53858630Y-114704477D01*
X53857690Y-114693742D01*
X53840618Y-114302701D01*
X53840500Y-114297293D01*
X53840500Y-110386153D01*
X79694900Y-110386153D01*
X79694900Y-110543846D01*
X79725661Y-110698489D01*
X79725664Y-110698501D01*
X79786002Y-110844172D01*
X79786009Y-110844185D01*
X79873610Y-110975288D01*
X79873613Y-110975292D01*
X79985107Y-111086786D01*
X79985111Y-111086789D01*
X80116214Y-111174390D01*
X80116227Y-111174397D01*
X80253250Y-111231153D01*
X80261903Y-111234737D01*
X80416553Y-111265499D01*
X80416556Y-111265500D01*
X80416558Y-111265500D01*
X80574244Y-111265500D01*
X80574245Y-111265499D01*
X80728897Y-111234737D01*
X80874579Y-111174394D01*
X80874585Y-111174390D01*
X81006275Y-111086398D01*
X81072953Y-111065520D01*
X81075166Y-111065500D01*
X85891931Y-111065500D01*
X85891947Y-111065501D01*
X85899543Y-111065501D01*
X86057654Y-111065501D01*
X86057657Y-111065501D01*
X86210385Y-111024577D01*
X86260504Y-110995639D01*
X86347316Y-110945520D01*
X86459120Y-110833716D01*
X86459120Y-110833714D01*
X86469328Y-110823507D01*
X86469329Y-110823504D01*
X89274521Y-108018313D01*
X89335842Y-107984830D01*
X89405534Y-107989814D01*
X89461467Y-108031686D01*
X89485884Y-108097150D01*
X89486200Y-108105996D01*
X89486200Y-108964502D01*
X89466515Y-109031541D01*
X89449881Y-109052183D01*
X87745139Y-110756925D01*
X87683816Y-110790410D01*
X87681650Y-110790861D01*
X87526308Y-110821761D01*
X87526298Y-110821764D01*
X87380627Y-110882102D01*
X87380614Y-110882109D01*
X87249511Y-110969710D01*
X87249507Y-110969713D01*
X87138013Y-111081207D01*
X87138010Y-111081211D01*
X87050409Y-111212314D01*
X87050402Y-111212327D01*
X86990064Y-111357998D01*
X86990061Y-111358010D01*
X86959300Y-111512653D01*
X86959300Y-111670346D01*
X86990061Y-111824989D01*
X86990064Y-111825001D01*
X87050402Y-111970672D01*
X87050409Y-111970685D01*
X87138010Y-112101788D01*
X87138013Y-112101792D01*
X87249507Y-112213286D01*
X87249511Y-112213289D01*
X87380614Y-112300890D01*
X87380627Y-112300897D01*
X87511880Y-112355263D01*
X87526303Y-112361237D01*
X87680953Y-112391999D01*
X87680956Y-112392000D01*
X87680958Y-112392000D01*
X87838644Y-112392000D01*
X87838645Y-112391999D01*
X87993297Y-112361237D01*
X88138979Y-112300894D01*
X88270089Y-112213289D01*
X88381589Y-112101789D01*
X88469194Y-111970679D01*
X88529537Y-111824997D01*
X88548913Y-111727585D01*
X88560438Y-111669650D01*
X88592823Y-111607739D01*
X88594319Y-111606215D01*
X90060170Y-110140363D01*
X90121491Y-110106880D01*
X90191183Y-110111864D01*
X90235530Y-110140365D01*
X93584539Y-113489374D01*
X93584549Y-113489385D01*
X93588879Y-113493715D01*
X93588880Y-113493716D01*
X93700684Y-113605520D01*
X93787495Y-113655639D01*
X93837615Y-113684577D01*
X93838959Y-113684937D01*
X93846965Y-113689495D01*
X93853722Y-113696496D01*
X93873296Y-113709574D01*
X93910507Y-113746786D01*
X93910511Y-113746789D01*
X94041614Y-113834390D01*
X94041627Y-113834397D01*
X94187298Y-113894735D01*
X94187303Y-113894737D01*
X94341953Y-113925499D01*
X94341956Y-113925500D01*
X94341958Y-113925500D01*
X94499644Y-113925500D01*
X94499645Y-113925499D01*
X94654297Y-113894737D01*
X94799979Y-113834394D01*
X94931089Y-113746789D01*
X95042589Y-113635289D01*
X95130194Y-113504179D01*
X95190537Y-113358497D01*
X95221300Y-113203842D01*
X95221300Y-113046158D01*
X95221300Y-113046155D01*
X95221299Y-113046153D01*
X95190538Y-112891510D01*
X95190537Y-112891503D01*
X95190535Y-112891498D01*
X95130197Y-112745827D01*
X95130190Y-112745814D01*
X95042589Y-112614711D01*
X95042586Y-112614707D01*
X94931092Y-112503213D01*
X94931088Y-112503210D01*
X94799985Y-112415609D01*
X94799972Y-112415602D01*
X94654301Y-112355264D01*
X94654289Y-112355261D01*
X94499645Y-112324500D01*
X94499642Y-112324500D01*
X94341958Y-112324500D01*
X94341956Y-112324500D01*
X94220276Y-112348704D01*
X94150684Y-112342477D01*
X94108403Y-112314768D01*
X93719790Y-111926155D01*
X93686305Y-111864832D01*
X93691289Y-111795140D01*
X93704370Y-111769582D01*
X93758089Y-111689187D01*
X93758090Y-111689184D01*
X93758094Y-111689179D01*
X93765897Y-111670342D01*
X93818435Y-111543501D01*
X93818437Y-111543497D01*
X93849200Y-111388842D01*
X93849200Y-111231158D01*
X93849200Y-111231155D01*
X93849199Y-111231153D01*
X93819373Y-111081211D01*
X93818437Y-111076503D01*
X93813880Y-111065501D01*
X93758097Y-110930827D01*
X93758090Y-110930814D01*
X93670489Y-110799711D01*
X93670486Y-110799707D01*
X93558992Y-110688213D01*
X93558988Y-110688210D01*
X93427885Y-110600609D01*
X93427872Y-110600602D01*
X93282201Y-110540264D01*
X93282191Y-110540261D01*
X93126849Y-110509361D01*
X93110092Y-110500595D01*
X93091614Y-110496576D01*
X93066577Y-110477833D01*
X93064938Y-110476976D01*
X93063360Y-110475425D01*
X92966919Y-110378984D01*
X92933434Y-110317661D01*
X92930600Y-110291303D01*
X92930600Y-87514497D01*
X92950285Y-87447458D01*
X93003089Y-87401703D01*
X93072247Y-87391759D01*
X93135803Y-87420784D01*
X93142277Y-87426813D01*
X93935184Y-88219720D01*
X93935186Y-88219721D01*
X93935190Y-88219724D01*
X94072109Y-88298773D01*
X94072116Y-88298777D01*
X94224843Y-88339701D01*
X94224845Y-88339701D01*
X94390554Y-88339701D01*
X94390570Y-88339700D01*
X94687331Y-88339700D01*
X94754370Y-88359385D01*
X94800125Y-88412189D01*
X94808948Y-88439508D01*
X94832853Y-88559687D01*
X94832856Y-88559697D01*
X94893194Y-88705368D01*
X94893201Y-88705381D01*
X94980802Y-88836484D01*
X94980805Y-88836488D01*
X95092299Y-88947982D01*
X95092303Y-88947985D01*
X95223406Y-89035586D01*
X95223419Y-89035593D01*
X95369090Y-89095931D01*
X95369095Y-89095933D01*
X95523745Y-89126695D01*
X95523748Y-89126696D01*
X95523750Y-89126696D01*
X95681436Y-89126696D01*
X95681437Y-89126695D01*
X95836089Y-89095933D01*
X95981771Y-89035590D01*
X96112881Y-88947985D01*
X96224381Y-88836485D01*
X96311573Y-88705991D01*
X96365182Y-88661190D01*
X96434507Y-88652482D01*
X96462121Y-88660322D01*
X96471967Y-88664401D01*
X96626617Y-88695163D01*
X96626620Y-88695164D01*
X96626622Y-88695164D01*
X96784307Y-88695164D01*
X96821434Y-88687778D01*
X96856101Y-88680882D01*
X96880292Y-88678500D01*
X98728531Y-88678500D01*
X98728547Y-88678501D01*
X98736143Y-88678501D01*
X98894254Y-88678501D01*
X98894257Y-88678501D01*
X99046985Y-88637577D01*
X99105041Y-88604058D01*
X99183916Y-88558520D01*
X99295720Y-88446716D01*
X99295720Y-88446714D01*
X99305924Y-88436511D01*
X99305928Y-88436506D01*
X100129706Y-87612728D01*
X100129711Y-87612724D01*
X100139914Y-87602520D01*
X100139916Y-87602520D01*
X100251720Y-87490716D01*
X100310221Y-87389388D01*
X100330777Y-87353785D01*
X100371700Y-87201057D01*
X100371700Y-87042943D01*
X100371700Y-86440745D01*
X100391385Y-86373706D01*
X100444189Y-86327951D01*
X100477089Y-86319085D01*
X100476991Y-86318589D01*
X100563457Y-86301388D01*
X100637620Y-86286637D01*
X100783302Y-86226294D01*
X100914412Y-86138689D01*
X101025912Y-86027189D01*
X101113517Y-85896079D01*
X101173860Y-85750397D01*
X101204623Y-85595742D01*
X101204623Y-85551348D01*
X101217843Y-85502023D01*
X101215665Y-85501121D01*
X101218775Y-85493611D01*
X101218775Y-85493609D01*
X101218777Y-85493607D01*
X101252595Y-85367397D01*
X101259700Y-85340881D01*
X101259700Y-85182766D01*
X101259700Y-78255797D01*
X101279385Y-78188758D01*
X101332189Y-78143003D01*
X101401347Y-78133059D01*
X101464903Y-78162084D01*
X101471381Y-78168116D01*
X129426331Y-106123066D01*
X130463784Y-107160520D01*
X130600715Y-107239577D01*
X130753443Y-107280501D01*
X130753446Y-107280501D01*
X130919154Y-107280501D01*
X130919170Y-107280500D01*
X132064281Y-107280500D01*
X132131320Y-107300185D01*
X132174765Y-107348205D01*
X132194947Y-107387814D01*
X132194948Y-107387815D01*
X132319890Y-107559786D01*
X132433818Y-107673714D01*
X132467303Y-107735037D01*
X132462319Y-107804729D01*
X132420447Y-107860662D01*
X132389471Y-107877577D01*
X132257912Y-107926646D01*
X132257906Y-107926649D01*
X132142812Y-108012809D01*
X132142809Y-108012812D01*
X132056649Y-108127906D01*
X132056645Y-108127913D01*
X132006403Y-108262620D01*
X132006401Y-108262627D01*
X132000000Y-108322155D01*
X132000000Y-108970000D01*
X132916988Y-108970000D01*
X132884075Y-109027007D01*
X132850000Y-109154174D01*
X132850000Y-109285826D01*
X132884075Y-109412993D01*
X132916988Y-109470000D01*
X132000000Y-109470000D01*
X132000000Y-110117844D01*
X132006401Y-110177372D01*
X132006403Y-110177379D01*
X132056645Y-110312086D01*
X132056649Y-110312093D01*
X132142809Y-110427187D01*
X132142812Y-110427190D01*
X132257906Y-110513350D01*
X132257913Y-110513354D01*
X132392620Y-110563596D01*
X132392627Y-110563598D01*
X132452155Y-110569999D01*
X132452172Y-110570000D01*
X133100000Y-110570000D01*
X133100000Y-109653012D01*
X133157007Y-109685925D01*
X133284174Y-109720000D01*
X133415826Y-109720000D01*
X133542993Y-109685925D01*
X133600000Y-109653012D01*
X133600000Y-110570000D01*
X134247828Y-110570000D01*
X134247844Y-110569999D01*
X134307372Y-110563598D01*
X134307379Y-110563596D01*
X134442086Y-110513354D01*
X134442093Y-110513350D01*
X134557187Y-110427190D01*
X134557190Y-110427187D01*
X134643350Y-110312093D01*
X134643354Y-110312086D01*
X134693596Y-110177379D01*
X134693598Y-110177372D01*
X134699999Y-110117844D01*
X134700000Y-110117827D01*
X134700000Y-109470000D01*
X133783012Y-109470000D01*
X133815925Y-109412993D01*
X133850000Y-109285826D01*
X133850000Y-109154174D01*
X133815925Y-109027007D01*
X133783012Y-108970000D01*
X134700000Y-108970000D01*
X134700000Y-108322172D01*
X134699999Y-108322155D01*
X134693598Y-108262627D01*
X134693596Y-108262620D01*
X134643354Y-108127913D01*
X134643350Y-108127906D01*
X134557190Y-108012812D01*
X134557187Y-108012809D01*
X134442093Y-107926649D01*
X134442088Y-107926646D01*
X134310528Y-107877577D01*
X134254595Y-107835705D01*
X134230178Y-107770241D01*
X134245030Y-107701968D01*
X134266175Y-107673720D01*
X134380104Y-107559792D01*
X134505051Y-107387816D01*
X134601557Y-107198412D01*
X134667246Y-106996243D01*
X134700500Y-106786287D01*
X134700500Y-106573713D01*
X134667246Y-106363757D01*
X134601557Y-106161588D01*
X134505051Y-105972184D01*
X134505049Y-105972181D01*
X134505048Y-105972179D01*
X134380109Y-105800213D01*
X134229786Y-105649890D01*
X134057820Y-105524951D01*
X134057115Y-105524591D01*
X134049054Y-105520485D01*
X133998259Y-105472512D01*
X133981463Y-105404692D01*
X134003999Y-105338556D01*
X134049054Y-105299515D01*
X134057816Y-105295051D01*
X134087023Y-105273831D01*
X134229786Y-105170109D01*
X134229788Y-105170106D01*
X134229792Y-105170104D01*
X134380104Y-105019792D01*
X134380106Y-105019788D01*
X134380109Y-105019786D01*
X134505048Y-104847820D01*
X134505047Y-104847820D01*
X134505051Y-104847816D01*
X134601557Y-104658412D01*
X134667246Y-104456243D01*
X134700500Y-104246287D01*
X134700500Y-104033713D01*
X134667246Y-103823757D01*
X134653506Y-103781473D01*
X134651512Y-103711635D01*
X134683755Y-103655478D01*
X135325206Y-103014028D01*
X135325211Y-103014024D01*
X135335414Y-103003820D01*
X135335416Y-103003820D01*
X135447220Y-102892016D01*
X135506407Y-102789500D01*
X135526277Y-102755085D01*
X135567200Y-102602357D01*
X135567200Y-102444243D01*
X135567200Y-92560043D01*
X135526277Y-92407316D01*
X135526277Y-92407315D01*
X135526277Y-92407314D01*
X135497339Y-92357195D01*
X135497337Y-92357192D01*
X135447220Y-92270384D01*
X135335416Y-92158580D01*
X135335415Y-92158579D01*
X135331085Y-92154249D01*
X135331074Y-92154239D01*
X135233074Y-92056239D01*
X135199589Y-91994916D01*
X135199138Y-91992749D01*
X135168238Y-91837410D01*
X135168237Y-91837403D01*
X135116264Y-91711927D01*
X135107897Y-91691727D01*
X135107890Y-91691714D01*
X135020289Y-91560611D01*
X135020286Y-91560607D01*
X134908792Y-91449113D01*
X134908788Y-91449110D01*
X134777685Y-91361509D01*
X134777672Y-91361502D01*
X134632001Y-91301164D01*
X134631989Y-91301161D01*
X134477345Y-91270400D01*
X134477342Y-91270400D01*
X134319658Y-91270400D01*
X134319655Y-91270400D01*
X134165010Y-91301161D01*
X134164998Y-91301164D01*
X134019327Y-91361502D01*
X134019314Y-91361509D01*
X133888211Y-91449110D01*
X133888207Y-91449113D01*
X133776713Y-91560607D01*
X133729553Y-91631187D01*
X133704367Y-91652234D01*
X133679967Y-91674152D01*
X133677701Y-91674519D01*
X133675940Y-91675991D01*
X133643384Y-91680079D01*
X133610997Y-91685328D01*
X133608892Y-91684411D01*
X133606615Y-91684698D01*
X133577014Y-91670535D01*
X133546934Y-91657442D01*
X133544889Y-91655165D01*
X133543588Y-91654543D01*
X133523349Y-91631186D01*
X133489298Y-91580225D01*
X133468420Y-91513547D01*
X133468400Y-91511334D01*
X133468400Y-90899155D01*
X133488085Y-90832116D01*
X133540889Y-90786361D01*
X133610047Y-90776417D01*
X133661290Y-90796052D01*
X133710031Y-90828620D01*
X133832964Y-90879540D01*
X133832968Y-90879540D01*
X133832969Y-90879541D01*
X133963466Y-90905500D01*
X133963469Y-90905500D01*
X134096533Y-90905500D01*
X134184325Y-90888035D01*
X134227036Y-90879540D01*
X134349969Y-90828620D01*
X134460606Y-90754695D01*
X134554695Y-90660606D01*
X134628620Y-90549969D01*
X134679540Y-90427036D01*
X134705500Y-90296531D01*
X134705500Y-90163469D01*
X134705500Y-90163466D01*
X134679541Y-90032969D01*
X134679540Y-90032968D01*
X134679540Y-90032964D01*
X134628620Y-89910031D01*
X134554695Y-89799394D01*
X134554692Y-89799390D01*
X134460609Y-89705307D01*
X134460601Y-89705301D01*
X134349979Y-89631386D01*
X134349972Y-89631382D01*
X134349969Y-89631380D01*
X134349965Y-89631378D01*
X134349961Y-89631376D01*
X134227040Y-89580461D01*
X134227030Y-89580458D01*
X134096533Y-89554500D01*
X134096531Y-89554500D01*
X133963469Y-89554500D01*
X133963467Y-89554500D01*
X133832969Y-89580458D01*
X133832959Y-89580461D01*
X133710038Y-89631376D01*
X133710022Y-89631385D01*
X133661289Y-89663947D01*
X133594612Y-89684824D01*
X133527232Y-89666339D01*
X133480542Y-89614359D01*
X133468400Y-89560844D01*
X133468400Y-80579297D01*
X133488085Y-80512258D01*
X133504719Y-80491616D01*
X133664140Y-80332195D01*
X133837562Y-80158772D01*
X133898883Y-80125289D01*
X133901050Y-80124838D01*
X133958985Y-80113313D01*
X134056397Y-80093937D01*
X134202079Y-80033594D01*
X134333189Y-79945989D01*
X134444689Y-79834489D01*
X134532294Y-79703379D01*
X134592637Y-79557697D01*
X134623400Y-79403042D01*
X134623400Y-79245358D01*
X134623400Y-79245355D01*
X134623399Y-79245353D01*
X134592637Y-79090703D01*
X134592635Y-79090698D01*
X134532297Y-78945027D01*
X134532290Y-78945014D01*
X134444689Y-78813911D01*
X134444686Y-78813907D01*
X134333192Y-78702413D01*
X134333188Y-78702410D01*
X134202085Y-78614809D01*
X134202072Y-78614802D01*
X134056401Y-78554464D01*
X134056389Y-78554461D01*
X133901745Y-78523700D01*
X133901742Y-78523700D01*
X133744058Y-78523700D01*
X133744055Y-78523700D01*
X133589410Y-78554461D01*
X133589398Y-78554464D01*
X133443727Y-78614802D01*
X133443714Y-78614809D01*
X133312611Y-78702410D01*
X133312607Y-78702413D01*
X133201113Y-78813907D01*
X133201110Y-78813911D01*
X133113509Y-78945014D01*
X133113502Y-78945027D01*
X133053164Y-79090698D01*
X133053161Y-79090708D01*
X133022261Y-79246050D01*
X132989876Y-79307961D01*
X132988325Y-79309539D01*
X132387381Y-79910482D01*
X132387375Y-79910490D01*
X132350305Y-79974699D01*
X132350305Y-79974700D01*
X132308323Y-80047415D01*
X132267399Y-80200143D01*
X132267399Y-80200145D01*
X132267399Y-80368246D01*
X132267400Y-80368259D01*
X132267400Y-91511334D01*
X132247715Y-91578373D01*
X132246502Y-91580225D01*
X132158509Y-91711914D01*
X132158502Y-91711927D01*
X132098164Y-91857598D01*
X132098161Y-91857610D01*
X132067400Y-92012253D01*
X132067400Y-92169946D01*
X132098161Y-92324589D01*
X132098164Y-92324601D01*
X132158502Y-92470272D01*
X132158509Y-92470285D01*
X132246110Y-92601388D01*
X132246113Y-92601392D01*
X132357607Y-92712886D01*
X132357611Y-92712889D01*
X132488714Y-92800490D01*
X132488727Y-92800497D01*
X132634398Y-92860835D01*
X132634403Y-92860837D01*
X132751419Y-92884113D01*
X132789053Y-92891599D01*
X132789056Y-92891600D01*
X132789058Y-92891600D01*
X132946744Y-92891600D01*
X132946745Y-92891599D01*
X133101397Y-92860837D01*
X133247079Y-92800494D01*
X133247082Y-92800491D01*
X133247743Y-92800218D01*
X133317212Y-92792749D01*
X133379692Y-92824024D01*
X133415344Y-92884113D01*
X133412850Y-92953938D01*
X133409758Y-92962230D01*
X133380460Y-93032964D01*
X133380458Y-93032969D01*
X133354500Y-93163466D01*
X133354500Y-93163469D01*
X133354500Y-93296531D01*
X133354500Y-93296533D01*
X133354499Y-93296533D01*
X133380458Y-93427030D01*
X133380461Y-93427040D01*
X133431376Y-93549961D01*
X133431386Y-93549979D01*
X133505301Y-93660601D01*
X133505307Y-93660609D01*
X133599390Y-93754692D01*
X133599398Y-93754698D01*
X133710020Y-93828613D01*
X133710023Y-93828614D01*
X133710031Y-93828620D01*
X133832964Y-93879540D01*
X133832968Y-93879540D01*
X133832969Y-93879541D01*
X133963466Y-93905500D01*
X133963469Y-93905500D01*
X134096532Y-93905500D01*
X134218008Y-93881336D01*
X134287599Y-93887563D01*
X134342777Y-93930425D01*
X134366022Y-93996315D01*
X134366200Y-94002953D01*
X134366200Y-102223202D01*
X134346515Y-102290241D01*
X134329881Y-102310883D01*
X133834522Y-102806241D01*
X133773199Y-102839726D01*
X133708523Y-102836491D01*
X133666245Y-102822754D01*
X133526272Y-102800584D01*
X133456287Y-102789500D01*
X133243713Y-102789500D01*
X133195042Y-102797208D01*
X133033760Y-102822753D01*
X132831585Y-102888444D01*
X132642179Y-102984951D01*
X132470213Y-103109890D01*
X132319890Y-103260213D01*
X132194951Y-103432179D01*
X132098444Y-103621585D01*
X132032753Y-103823760D01*
X131999500Y-104033713D01*
X131999500Y-104246286D01*
X132032753Y-104456239D01*
X132098444Y-104658414D01*
X132194951Y-104847820D01*
X132319890Y-105019786D01*
X132470213Y-105170109D01*
X132642182Y-105295050D01*
X132650946Y-105299516D01*
X132701742Y-105347491D01*
X132718536Y-105415312D01*
X132695998Y-105481447D01*
X132650946Y-105520484D01*
X132642182Y-105524949D01*
X132470213Y-105649890D01*
X132319890Y-105800213D01*
X132194948Y-105972184D01*
X132194947Y-105972185D01*
X132174765Y-106011795D01*
X132126791Y-106062591D01*
X132064281Y-106079500D01*
X131132598Y-106079500D01*
X131065559Y-106059815D01*
X131044917Y-106043181D01*
X130275566Y-105273831D01*
X101345490Y-76343755D01*
X101345488Y-76343752D01*
X101226617Y-76224881D01*
X101226616Y-76224880D01*
X101139804Y-76174760D01*
X101139804Y-76174759D01*
X101139800Y-76174758D01*
X101089685Y-76145823D01*
X100936957Y-76104899D01*
X100778843Y-76104899D01*
X100771247Y-76104899D01*
X100771231Y-76104900D01*
X100524357Y-76104900D01*
X100366242Y-76104900D01*
X100213515Y-76145823D01*
X100213514Y-76145823D01*
X100213512Y-76145824D01*
X100213509Y-76145825D01*
X100163396Y-76174759D01*
X100163395Y-76174760D01*
X100119989Y-76199820D01*
X100076585Y-76224879D01*
X100076582Y-76224881D01*
X99505481Y-76795982D01*
X99505479Y-76795985D01*
X99455361Y-76882794D01*
X99455359Y-76882796D01*
X99426425Y-76932909D01*
X99426424Y-76932910D01*
X99426423Y-76932915D01*
X99385499Y-77085643D01*
X99385499Y-77085645D01*
X99385499Y-77253746D01*
X99385500Y-77253759D01*
X99385500Y-79493103D01*
X99365815Y-79560142D01*
X99349181Y-79580784D01*
X96469381Y-82460584D01*
X96408058Y-82494069D01*
X96338366Y-82489085D01*
X96282433Y-82447213D01*
X96258016Y-82381749D01*
X96257700Y-82372903D01*
X96257700Y-75655953D01*
X97347700Y-75655953D01*
X97347700Y-75813646D01*
X97378461Y-75968289D01*
X97378464Y-75968301D01*
X97438802Y-76113972D01*
X97438809Y-76113985D01*
X97526410Y-76245088D01*
X97526410Y-76245089D01*
X97528574Y-76247252D01*
X97529346Y-76248666D01*
X97530276Y-76249799D01*
X97530061Y-76249975D01*
X97562064Y-76308573D01*
X97564900Y-76334940D01*
X97564900Y-78517734D01*
X97545215Y-78584773D01*
X97544002Y-78586625D01*
X97456009Y-78718314D01*
X97456002Y-78718327D01*
X97395664Y-78863998D01*
X97395661Y-78864010D01*
X97364900Y-79018653D01*
X97364900Y-79176346D01*
X97395661Y-79330989D01*
X97395664Y-79331001D01*
X97456002Y-79476672D01*
X97456009Y-79476685D01*
X97543610Y-79607788D01*
X97543613Y-79607792D01*
X97655107Y-79719286D01*
X97655111Y-79719289D01*
X97786214Y-79806890D01*
X97786227Y-79806897D01*
X97931898Y-79867235D01*
X97931903Y-79867237D01*
X98086553Y-79897999D01*
X98086556Y-79898000D01*
X98086558Y-79898000D01*
X98244244Y-79898000D01*
X98244245Y-79897999D01*
X98398897Y-79867237D01*
X98544579Y-79806894D01*
X98675689Y-79719289D01*
X98787189Y-79607789D01*
X98874794Y-79476679D01*
X98935137Y-79330997D01*
X98965900Y-79176342D01*
X98965900Y-79018658D01*
X98965900Y-79018655D01*
X98965899Y-79018653D01*
X98951254Y-78945027D01*
X98935137Y-78864003D01*
X98935135Y-78863998D01*
X98874797Y-78718327D01*
X98874790Y-78718314D01*
X98786798Y-78586625D01*
X98765920Y-78519947D01*
X98765900Y-78517734D01*
X98765900Y-76288824D01*
X98785585Y-76221785D01*
X98786798Y-76219933D01*
X98857590Y-76113985D01*
X98857590Y-76113984D01*
X98857594Y-76113979D01*
X98917937Y-75968297D01*
X98948700Y-75813642D01*
X98948700Y-75655958D01*
X98948700Y-75655955D01*
X98948699Y-75655953D01*
X98917938Y-75501310D01*
X98917937Y-75501303D01*
X98917935Y-75501298D01*
X98857597Y-75355627D01*
X98857590Y-75355614D01*
X98769989Y-75224511D01*
X98769986Y-75224507D01*
X98658492Y-75113013D01*
X98658488Y-75113010D01*
X98527385Y-75025409D01*
X98527372Y-75025402D01*
X98381701Y-74965064D01*
X98381689Y-74965061D01*
X98227045Y-74934300D01*
X98227042Y-74934300D01*
X98069358Y-74934300D01*
X98069355Y-74934300D01*
X97914710Y-74965061D01*
X97914698Y-74965064D01*
X97769027Y-75025402D01*
X97769014Y-75025409D01*
X97637911Y-75113010D01*
X97637907Y-75113013D01*
X97526413Y-75224507D01*
X97526410Y-75224511D01*
X97438809Y-75355614D01*
X97438802Y-75355627D01*
X97378464Y-75501298D01*
X97378461Y-75501310D01*
X97347700Y-75655953D01*
X96257700Y-75655953D01*
X96257700Y-74143697D01*
X96277385Y-74076658D01*
X96294019Y-74056016D01*
X96417389Y-73932646D01*
X96552862Y-73797172D01*
X96614183Y-73763689D01*
X96616350Y-73763238D01*
X96674285Y-73751713D01*
X96771697Y-73732337D01*
X96917379Y-73671994D01*
X97048489Y-73584389D01*
X97159989Y-73472889D01*
X97247594Y-73341779D01*
X97307937Y-73196097D01*
X97338700Y-73041442D01*
X97338700Y-72883758D01*
X97338700Y-72883755D01*
X97338699Y-72883753D01*
X97307938Y-72729110D01*
X97307938Y-72729108D01*
X97307937Y-72729103D01*
X97307935Y-72729098D01*
X97247597Y-72583427D01*
X97247590Y-72583414D01*
X97159989Y-72452311D01*
X97159986Y-72452307D01*
X97048492Y-72340813D01*
X97048488Y-72340810D01*
X96917385Y-72253209D01*
X96917372Y-72253202D01*
X96771701Y-72192864D01*
X96771689Y-72192861D01*
X96617045Y-72162100D01*
X96617042Y-72162100D01*
X96459358Y-72162100D01*
X96459355Y-72162100D01*
X96304710Y-72192861D01*
X96304698Y-72192864D01*
X96159027Y-72253202D01*
X96159014Y-72253209D01*
X96027911Y-72340810D01*
X96027907Y-72340813D01*
X95916413Y-72452307D01*
X95916410Y-72452311D01*
X95828809Y-72583414D01*
X95828802Y-72583427D01*
X95768464Y-72729098D01*
X95768461Y-72729108D01*
X95737561Y-72884450D01*
X95705176Y-72946361D01*
X95703625Y-72947939D01*
X95176681Y-73474882D01*
X95176679Y-73474885D01*
X95126561Y-73561694D01*
X95126559Y-73561696D01*
X95097625Y-73611809D01*
X95097624Y-73611810D01*
X95085365Y-73657561D01*
X95056699Y-73764543D01*
X95056699Y-73764545D01*
X95056699Y-73932646D01*
X95056700Y-73932659D01*
X95056700Y-80199306D01*
X95037015Y-80266345D01*
X94984211Y-80312100D01*
X94915053Y-80322044D01*
X94851497Y-80293019D01*
X94841421Y-80283235D01*
X94832153Y-80273156D01*
X94816120Y-80245384D01*
X94704316Y-80133580D01*
X94704313Y-80133578D01*
X90290874Y-75720139D01*
X90257389Y-75658816D01*
X90256938Y-75656649D01*
X90226038Y-75501310D01*
X90226037Y-75501303D01*
X90226035Y-75501298D01*
X90165697Y-75355627D01*
X90165690Y-75355614D01*
X90078089Y-75224511D01*
X90078086Y-75224507D01*
X89966592Y-75113013D01*
X89966588Y-75113010D01*
X89835485Y-75025409D01*
X89835472Y-75025402D01*
X89689801Y-74965064D01*
X89689789Y-74965061D01*
X89535145Y-74934300D01*
X89535142Y-74934300D01*
X89377458Y-74934300D01*
X89377455Y-74934300D01*
X89222810Y-74965061D01*
X89222798Y-74965064D01*
X89077127Y-75025402D01*
X89077114Y-75025409D01*
X88946011Y-75113010D01*
X88946007Y-75113013D01*
X88834513Y-75224507D01*
X88834510Y-75224511D01*
X88746909Y-75355614D01*
X88746902Y-75355627D01*
X88686564Y-75501298D01*
X88686561Y-75501310D01*
X88655800Y-75655953D01*
X88655800Y-75813646D01*
X88686561Y-75968289D01*
X88686564Y-75968301D01*
X88746902Y-76113972D01*
X88746909Y-76113985D01*
X88834510Y-76245088D01*
X88834513Y-76245092D01*
X88946007Y-76356586D01*
X88946011Y-76356589D01*
X89077114Y-76444190D01*
X89077127Y-76444197D01*
X89222798Y-76504535D01*
X89222803Y-76504537D01*
X89287447Y-76517395D01*
X89378149Y-76535438D01*
X89440060Y-76567823D01*
X89441639Y-76569374D01*
X93698781Y-80826516D01*
X93732266Y-80887839D01*
X93735100Y-80914197D01*
X93735100Y-84459434D01*
X93715415Y-84526473D01*
X93714202Y-84528325D01*
X93626209Y-84660014D01*
X93626202Y-84660027D01*
X93565864Y-84805698D01*
X93565861Y-84805710D01*
X93535100Y-84960353D01*
X93535100Y-85118046D01*
X93565861Y-85272689D01*
X93565864Y-85272701D01*
X93626202Y-85418372D01*
X93626209Y-85418385D01*
X93713810Y-85549488D01*
X93713813Y-85549492D01*
X93825307Y-85660986D01*
X93825311Y-85660989D01*
X93956414Y-85748590D01*
X93956427Y-85748597D01*
X94102098Y-85808935D01*
X94102103Y-85808937D01*
X94256753Y-85839699D01*
X94256756Y-85839700D01*
X94256758Y-85839700D01*
X94414444Y-85839700D01*
X94414445Y-85839699D01*
X94569097Y-85808937D01*
X94681766Y-85762267D01*
X94714772Y-85748597D01*
X94714772Y-85748596D01*
X94714779Y-85748594D01*
X94845889Y-85660989D01*
X94957389Y-85549489D01*
X95044994Y-85418379D01*
X95105337Y-85272697D01*
X95136100Y-85118042D01*
X95136100Y-84960358D01*
X95136100Y-84960355D01*
X95136099Y-84960353D01*
X95129149Y-84925413D01*
X95105337Y-84805703D01*
X95105335Y-84805698D01*
X95044997Y-84660027D01*
X95044990Y-84660014D01*
X94956998Y-84528325D01*
X94936120Y-84461647D01*
X94936100Y-84459434D01*
X94936100Y-84176993D01*
X94955785Y-84109954D01*
X95008589Y-84064199D01*
X95077747Y-84054255D01*
X95141303Y-84083280D01*
X95167488Y-84114995D01*
X95176677Y-84130912D01*
X95176679Y-84130915D01*
X95176680Y-84130916D01*
X95288484Y-84242720D01*
X95288485Y-84242721D01*
X95650084Y-84604320D01*
X95650086Y-84604321D01*
X95650090Y-84604324D01*
X95746562Y-84660021D01*
X95787016Y-84683377D01*
X95939743Y-84724301D01*
X95939745Y-84724301D01*
X96105454Y-84724301D01*
X96105470Y-84724300D01*
X98258299Y-84724300D01*
X98325338Y-84743985D01*
X98327170Y-84745185D01*
X98332721Y-84748894D01*
X98332722Y-84748894D01*
X98332723Y-84748895D01*
X98332725Y-84748896D01*
X98406519Y-84779462D01*
X98478403Y-84809237D01*
X98622008Y-84837802D01*
X98633053Y-84839999D01*
X98633056Y-84840000D01*
X98633058Y-84840000D01*
X98790744Y-84840000D01*
X98790745Y-84839999D01*
X98945397Y-84809237D01*
X98999249Y-84786930D01*
X99068716Y-84779462D01*
X99131195Y-84810737D01*
X99166848Y-84870825D01*
X99170700Y-84901492D01*
X99170700Y-86821903D01*
X99151015Y-86888942D01*
X99134381Y-86909584D01*
X98602784Y-87441181D01*
X98541461Y-87474666D01*
X98515103Y-87477500D01*
X97455757Y-87477500D01*
X97388718Y-87457815D01*
X97352655Y-87422391D01*
X97327253Y-87384375D01*
X97327250Y-87384371D01*
X97215756Y-87272877D01*
X97215752Y-87272874D01*
X97084649Y-87185273D01*
X97084636Y-87185266D01*
X96938965Y-87124928D01*
X96938953Y-87124925D01*
X96784309Y-87094164D01*
X96784306Y-87094164D01*
X96626622Y-87094164D01*
X96626619Y-87094164D01*
X96471974Y-87124925D01*
X96471962Y-87124928D01*
X96326291Y-87185266D01*
X96326278Y-87185273D01*
X96195175Y-87272874D01*
X96195171Y-87272877D01*
X96083677Y-87384371D01*
X95996483Y-87514865D01*
X95942870Y-87559669D01*
X95873545Y-87568376D01*
X95866387Y-87566999D01*
X95855873Y-87564654D01*
X95836089Y-87556459D01*
X95681434Y-87525696D01*
X95681209Y-87525696D01*
X95677941Y-87524967D01*
X95648570Y-87508728D01*
X95618833Y-87493173D01*
X95617254Y-87491622D01*
X95384313Y-87258681D01*
X95384305Y-87258675D01*
X95272531Y-87194143D01*
X95272530Y-87194142D01*
X95272530Y-87194143D01*
X95247381Y-87179623D01*
X95094653Y-87138699D01*
X94936539Y-87138699D01*
X94928943Y-87138699D01*
X94928927Y-87138700D01*
X94603998Y-87138700D01*
X94536959Y-87119015D01*
X94516317Y-87102381D01*
X81479590Y-74065655D01*
X81479588Y-74065652D01*
X81360717Y-73946781D01*
X81360716Y-73946780D01*
X81273904Y-73896660D01*
X81223785Y-73867723D01*
X81144764Y-73846549D01*
X81137973Y-73843841D01*
X81121567Y-73830976D01*
X81096221Y-73816342D01*
X81085392Y-73805513D01*
X81085388Y-73805510D01*
X80954285Y-73717909D01*
X80954272Y-73717902D01*
X80808601Y-73657564D01*
X80808589Y-73657561D01*
X80653945Y-73626800D01*
X80653942Y-73626800D01*
X80496258Y-73626800D01*
X80496255Y-73626800D01*
X80341610Y-73657561D01*
X80341598Y-73657564D01*
X80195927Y-73717902D01*
X80195914Y-73717909D01*
X80064811Y-73805510D01*
X80064807Y-73805513D01*
X79953313Y-73917007D01*
X79953310Y-73917011D01*
X79865709Y-74048114D01*
X79865702Y-74048127D01*
X79805364Y-74193798D01*
X79805361Y-74193810D01*
X79774600Y-74348453D01*
X79774600Y-74506146D01*
X79805361Y-74660789D01*
X79805364Y-74660801D01*
X79865702Y-74806472D01*
X79865709Y-74806485D01*
X79953310Y-74937588D01*
X79953313Y-74937592D01*
X80064807Y-75049086D01*
X80064811Y-75049089D01*
X80195914Y-75136690D01*
X80195927Y-75136697D01*
X80341598Y-75197035D01*
X80341603Y-75197037D01*
X80467552Y-75222090D01*
X80496253Y-75227799D01*
X80496256Y-75227800D01*
X80496258Y-75227800D01*
X80653944Y-75227800D01*
X80653945Y-75227799D01*
X80808597Y-75197037D01*
X80808609Y-75197031D01*
X80814424Y-75195269D01*
X80815038Y-75197294D01*
X80874953Y-75190834D01*
X80937442Y-75222090D01*
X80940655Y-75225190D01*
X89882084Y-84166620D01*
X89915569Y-84227943D01*
X89910585Y-84297635D01*
X89868713Y-84353568D01*
X89841856Y-84368862D01*
X89707524Y-84424504D01*
X89707514Y-84424509D01*
X89576411Y-84512110D01*
X89576407Y-84512113D01*
X89464910Y-84623610D01*
X89419488Y-84691591D01*
X89365876Y-84736396D01*
X89316386Y-84746700D01*
X89278355Y-84746700D01*
X89123710Y-84777461D01*
X89123698Y-84777464D01*
X88978027Y-84837802D01*
X88978014Y-84837809D01*
X88846911Y-84925410D01*
X88846907Y-84925413D01*
X88735413Y-85036907D01*
X88735410Y-85036911D01*
X88647809Y-85168014D01*
X88647802Y-85168027D01*
X88587464Y-85313698D01*
X88587461Y-85313710D01*
X88556700Y-85468353D01*
X88556700Y-85626046D01*
X88587461Y-85780689D01*
X88587464Y-85780701D01*
X88647802Y-85926372D01*
X88647809Y-85926385D01*
X88735802Y-86058074D01*
X88756680Y-86124751D01*
X88756700Y-86126965D01*
X88756700Y-106786303D01*
X88737015Y-106853342D01*
X88720381Y-106873984D01*
X85766184Y-109828181D01*
X85704861Y-109861666D01*
X85678503Y-109864500D01*
X81075166Y-109864500D01*
X81008127Y-109844815D01*
X81006275Y-109843602D01*
X80874585Y-109755609D01*
X80874572Y-109755602D01*
X80728901Y-109695264D01*
X80728889Y-109695261D01*
X80574245Y-109664500D01*
X80574242Y-109664500D01*
X80416558Y-109664500D01*
X80416555Y-109664500D01*
X80261910Y-109695261D01*
X80261898Y-109695264D01*
X80116227Y-109755602D01*
X80116214Y-109755609D01*
X79985111Y-109843210D01*
X79985107Y-109843213D01*
X79873613Y-109954707D01*
X79873610Y-109954711D01*
X79786009Y-110085814D01*
X79786002Y-110085827D01*
X79725664Y-110231498D01*
X79725661Y-110231510D01*
X79694900Y-110386153D01*
X53840500Y-110386153D01*
X53840500Y-71122706D01*
X53840618Y-71117298D01*
X53843377Y-71054108D01*
X53857690Y-70726255D01*
X53858629Y-70715524D01*
X53909367Y-70330137D01*
X53911240Y-70319510D01*
X53995375Y-69940004D01*
X53998166Y-69929589D01*
X54115057Y-69558857D01*
X54118741Y-69548736D01*
X54267498Y-69189603D01*
X54272056Y-69179829D01*
X54451540Y-68835045D01*
X54456935Y-68825700D01*
X54665793Y-68497858D01*
X54671983Y-68489018D01*
X54908612Y-68180637D01*
X54915550Y-68172368D01*
X55178157Y-67885783D01*
X55185783Y-67878157D01*
X55472368Y-67615550D01*
X55480637Y-67608612D01*
X55789018Y-67371983D01*
X55797858Y-67365793D01*
X56125700Y-67156935D01*
X56135045Y-67151540D01*
X56479829Y-66972056D01*
X56489603Y-66967498D01*
X56848736Y-66818741D01*
X56858857Y-66815057D01*
X57229589Y-66698166D01*
X57240004Y-66695375D01*
X57619510Y-66611240D01*
X57630137Y-66609367D01*
X58015524Y-66558629D01*
X58026255Y-66557690D01*
X58404776Y-66541164D01*
X58417298Y-66540618D01*
X58422706Y-66540500D01*
X58485892Y-66540500D01*
X132014108Y-66540500D01*
X132077294Y-66540500D01*
X132082702Y-66540618D01*
G37*
G04 #@! TD.AperFunction*
M02*
