M48
; DRILL file {KiCad 9.0.3} date 2025-08-18T11:47:19+0100
; FORMAT={-:-/ absolute / metric / decimal}
; #@! TF.CreationDate,2025-08-18T11:47:19+01:00
; #@! TF.GenerationSoftware,Kicad,Pcbnew,9.0.3
; #@! TF.FileFunction,Plated,1,2,PTH
FMAT,2
METRIC
; #@! TA.AperFunction,Plated,PTH,ViaDrill
T1C0.300
; #@! TA.AperFunction,Plated,PTH,ComponentDrill
T2C1.000
%
G90
G05
T1
X80.495Y-110.465
X80.575Y-74.427
X87.76Y-111.591
X89.357Y-85.547
X89.456Y-75.735
X90.087Y-85.134
X90.832Y-87.667
X92.128Y-87.273
X93.049Y-111.31
X94.336Y-85.039
X94.421Y-113.125
X94.797Y-88.389
X95.603Y-88.326
X96.25Y-83.529
X96.538Y-72.963
X96.705Y-87.895
X98.148Y-75.735
X98.165Y-79.097
X98.712Y-84.039
X99.771Y-83.718
X100.404Y-85.517
X100.659Y-77.322
X104.851Y-82.702
X132.868Y-92.091
X133.823Y-79.324
X134.398Y-92.071
T2
X133.35Y-104.14
X133.35Y-106.68
X133.35Y-109.22
M30
